<svg xmlns="http://www.w3.org/2000/svg" xmlns:xlink="http://www.w3.org/1999/xlink" width="132.943" height="42.415" viewBox="0 0 132.943 42.415"><defs><clipPath id="a"><path d="M101.809,191.777h3.668v16.85h-3.668Zm0,0" transform="translate(-101.809 -191.777)"/></clipPath><clipPath id="b"><path d="M106,242h4.39v8.092H106Zm0,0" transform="translate(-106 -242)"/></clipPath><clipPath id="c"><path d="M106,241h4.39v8.491H106Zm0,0" transform="translate(-106 -241)"/></clipPath><clipPath id="d"><path d="M109,242h2v8.092h-2Zm0,0" transform="translate(-109 -242)"/></clipPath><clipPath id="e"><path d="M112,261h.8v.51H112Zm0,0" transform="translate(-112 -261)"/></clipPath><clipPath id="g"><path d="M112,260h.8v.909H112Zm0,0" transform="translate(-112 -260)"/></clipPath><clipPath id="j"><path d="M113,259h.4v1.308H113Zm0,0" transform="translate(-113 -259)"/></clipPath><clipPath id="k"><path d="M113,262h.4v.111H113Zm0,0" transform="translate(-113 -262)"/></clipPath><clipPath id="m"><path d="M113,260h.4v.909H113Zm0,0" transform="translate(-113 -260)"/></clipPath><clipPath id="n"><path d="M113,261h.4v.51H113Zm0,0" transform="translate(-113 -261)"/></clipPath></defs><g transform="translate(-140.569 -22.855)"><g transform="translate(182.57 56.566)"><g transform="translate(0)"><path d="M6.589-21.563a3.976,3.976,0,0,1,2.631.8,2.706,2.706,0,0,1,.96,2.195,2.71,2.71,0,0,1-.96,2.2,3.991,3.991,0,0,1-2.631.8H4.463v2.606H3.234v-8.6ZM6.552-16.63a2.75,2.75,0,0,0,1.777-.5,1.736,1.736,0,0,0,.617-1.434,1.72,1.72,0,0,0-.617-1.428,2.759,2.759,0,0,0-1.777-.5H4.463v3.86Zm0,0" transform="translate(-3.234 21.563)" fill="#f3f3ff"/></g></g><g transform="translate(194.032 56.566)"><g transform="translate(0)"><path d="M6.753-15.109H2.182l-.948,2.151H-.031l3.9-8.6H5.082l3.91,8.6H7.7Zm-.43-.985L4.464-20.309,2.613-16.094Zm0,0" transform="translate(0.031 21.563)" fill="#f3f3ff"/></g></g><g transform="translate(207.326 56.566)"><path d="M14.035-21.563l-2.874,8.6H9.87L7.525-19.829,5.175-12.958H3.859l-2.874-8.6H2.25l2.326,7,2.419-7H8.124L10.5-14.529l2.369-7.033Zm0,0" transform="translate(-0.984 21.563)" fill="#f3f3ff"/></g><g transform="translate(225.168 56.473)"><g transform="translate(0 0)"><path d="M4.558-13a5.929,5.929,0,0,1-1.877-.3,3.871,3.871,0,0,1-1.415-.786l.455-.954a3.712,3.712,0,0,0,1.26.717,4.622,4.622,0,0,0,1.578.274,2.831,2.831,0,0,0,1.6-.362,1.117,1.117,0,0,0,.53-.966.941.941,0,0,0-.293-.717,1.967,1.967,0,0,0-.711-.424c-.284-.1-.683-.209-1.2-.33a13.029,13.029,0,0,1-1.565-.468A2.544,2.544,0,0,1,1.9-18.031a1.918,1.918,0,0,1-.424-1.309,2.2,2.2,0,0,1,.362-1.241,2.519,2.519,0,0,1,1.1-.885A4.479,4.479,0,0,1,4.77-21.8a5.721,5.721,0,0,1,1.5.2,4.007,4.007,0,0,1,1.266.561l-.405.979a4.452,4.452,0,0,0-1.16-.518,4.236,4.236,0,0,0-1.2-.181,2.678,2.678,0,0,0-1.571.38,1.169,1.169,0,0,0-.524.985.952.952,0,0,0,.293.723,2.1,2.1,0,0,0,.736.43,11.736,11.736,0,0,0,1.185.318,11.92,11.92,0,0,1,1.559.474,2.616,2.616,0,0,1,1.016.711,1.87,1.87,0,0,1,.424,1.291,2.21,2.21,0,0,1-.368,1.235,2.5,2.5,0,0,1-1.122.885A4.62,4.62,0,0,1,4.558-13Zm0,0" transform="translate(-1.266 21.797)" fill="#f3f3ff"/></g></g><g transform="translate(140.569 29.825)"><g transform="translate(0 0)"><path d="M4.3-21.953V-36.531h6.56a4.807,4.807,0,0,1,1.8.324,3.833,3.833,0,0,1,1.366.917,3.94,3.94,0,0,1,.86,1.428,5.545,5.545,0,0,1,.293,1.839,5.534,5.534,0,0,1-.293,1.852,4.007,4.007,0,0,1-.86,1.422,3.793,3.793,0,0,1-1.366.917,4.775,4.775,0,0,1-1.8.324h-3.8v5.556Zm2.756-7.938H10.6a1.764,1.764,0,0,0,1.253-.424,1.6,1.6,0,0,0,.461-1.228v-.96a1.553,1.553,0,0,0-.461-1.21,1.79,1.79,0,0,0-1.253-.418H7.053Zm0,0" transform="translate(-4.297 36.531)" fill="#f3f3ff"/></g></g><g transform="translate(155.814 29.825)"><g transform="translate(0 0)"><path d="M11.394-21.953l-1.172-3.716H5.047L3.893-21.953h-2.8L5.982-36.531H9.412l4.845,14.578ZM7.678-34.025H7.572L5.714-28.033H9.555Zm0,0" transform="translate(-1.094 36.531)" fill="#f3f3ff"/></g></g><path d="M108.064,236.806l.873-.134-.29-3.559-1.394.215.811,3.478" transform="translate(67.511 -193.762)" fill="#ef233c"/><path d="M107.948,236.691l.011.077.874-.134a.077.077,0,0,0,.064-.083l-.29-3.559a.081.081,0,0,0-.03-.055.072.072,0,0,0-.059-.014l-1.394.213a.077.077,0,0,0-.051.033.071.071,0,0,0-.011.061l.809,3.478a.079.079,0,0,0,.087.059l-.011-.077.075-.017-.792-3.4,1.228-.189.279,3.4-.8.123.012.076.075-.017-.075.017" transform="translate(67.628 -193.648)" fill="#ef233c"/><g transform="translate(172.592 22.855)" clip-path="url(#a)"><path d="M104.093,208.612l1.392-.215s-.27-2.938-1.01-7.668a60.455,60.455,0,0,0-1.969-8.489s-.053-.231-.259-.256l-.084.014a.333.333,0,0,0-.168.321,60.419,60.419,0,0,0,.717,8.681c.74,4.73,1.381,7.612,1.381,7.612" transform="translate(-101.92 -191.901)" fill="#ef233c"/><path d="M103.977,208.5l.011.075,1.394-.214a.078.078,0,0,0,.066-.083s-.271-2.943-1.01-7.673a61.019,61.019,0,0,0-1.972-8.5l-.075.024.077-.017a.526.526,0,0,0-.064-.142.372.372,0,0,0-.1-.108.335.335,0,0,0-.164-.065.085.085,0,0,0-.02,0l-.086.012a.076.076,0,0,0-.02.006.342.342,0,0,0-.182.2.489.489,0,0,0-.031.174v.025l.078-.006H101.8v.039a60.987,60.987,0,0,0,.719,8.654c.74,4.731,1.381,7.614,1.381,7.615a.079.079,0,0,0,.087.059l-.011-.075.075-.017s-.009-.045-.028-.132c-.132-.616-.7-3.337-1.352-7.473a60.821,60.821,0,0,1-.717-8.631c0-.027,0-.039,0-.039V192.2h0v-.013a.333.333,0,0,1,.022-.12.2.2,0,0,1,.1-.114l-.031-.068.011.075.086-.012-.012-.077-.01.077a.182.182,0,0,1,.091.036.267.267,0,0,1,.081.1.323.323,0,0,1,.017.044l0,.012,0,0,0,.006.014.042a60.966,60.966,0,0,1,1.952,8.435c.371,2.363.623,4.279.782,5.6.08.662.137,1.177.173,1.526.019.174.033.308.042.4s.012.136.012.136l.076-.008-.011-.075-1.394.213.012.076.075-.017-.075.017" transform="translate(-101.804 -191.787)" fill="#ef233c"/></g><g transform="translate(174.264 42.897)" clip-path="url(#b)"><path d="M107.809,242.165a6.065,6.065,0,0,0-.923,3.981c.338,2.162,2.6,3.874,2.6,3.874a5.891,5.891,0,0,1,.63-3.263c1.591-3.612-1.433-4.726-1.433-4.726l-.873.134" transform="translate(-106.498 -242.019)" fill="#ef233c"/></g><g transform="translate(174.264 42.498)" clip-path="url(#c)"><path d="M107.694,242.05l-.064-.044a6.334,6.334,0,0,0-.993,3.275,4.947,4.947,0,0,0,.057.761,5.85,5.85,0,0,0,1.443,2.787,8.787,8.787,0,0,0,1.185,1.137.075.075,0,0,0,.087,0,.078.078,0,0,0,.036-.081,2.549,2.549,0,0,1-.034-.466,6.912,6.912,0,0,1,.659-2.751,4.9,4.9,0,0,0,.469-1.973,3.006,3.006,0,0,0-.3-1.348,3.147,3.147,0,0,0-1.026-1.166,2.991,2.991,0,0,0-.617-.34.065.065,0,0,0-.039,0l-.873.132a.087.087,0,0,0-.051.033l.064.044.011.077.874-.134-.012-.077-.027.072,0,0a3.189,3.189,0,0,1,.962.633,2.778,2.778,0,0,1,.879,2.076,4.769,4.769,0,0,1-.455,1.913,7.075,7.075,0,0,0-.672,2.812,2.844,2.844,0,0,0,.036.5l.076-.016.047-.061-.006,0a8.878,8.878,0,0,1-1.211-1.177,5.617,5.617,0,0,1-1.352-2.644,4.8,4.8,0,0,1-.056-.737,5.939,5.939,0,0,1,.483-2.268,6.618,6.618,0,0,1,.334-.676c.045-.079.083-.14.109-.182.012-.02.023-.036.03-.045l.008-.013,0,0-.064-.044.011.077-.011-.077" transform="translate(-106.383 -241.505)" fill="#ef233c"/></g><path d="M109.326,249.568c-.014-.016-.03-.03-.043-.045a7.161,7.161,0,0,1-.65-.9,6.342,6.342,0,0,1-.795-2,4.946,4.946,0,0,1,0-2.139,8.165,8.165,0,0,1,.279-1.05,9.1,9.1,0,0,1,.36-.932l.053-.01,0,.014a7.716,7.716,0,0,0-.63,1.939,5.669,5.669,0,0,0,0,2.156,6.66,6.66,0,0,0,.775,2.012c.1.173.209.342.321.507a4.643,4.643,0,0,0,.321.452" transform="translate(67.23 -199.396)" fill="#ef233c"/><path d="M110.589,249.6c-.056-.062-.112-.126-.165-.19.014.016.03.03.044.045.041.049.079.1.122.145m-.968-7.216c.012-.028.025-.056.039-.084l.014.075-.053.01" transform="translate(66.088 -199.284)" fill="#ef233c"/><g transform="translate(175.462 42.897)" clip-path="url(#d)"><path d="M111.045,250.182a6.939,6.939,0,0,1-.812-.742,6.78,6.78,0,0,1-.678-.87c-.045-.069-.089-.139-.129-.209.145.208.3.4.449.579s.295.33.432.471c.053.064.109.128.165.19a6.28,6.28,0,0,0,.555.564l.014.014,0,0m-1.551-7.8c.016-.03.031-.058.048-.086-.014.028-.027.056-.039.084l-.009,0" transform="translate(-109.256 -242.181)" fill="#ef233c"/></g><path d="M109.069,249.537c-.137-.14-.284-.3-.432-.471s-.3-.371-.449-.579a6.189,6.189,0,0,1-.716-1.824,4.9,4.9,0,0,1,.039-2.195,7.745,7.745,0,0,1,.745-1.956l.009,0a9.1,9.1,0,0,0-.36.932,8.163,8.163,0,0,0-.279,1.05,4.945,4.945,0,0,0,0,2.139,6.341,6.341,0,0,0,.795,2,7.157,7.157,0,0,0,.65.9" transform="translate(67.444 -199.411)" fill="#ef233c"/><path d="M113.238,259.857v-.033l0,.019a.041.041,0,0,1,0,.014" transform="translate(63.915 -209.814)" fill="#ef233c"/><path d="M112,248.584l-.034-.305c.014-.073.031-.148.048-.223.164-.694.437-1.362.616-2.068a4.1,4.1,0,0,0,.128-1.087,3.036,3.036,0,0,0-.07-.547,3.641,3.641,0,0,0-.152-.526,3.443,3.443,0,0,0-.532-.954,2.708,2.708,0,0,0-.7-.622l0-.012.062-.01.02.008a6.291,6.291,0,0,1,.7.681,4.192,4.192,0,0,1,.623.886,2.766,2.766,0,0,1,.108,2.083,10.1,10.1,0,0,1-.349,1.03,10.068,10.068,0,0,0-.365,1.038,3.456,3.456,0,0,0-.1.628" transform="translate(65.084 -199.241)" fill="#ef233c"/><path d="M111.281,242.139l-.008-.076.091.075-.02-.008-.062.01" transform="translate(65.096 -199.141)" fill="#ef233c"/><path d="M112.19,249.349l-.078-.616c0-.045,0-.09.008-.137a3.456,3.456,0,0,1,.1-.628,10.07,10.07,0,0,1,.365-1.038,10.1,10.1,0,0,0,.349-1.03,2.766,2.766,0,0,0-.108-2.083,4.193,4.193,0,0,0-.623-.886,6.291,6.291,0,0,0-.7-.681l.039.017a4.811,4.811,0,0,1,1.39,1.495,2.315,2.315,0,0,1,.215.518,2.483,2.483,0,0,1,.078.556,3.787,3.787,0,0,1-.142,1.1c-.2.716-.532,1.374-.748,2.062a3.7,3.7,0,0,0-.142,1.066c0,.065,0,.131,0,.2v.033c0,.017,0,.036,0,.053" transform="translate(64.959 -199.253)" fill="#ef233c"/><path d="M112.065,249.322l-.011-.086c0-.017,0-.036,0-.053,0,.047,0,.092.008.139m-.662-7.168-.039-.017-.091-.075c.044.03.087.061.13.092" transform="translate(65.096 -199.141)" fill="#ef233c"/><path d="M111.993,253.075l-.087-.51c.01-.051.019-.1.028-.151l.083.528c-.008.044-.016.089-.024.132" transform="translate(64.715 -205.361)" fill="#ef233c"/><path d="M110.968,245.96l-.077-.5.01-.079c0-.062.009-.125.012-.187l.089.621c-.011.047-.022.093-.034.142m-.334-2.706c-.05-.168-.106-.334-.167-.5l-.058-.372.027,0c.034.065.068.132.1.2l.1.676" transform="translate(65.614 -199.331)" fill="#ef233c"/><path d="M110.391,242.276l-.012-.077c.012.024.025.048.039.072l-.027,0" transform="translate(65.633 -199.223)" fill="#ef233c"/><path d="M111.8,251.713l-.071-.427c.011-.05.022-.1.033-.148s.023-.1.034-.142l.061.423c0,.019-.008.039-.011.059s-.011.056-.017.084c-.01.05-.019.1-.028.151" transform="translate(64.823 -204.509)" fill="#ef233c"/><path d="M110.578,242.575c-.033-.065-.067-.133-.1-.2l.008,0,.084.136.009.064" transform="translate(65.574 -199.328)" fill="#ef233c"/><path d="M110.418,242.271c-.014-.024-.027-.048-.039-.072l.047.07-.008,0" transform="translate(65.633 -199.223)" fill="#ef233c"/><path d="M110.055,244.007l-.142-.748c-.008-.174-.02-.349-.036-.524l.128.7a.205.205,0,0,0,0,.031c.019.181.036.363.047.545m-.217-1.139-.006-.031.009-.3,0,.008,0,.321m-.05-.259-.018-.1a.27.27,0,0,0,.012-.036l.047-.006,0,.011c-.014.044-.028.089-.042.132" transform="translate(65.999 -199.382)" fill="#ef233c"/><path d="M109.8,242.358l.033-.081.014.075-.047.006" transform="translate(65.98 -199.269)" fill="#ef233c"/><path d="M108.916,248.19c-.048-.107-.1-.215-.14-.322l.009-.268c.014.045.03.09.048.134a3.258,3.258,0,0,0,.083.457m-.449-1.255c-.026-.1-.05-.211-.07-.316a5.982,5.982,0,0,1-.022-2.107,8.351,8.351,0,0,1,.218-1.043,9.352,9.352,0,0,1,.289-.9l.018.1c-.121.388-.219.784-.3,1.182a9.717,9.717,0,0,0-.192,1.4c-.012.234-.008.474,0,.706s.017.466.036.7c.006.093.014.185.023.279m.471-.613,0-.87c.009-.072.019-.143.028-.215a11.21,11.21,0,0,0,.069-1.373q0-.272-.014-.543l.142.748c.011.164.017.327.019.49a5.735,5.735,0,0,1-.07,1.026c-.028.167-.079.332-.121.5q-.031.114-.056.234m-.04-2.045.047-1.378.006.031c0,.084,0,.167-.008.249,0,.227-.011.455-.024.683-.006.137-.014.276-.022.415" transform="translate(66.887 -199.445)" fill="#ef233c"/><path d="M109.763,242.516l0-.019a.044.044,0,0,0,.008-.016l.01,0a.274.274,0,0,1-.012.036" transform="translate(66.006 -199.391)" fill="#ef233c"/><path d="M109.777,242.36c.014-.026.028-.054.042-.083l-.033.081-.01,0" transform="translate(65.995 -199.269)" fill="#ef233c"/><path d="M109.128,249.137c-.113-.165-.22-.334-.321-.507a6.66,6.66,0,0,1-.775-2.012,5.669,5.669,0,0,1,0-2.156,7.716,7.716,0,0,1,.63-1.939l0,.019a9.35,9.35,0,0,0-.289.9,8.355,8.355,0,0,0-.218,1.043,5.981,5.981,0,0,0,.022,2.107c.02.106.043.212.07.316a3.343,3.343,0,0,0,.067.424,4.507,4.507,0,0,0,.235.664l.006-.156c.043.107.092.215.14.322a3.067,3.067,0,0,0,.175.494,3.9,3.9,0,0,0,.257.482" transform="translate(67.107 -199.417)" fill="#ef233c"/><path d="M112.956,258.034l-.05-.371c0-.014,0-.028.008-.042l.043.349c0,.02,0,.042,0,.064" transform="translate(64.114 -208.49)" fill="#ef233c"/><path d="M113.109,259.141l-.078-.581c0-.022,0-.043,0-.064l.078.616c0,.011,0,.02,0,.03" transform="translate(64.039 -209.016)" fill="#ef233c"/><path d="M113.244,260.2l-.017-.136c0-.009,0-.019,0-.03l.011.086,0,.079" transform="translate(63.921 -209.943)" fill="#ef233c"/><path d="M111.738,248.029l-.02-.162c.006-.044.014-.087.022-.131l.02.192c-.006.033-.014.067-.022.1m-.591-5.643c-.039-.037-.079-.073-.12-.109l.073-.011.036.025.011.095" transform="translate(65.243 -199.263)" fill="#ef233c"/><path d="M110.992,242.182l-.016-.012-.008-.061c.033.02.065.041.1.063l-.073.011" transform="translate(65.278 -199.168)" fill="#ef233c"/><path d="M111.924,247.965l-.02-.192c.037-.215.085-.429.143-.641.09-.338.2-.672.284-1.019a4.051,4.051,0,0,0-.042-2.119,3.7,3.7,0,0,0-.977-1.572l-.011-.1a2.789,2.789,0,0,1,.642.65,3.341,3.341,0,0,1,.48.948,3.834,3.834,0,0,1,.2,1.037,4,4,0,0,1-.139,1.048c-.153.653-.405,1.287-.555,1.955" transform="translate(65.079 -199.3)" fill="#ef233c"/><path d="M111.887,248.433l-.047-.362a.087.087,0,0,1,0-.02c0-.01,0-.017,0-.025.008-.034.016-.069.022-.1l.042.373c-.006.031-.012.062-.017.093,0,.014,0,.028-.008.042m-.64-6.145-.036-.025.017,0a.09.09,0,0,1,.017.009l0,.017" transform="translate(65.133 -199.26)" fill="#ef233c"/><path d="M111.066,242.172c-.031-.022-.064-.042-.1-.063.039.019.076.039.114.061l-.017,0" transform="translate(65.278 -199.168)" fill="#ef233c"/><path d="M111.964,248.312l-.042-.373c.15-.667.4-1.3.555-1.955a4,4,0,0,0,.139-1.048,3.835,3.835,0,0,0-.2-1.037,3.341,3.341,0,0,0-.48-.948,2.788,2.788,0,0,0-.642-.65l0-.017a2.709,2.709,0,0,1,.7.622,3.443,3.443,0,0,1,.532.954,3.643,3.643,0,0,1,.152.526,3.035,3.035,0,0,1,.07.547,4.1,4.1,0,0,1-.128,1.087c-.179.706-.452,1.375-.616,2.068-.017.075-.034.15-.048.223" transform="translate(65.081 -199.274)" fill="#ef233c"/><path d="M111.577,251.131l-.073-.419.014-.083.075.437c0,.022-.011.043-.016.065" transform="translate(64.957 -204.288)" fill="#ef233c"/><path d="M111.968,253.36l-.089-.5c0-.024.008-.045.011-.067l.087.51c0,.019-.006.039-.009.058" transform="translate(64.731 -205.589)" fill="#ef233c"/><path d="M111.764,252.217l-.076-.429c0-.022.011-.044.016-.065l.071.427c0,.022-.008.044-.011.067" transform="translate(64.846 -204.946)" fill="#ef233c"/><path d="M110.617,245.208l-.472-2.781.011,0c.076.224.145.452.2.681l.263,1.676a4.2,4.2,0,0,1,0,.425" transform="translate(65.774 -199.359)" fill="#ef233c"/><path d="M110.123,242.317l-.014-.075c.01.025.017.048.025.073l-.011,0" transform="translate(65.795 -199.248)" fill="#ef233c"/><path d="M110.943,245.809l-.263-1.676c.022.083.04.164.059.246a7.589,7.589,0,0,1,.176,1.02c.012.137.022.273.028.41" transform="translate(65.452 -200.385)" fill="#ef233c"/><path d="M110.7,245.78l-.079-.447c0-.042.008-.084.009-.126a4.2,4.2,0,0,0,0-.425l.111.709c-.009.07-.02.139-.031.208l-.014.083m-.329-2.675c-.058-.229-.127-.457-.2-.681l.008,0q.077.18.145.36l.05.323" transform="translate(65.757 -199.357)" fill="#ef233c"/><path d="M110.134,242.315c-.008-.025-.016-.048-.025-.073l.033.072-.008,0" transform="translate(65.795 -199.248)" fill="#ef233c"/><path d="M110.979,246.032l-.111-.709c-.006-.137-.016-.273-.028-.41a7.589,7.589,0,0,0-.176-1.02c-.019-.083-.038-.164-.059-.246l-.05-.323c.061.164.117.329.167.5l.279,1.944c0,.063-.008.125-.012.187l-.01.079" transform="translate(65.527 -199.899)" fill="#ef233c"/><path d="M112.417,255.042l-.058-.376c.006-.041.011-.083.019-.123l.058.4c-.006.033-.012.067-.019.1" transform="translate(64.443 -206.641)" fill="#ef233c"/><path d="M112.375,255.335l-.059-.349c0-.045.011-.089.017-.134l.058.375c0,.036-.011.072-.016.108" transform="translate(64.469 -206.826)" fill="#ef233c"/><path d="M112.36,255.585l-.059-.337c0-.02,0-.041.006-.061l.059.349a.436.436,0,0,0-.006.048" transform="translate(64.478 -207.028)" fill="#ef233c"/><path d="M111.288,246.758l-.079-.546c.008-.042.017-.084.025-.125l.077.564c-.008.034-.016.07-.022.106m-.51-4.09c-.034-.061-.069-.122-.1-.182l-.022-.145.053-.008c.011.014.024.026.034.041l.039.295" transform="translate(65.469 -199.302)" fill="#ef233c"/><path d="M110.636,242.239l-.011-.075h0c.022.022.044.044.064.067l-.053.008" transform="translate(65.485 -199.201)" fill="#ef233c"/><path d="M111.195,246.116l-.089-.621c.006-.128.006-.254,0-.382l.119.882a.655.655,0,0,0-.016.064c-.006.019-.011.038-.016.056m-.214-1.958c-.043-.2-.095-.407-.154-.607l-.1-.676c.039.081.077.164.113.246l.138,1.037" transform="translate(65.422 -199.629)" fill="#ef233c"/><path d="M111.956,251.238l-.061-.423c0-.019.009-.038.016-.056a.647.647,0,0,1,.016-.064l.054.418c-.008.041-.017.083-.025.125" transform="translate(64.722 -204.328)" fill="#ef233c"/><path d="M110.829,243.025c-.036-.083-.073-.165-.113-.246l-.009-.064c.036.061.07.122.1.182l.017.128" transform="translate(65.436 -199.533)" fill="#ef233c"/><path d="M111.252,246.514l-.279-1.944c.059.2.111.4.154.607l.126.955c0,.128,0,.254,0,.382" transform="translate(65.276 -200.647)" fill="#ef233c"/><path d="M112.181,254.577l-.079-.449c0-.019.006-.039.009-.058l.076.446c0,.02,0,.04-.006.061" transform="translate(64.597 -206.356)" fill="#ef233c"/><path d="M112.254,253.833l-.07-.445c.008-.042.016-.084.025-.126s.014-.072.022-.106l.059.451c0,.03-.011.061-.016.092,0,0,0,.008,0,.011-.008.041-.012.083-.019.123" transform="translate(64.548 -205.807)" fill="#ef233c"/><path d="M112.2,254.317l-.076-.446c.008-.044.016-.089.024-.133l.07.445c-.006.045-.012.089-.017.134" transform="translate(64.584 -206.157)" fill="#ef233c"/><path d="M110.819,242.37c-.011-.014-.023-.027-.034-.041l.012,0a.15.15,0,0,1,.019.017l0,.025" transform="translate(65.389 -199.3)" fill="#ef233c"/><path d="M110.689,242.231c-.02-.024-.042-.045-.064-.067h0a.783.783,0,0,1,.075.065l-.012,0" transform="translate(65.485 -199.201)" fill="#ef233c"/><path d="M110.972,247.966l-.184-1.007c-.006-.1-.014-.206-.022-.307l.215,1.222c0,.022,0,.044-.006.064a.167.167,0,0,0,0,.028" transform="translate(65.4 -201.899)" fill="#ef233c"/><path d="M110.985,248.555l-.154-.812c0-.091,0-.181-.008-.271,0-.017,0-.034,0-.05l.184,1.007c-.006.042-.012.084-.019.126" transform="translate(65.368 -202.361)" fill="#ef233c"/><path d="M110.507,252.643a3.909,3.909,0,0,1-.306-.6,3.379,3.379,0,0,1-.235-.991,3.926,3.926,0,0,1,.066-1.02c.03-.168.065-.338.106-.5s.089-.337.117-.513a4.7,4.7,0,0,0,.058-.783l.154.812c-.045.285-.117.572-.182.859a6.635,6.635,0,0,0-.165,1.04,3.011,3.011,0,0,0,.113,1.054,3.329,3.329,0,0,0,.276.652" transform="translate(65.887 -202.845)" fill="#ef233c"/><path d="M111.548,251.313l-.075-.411c0-.022.008-.044.012-.065l.073.419c0,.019-.008.039-.011.057" transform="translate(64.975 -204.413)" fill="#ef233c"/><path d="M111.946,253.513l-.091-.494.01-.057.089.5c0,.017-.006.034-.008.051" transform="translate(64.746 -205.69)" fill="#ef233c"/><path d="M111.738,252.373l-.078-.429c0-.019.008-.039.011-.057l.076.429-.01.057" transform="translate(64.863 -205.044)" fill="#ef233c"/><path d="M111.5,251.5l-.078-.4c.008-.033.014-.065.02-.1l.075.411c0,.013-.006.027-.009.039a.463.463,0,0,1-.008.05" transform="translate(65.006 -204.511)" fill="#ef233c"/><path d="M111.393,255.025c-.07-.1-.137-.2-.2-.309a3.5,3.5,0,0,1-.407-.941,3.159,3.159,0,0,1-.087-1.013,6.673,6.673,0,0,1,.174-1.015c.036-.167.075-.332.108-.5l.078.4a6.636,6.636,0,0,0-.09,2.031,4.268,4.268,0,0,0,.26,1.013c.048.112.1.224.162.332" transform="translate(65.445 -204.659)" fill="#ef233c"/><path d="M111.912,253.677l-.092-.483c0-.03.01-.059.014-.089l.091.494c0,.025-.009.051-.012.078" transform="translate(64.767 -205.776)" fill="#ef233c"/><path d="M112.262,256.627l-.106-.092a2.832,2.832,0,0,1-.293-.617,4.122,4.122,0,0,1-.214-1,6.633,6.633,0,0,1,.053-1.59l.092.483a4.505,4.505,0,0,0-.045,1.016,4.429,4.429,0,0,0,.2,1.029,5.15,5.15,0,0,0,.238.6c.024.057.048.114.077.168" transform="translate(64.885 -205.91)" fill="#ef233c"/><g transform="translate(176.659 50.479)" clip-path="url(#e)"><path d="M113.167,261.638c-.048-.058-.095-.115-.142-.173-.024-.033-.047-.067-.069-.1l.106.092c.031.062.067.123.1.182" transform="translate(-112.575 -261.218)" fill="#ef233c"/></g><path d="M111.7,252.549l-.081-.429a.469.469,0,0,0,.008-.05c0-.012.006-.026.009-.039l.078.429c0,.03-.009.059-.014.089" transform="translate(64.889 -205.131)" fill="#ef233c"/><path d="M111.952,255.889c-.011-.008-.022-.019-.033-.028-.058-.075-.115-.153-.17-.231-.059-.108-.114-.22-.162-.332a4.269,4.269,0,0,1-.26-1.013,6.637,6.637,0,0,1,.09-2.031l.081.429a6.633,6.633,0,0,0-.053,1.59,4.122,4.122,0,0,0,.214,1,2.83,2.83,0,0,0,.293.617" transform="translate(65.089 -205.265)" fill="#ef233c"/><path d="M112.976,261.422c-.034-.042-.069-.086-.1-.129.011.009.022.02.033.028.022.034.045.069.069.1" transform="translate(64.133 -210.697)" fill="#ef233c"/><path d="M113.11,261.344a0,0,0,0,0,0,0c-.028-.055-.053-.111-.077-.168.027.055.051.109.079.162v.01" transform="translate(64.039 -210.624)" fill="#ef233c"/><path d="M111.358,250.228l-.077-.421a.167.167,0,0,1,0-.028c0-.02,0-.042.006-.064l.079.447c0,.022-.008.044-.012.065" transform="translate(65.091 -203.739)" fill="#ef233c"/><path d="M111.309,250.464l-.075-.393c.006-.042.013-.084.019-.126l.077.421c-.006.033-.013.065-.02.1" transform="translate(65.119 -203.877)" fill="#ef233c"/><path d="M111.293,254.608l-.037-.033q-.173-.215-.332-.439c-.043-.062-.087-.125-.129-.189l-.051-.081a3.328,3.328,0,0,1-.276-.652,3.01,3.01,0,0,1-.113-1.053,6.635,6.635,0,0,1,.165-1.04c.065-.287.137-.573.182-.859l.075.393c-.033.168-.072.334-.108.5a6.673,6.673,0,0,0-.174,1.015,3.159,3.159,0,0,0,.087,1.013,3.5,3.5,0,0,0,.407.941c.061.106.128.209.2.309.033.059.069.119.106.174" transform="translate(65.652 -204.068)" fill="#ef233c"/><path d="M112.7,261.168l-.012-.016c-.024-.026-.047-.054-.07-.083l.037.033c.014.022.03.044.045.065" transform="translate(64.286 -210.563)" fill="#ef233c"/><path d="M112.619,260.946c-.02-.017-.042-.036-.064-.056-.037-.056-.073-.115-.106-.174.055.078.112.156.17.231" transform="translate(64.389 -210.35)" fill="#ef233c"/><g transform="translate(176.659 50.479)" clip-path="url(#e)"><path d="M113.019,261.508c-.087-.1-.175-.192-.259-.29-.016-.022-.031-.044-.045-.065.022.02.043.039.064.056.033.043.067.087.1.129a1.75,1.75,0,0,0,.139.17" transform="translate(-112.43 -261.091)" fill="#ef233c"/></g><path d="M111.926,260.124l0-.006c-.111-.131-.215-.267-.313-.409-.05-.07-.1-.14-.143-.214.042.064.086.127.129.189q.159.224.332.439" transform="translate(64.98 -209.617)" fill="#ef233c"/><path d="M112.684,261.144c-.025-.03-.051-.059-.075-.089l0,.006c.024.028.047.056.07.083" transform="translate(64.293 -210.554)" fill="#ef233c"/><path d="M112.344,255.717l-.059-.324c0-.019,0-.036.006-.053l.059.337a.35.35,0,0,0-.006.04" transform="translate(64.488 -207.119)" fill="#ef233c"/><path d="M112.327,255.863l-.057-.309c0-.027,0-.055.006-.081l.059.324c0,.022,0,.044-.008.065" transform="translate(64.497 -207.199)" fill="#ef233c"/><path d="M112.31,256.92a4.247,4.247,0,0,1-.078-.688,5.51,5.51,0,0,1,.014-.556l.057.309c-.006.061-.011.122-.014.182a3.925,3.925,0,0,0,.02.753" transform="translate(64.521 -207.321)" fill="#ef233c"/><path d="M112.163,254.717l-.081-.451c0-.017,0-.034.008-.051l.079.449c0,.017,0,.034-.006.053" transform="translate(64.609 -206.443)" fill="#ef233c"/><path d="M112.138,254.876l-.087-.454c0-.026.008-.053.012-.078l.081.451c0,.026,0,.054-.006.081" transform="translate(64.628 -206.521)" fill="#ef233c"/><path d="M112.356,257.186a5.16,5.16,0,0,1-.238-.6,4.431,4.431,0,0,1-.2-1.029,4.506,4.506,0,0,1,.045-1.016l.087.454a5.505,5.505,0,0,0-.014.556,4.246,4.246,0,0,0,.078.688q.019.157.051.308c.022.1.047.2.076.29a2.287,2.287,0,0,0,.112.351" transform="translate(64.714 -206.638)" fill="#ef233c"/><path d="M112.942,260.806c-.028-.053-.053-.107-.079-.162a2.285,2.285,0,0,1-.112-.351,3.723,3.723,0,0,0,.19.5.076.076,0,0,1,0,.016" transform="translate(64.208 -210.096)" fill="#ef233c"/><path d="M110.341,244.434l-.184-1.013c-.033-.326-.081-.648-.134-.971h0a10.132,10.132,0,0,1,.295,1.677c.008.1.016.2.022.307" transform="translate(65.847 -199.373)" fill="#ef233c"/><path d="M110.014,242.4a.255.255,0,0,1-.006-.03.162.162,0,0,1,.008.03h0" transform="translate(65.856 -199.328)" fill="#ef233c"/><path d="M111.335,259.625c-.025-.025-.05-.05-.077-.075a4.641,4.641,0,0,1-.321-.452c.125.182.257.357.4.527" transform="translate(65.297 -209.378)" fill="#ef233c"/><path d="M112.249,260.778c-.132-.13-.262-.264-.385-.4-.042-.047-.081-.1-.122-.145.027.025.051.05.077.075a6.117,6.117,0,0,0,.43.472" transform="translate(64.814 -210.058)" fill="#ef233c"/><g transform="translate(176.659 50.08)" clip-path="url(#g)"><path d="M112.6,261.158a6.281,6.281,0,0,1-.555-.564c.123.138.253.273.385.4.048.048.1.093.145.14.008.008.017.014.025.022" transform="translate(-112.028 -260.357)" fill="#ef233c"/></g><path d="M110.554,246.217l-.145-.758c-.011-.182-.028-.365-.047-.546a.207.207,0,0,1,0-.031l.184,1.013c0,.016,0,.033,0,.05,0,.09.008.181.008.271" transform="translate(65.645 -200.835)" fill="#ef233c"/><path d="M110.339,251.533c-.143-.217-.279-.439-.4-.669-.073-.137-.142-.276-.208-.416a3.259,3.259,0,0,1-.083-.457,1.494,1.494,0,0,0,.1.193l.009-1.6q.026-.12.056-.234c.042-.172.093-.337.121-.5a5.736,5.736,0,0,0,.07-1.026c0-.162-.008-.326-.019-.49l.145.758a4.7,4.7,0,0,1-.058.783c-.028.176-.079.346-.117.513s-.076.336-.106.5a3.925,3.925,0,0,0-.066,1.02,3.377,3.377,0,0,0,.235.991,3.91,3.91,0,0,0,.306.6l.017.031" transform="translate(66.072 -201.704)" fill="#ef233c"/><path d="M110.879,258.342c-.061-.058-.127-.12-.195-.187-.14-.17-.273-.344-.4-.527a3.9,3.9,0,0,1-.257-.482,3.069,3.069,0,0,1-.175-.494c.066.14.134.279.208.416.122.229.257.452.4.669.051.091.106.181.164.268q.119.173.253.337" transform="translate(65.948 -207.908)" fill="#ef233c"/><path d="M112.5,261.015c-.044-.04-.087-.083-.131-.125a6.1,6.1,0,0,1-.43-.472c.068.067.134.129.195.187.084.1.173.2.265.3a1.354,1.354,0,0,0,.1.107" transform="translate(64.698 -210.171)" fill="#ef233c"/><path d="M113.157,261.742c-.048-.047-.1-.092-.145-.14.044.042.087.084.131.125l.014.016" transform="translate(64.051 -210.883)" fill="#ef233c"/><path d="M111.387,259.374l-.034-.05-.017-.031.051.081" transform="translate(65.058 -209.495)" fill="#ef233c"/><path d="M112.811,261.3l-.014-.019.012.016s0,0,0,0" transform="translate(64.18 -210.687)" fill="#ef233c"/><g transform="translate(176.659 50.479)" clip-path="url(#e)"><path d="M113.09,261.609c-.089-.094-.176-.192-.26-.29,0,0,0,0,0,0,.084.1.172.2.259.29,0,0,0,0,0,0" transform="translate(-112.498 -261.19)" fill="#ef233c"/></g><path d="M111.87,260.043l-.075-.067q-.133-.164-.253-.337c-.057-.087-.112-.178-.164-.268l.034.05c.045.073.093.143.143.214.1.142.2.278.313.409" transform="translate(65.032 -209.542)" fill="#ef233c"/><path d="M112.687,261.189c-.092-.1-.181-.2-.265-.3l.075.067c.024.03.05.059.075.089l.014.019c.033.044.065.087.1.128" transform="translate(64.405 -210.453)" fill="#ef233c"/><g transform="translate(176.659 50.479)" clip-path="url(#e)"><path d="M113.092,261.614c-.054-.053-.107-.108-.159-.162-.036-.041-.069-.084-.1-.128.084.1.172.2.26.29" transform="translate(-112.5 -261.195)" fill="#ef233c"/></g><path d="M112.73,256.66l-.019-.131c0-.028.006-.056.011-.084l.02.15c0,.022-.009.044-.012.065" transform="translate(64.232 -207.784)" fill="#ef233c"/><path d="M112.942,258.191l-.059-.4c0-.02.006-.041.009-.061l.05.371v.094" transform="translate(64.128 -208.554)" fill="#ef233c"/><path d="M113.106,259.278l-.075-.528v-.094l.078.581c0,.013,0,.027,0,.041" transform="translate(64.039 -209.112)" fill="#ef233c"/><path d="M113.25,260.367l-.031-.214c0-.014,0-.028,0-.041l.017.136c0,.041.008.079.011.119" transform="translate(63.926 -209.988)" fill="#ef233c"/><path d="M112.808,257.243l-.05-.357c0-.022.008-.044.012-.065l.047.362c0,.02-.006.04-.009.061" transform="translate(64.203 -208.009)" fill="#ef233c"/><path d="M112.7,256.867l-.017-.112c0-.033.008-.065.012-.1l.019.131c0,.027-.01.053-.014.08" transform="translate(64.25 -207.91)" fill="#ef233c"/><path d="M112.668,257.1l-.016-.087c0-.033.006-.064.01-.1a.031.031,0,0,1,0-.011l.017.113c0,.026-.01.054-.013.081" transform="translate(64.267 -208.058)" fill="#ef233c"/><path d="M112.929,258.4l-.07-.449.01-.073.059.4c0,.039,0,.079,0,.119" transform="translate(64.143 -208.645)" fill="#ef233c"/><path d="M113.1,259.464l-.072-.455c0-.039,0-.08,0-.119l.075.528c0,.014,0,.03,0,.045" transform="translate(64.039 -209.253)" fill="#ef233c"/><path d="M113.265,260.577l-.05-.316c0-.016,0-.031,0-.045l.031.214c0,.05.011.1.017.148" transform="translate(63.929 -210.049)" fill="#ef233c"/><path d="M112.924,258.641l-.084-.5c0-.025,0-.051.008-.076l.07.449c0,.043,0,.085.006.129" transform="translate(64.154 -208.756)" fill="#ef233c"/><path d="M113.105,259.688l-.064-.371c0-.044,0-.086-.006-.129l.072.455c0,.016,0,.03,0,.045" transform="translate(64.037 -209.432)" fill="#ef233c"/><path d="M113.284,260.808l-.073-.435c0-.016,0-.03,0-.045l.05.316c.006.055.014.109.022.164" transform="translate(63.931 -210.117)" fill="#ef233c"/><path d="M112.777,257.415l-.054-.351c0-.027.009-.053.014-.08l.05.357-.01.073" transform="translate(64.224 -208.107)" fill="#ef233c"/><path d="M112.75,257.611l-.059-.346c0-.027.008-.055.013-.081l.054.351c0,.025-.006.051-.008.076" transform="translate(64.244 -208.228)" fill="#ef233c"/><path d="M112.655,257.292l-.014-.076c0-.017,0-.033,0-.048l.016.087c0,.012,0,.025-.006.037" transform="translate(64.274 -208.218)" fill="#ef233c"/><path d="M112.922,258.817l-.094-.528,0-.034.084.5,0,.061" transform="translate(64.161 -208.871)" fill="#ef233c"/><path d="M113.113,259.9l-.057-.329,0-.061.064.371a.073.073,0,0,1,0,.019" transform="translate(64.027 -209.627)" fill="#ef233c"/><path d="M113.294,260.951l-.087-.491a.073.073,0,0,0,0-.019l.073.435c0,.025.008.05.012.075" transform="translate(63.933 -210.185)" fill="#ef233c"/><path d="M112.737,257.767l-.061-.343c0-.012,0-.025.006-.037l.059.346,0,.034" transform="translate(64.253 -208.35)" fill="#ef233c"/><path d="M112.648,257.4l-.011-.067c0-.014,0-.028,0-.041l.014.076,0,.031" transform="translate(64.276 -208.291)" fill="#ef233c"/><path d="M112.634,257.506l-.009-.048c0-.024,0-.045,0-.067l.011.067c0,.016,0,.033-.006.048" transform="translate(64.283 -208.352)" fill="#ef233c"/><path d="M112.617,257.727c0-.056,0-.112,0-.168l.009.048c0,.039-.008.079-.012.12" transform="translate(64.288 -208.453)" fill="#ef233c"/><path d="M112.924,258.92l-.1-.55c0-.009,0-.02,0-.03l.094.528c0,.017,0,.034,0,.051" transform="translate(64.164 -208.922)" fill="#ef233c"/><path d="M113.12,260.01l-.053-.294c0-.017,0-.034,0-.051l.057.329v.017" transform="translate(64.02 -209.718)" fill="#ef233c"/><path d="M113.305,261.045l-.1-.54v-.017l.087.491c0,.022.008.044.011.065" transform="translate(63.933 -210.213)" fill="#ef233c"/><path d="M112.925,259.049l-.112-.588c0-.016,0-.031,0-.047l.1.55c0,.028,0,.056.008.084" transform="translate(64.17 -208.967)" fill="#ef233c"/><path d="M112.962,259.664a4.16,4.16,0,0,1-.139-.471,2.518,2.518,0,0,1-.028-.285,2.976,2.976,0,0,1,0-.378l.112.588c.011.1.026.209.044.312v.024c0,.079,0,.15.006.21" transform="translate(64.183 -209.037)" fill="#ef233c"/><path d="M113.127,260.111l-.045-.234c0-.028-.006-.056-.008-.084l.053.295v.024" transform="translate(64.013 -209.795)" fill="#ef233c"/><path d="M113.138,260.316c-.017-.1-.033-.207-.044-.312l.045.234c0,.026,0,.053,0,.078" transform="translate(64.001 -209.922)" fill="#ef233c"/><path d="M112.714,257.947l-.066-.34c0-.016,0-.033.006-.048l.064.341c0,.016,0,.031,0,.047" transform="translate(64.269 -208.453)" fill="#ef233c"/><path d="M112.718,258.682a4.008,4.008,0,0,1-.1-.882c0-.04.008-.081.012-.12l.066.34a2.972,2.972,0,0,0,0,.378,2.51,2.51,0,0,0,.028.285" transform="translate(64.288 -208.526)" fill="#ef233c"/><path d="M112.728,257.853l-.064-.341,0-.032.061.343c0,.009,0,.02,0,.03" transform="translate(64.26 -208.405)" fill="#ef233c"/><path d="M111.547,247.5l-.056-.419c0-.025.01-.048.012-.072l.055.432c0,.02-.008.039-.011.059m-.625-5.105c-.02-.024-.042-.047-.064-.069l0-.02.055-.008.012.1" transform="translate(65.347 -199.284)" fill="#ef233c"/><path d="M110.839,242.205l-.011-.076a0,0,0,0,1,0,0,0,0,0,0,0,0,0c.024.022.044.042.065.064v0l-.055.008" transform="translate(65.363 -199.18)" fill="#ef233c"/><path d="M111.64,247.441l-.055-.432c.011-.054.02-.107.033-.16l.05.463c-.01.044-.019.087-.028.13m-.5-4.87a1.939,1.939,0,0,0-.14-.176l-.012-.1,0,0c.047.047.092.095.136.143l.014.131" transform="translate(65.265 -199.281)" fill="#ef233c"/><path d="M110.992,242.294v0l0,0,0,0" transform="translate(65.265 -199.277)" fill="#ef233c"/><path d="M111.878,247.527l-.05-.463c.047-.229.1-.457.154-.688a5.716,5.716,0,0,0,.151-1.038A3.771,3.771,0,0,0,112,244.3a5.408,5.408,0,0,0-.34-.988,3.5,3.5,0,0,0-.257-.457l-.045-.064-.014-.131a4.012,4.012,0,0,1,.447.614,3.736,3.736,0,0,1,.411.954,4.058,4.058,0,0,1,.136,1.026,4.313,4.313,0,0,1-.129,1.026c-.077.34-.182.675-.27,1.018-.02.078-.039.156-.057.234" transform="translate(65.055 -199.497)" fill="#ef233c"/><path d="M111.442,246.713l-.077-.564c.006-.028.013-.057.019-.086l.073.574c-.006.025-.011.05-.016.076m-.461-3.85c-.022-.045-.047-.089-.07-.134l-.039-.295c.022.026.045.054.065.084l.044.344" transform="translate(65.337 -199.364)" fill="#ef233c"/><path d="M111.4,246.366l-.119-.882a4.584,4.584,0,0,0-.044-.484c-.023-.158-.051-.315-.083-.471l-.138-1.037c.026.061.051.122.076.184l.327,2.6c-.006.031-.014.062-.02.093" transform="translate(65.252 -200)" fill="#ef233c"/><path d="M112.027,250.972l-.054-.418c.006-.031.014-.062.02-.093l.053.425c-.006.028-.012.058-.019.086" transform="translate(64.675 -204.187)" fill="#ef233c"/><path d="M111.062,243.484c-.025-.062-.05-.123-.076-.184l-.017-.128c.023.045.048.089.07.134l.023.178" transform="translate(65.278 -199.807)" fill="#ef233c"/><path d="M111.556,246.763l-.073-.574c.014-.064.03-.128.044-.193l.065.6c-.013.056-.024.114-.036.172m-.327-3.456c-.045-.108-.1-.213-.15-.318l-.044-.344a2.151,2.151,0,0,1,.145.218l.049.445" transform="translate(65.239 -199.491)" fill="#ef233c"/><path d="M111.81,246.92l-.065-.6.009-.041a3.248,3.248,0,0,0,.084-.522,3.869,3.869,0,0,0-.058-1.048,5.284,5.284,0,0,0-.333-1.079l-.049-.445a3.781,3.781,0,0,1,.225.468,5.43,5.43,0,0,1,.293.985,4.164,4.164,0,0,1,.113,1.012,5.6,5.6,0,0,1-.162,1.01c-.019.084-.037.168-.056.254" transform="translate(65.021 -199.819)" fill="#ef233c"/><path d="M111.53,246.55l-.327-2.6c.031.081.061.162.089.245s.051.147.075.221l.206,1.868c-.011.089-.025.176-.042.263" transform="translate(65.138 -200.277)" fill="#ef233c"/><path d="M111.819,246.989l-.206-1.868a5.273,5.273,0,0,1,.18.773,4.184,4.184,0,0,1,.034,1.016c0,.025,0,.051-.008.078" transform="translate(64.891 -200.978)" fill="#ef233c"/><path d="M111.818,246.994l-.055-.5c0-.027.006-.053.008-.078a4.185,4.185,0,0,0-.034-1.016,5.273,5.273,0,0,0-.18-.773l-.037-.326a5.286,5.286,0,0,1,.333,1.079,3.869,3.869,0,0,1,.058,1.048,3.249,3.249,0,0,1-.084.522l-.009.041" transform="translate(64.947 -200.488)" fill="#ef233c"/><path d="M112.076,250.49l-.053-.425c.017-.087.032-.175.042-.263l.055.5c-.014.065-.03.129-.044.193" transform="translate(64.645 -203.791)" fill="#ef233c"/><path d="M111.332,244.152c-.023-.075-.048-.148-.075-.221s-.058-.164-.089-.245l-.023-.178c.053.1.1.21.15.318l.037.326" transform="translate(65.173 -200.009)" fill="#ef233c"/><path d="M111.486,247.045l-.126-.955c.032.156.059.313.083.471a4.575,4.575,0,0,1,.044.484" transform="translate(65.044 -201.561)" fill="#ef233c"/><path d="M112.36,253.492l-.059-.451c0-.026.009-.051.016-.076l.056.455c0,.024-.008.047-.012.072" transform="translate(64.478 -205.692)" fill="#ef233c"/><path d="M110.932,242.48c-.02-.03-.044-.058-.065-.084l0-.025c.022.022.044.045.064.069l0,.041" transform="translate(65.342 -199.326)" fill="#ef233c"/><path d="M111.6,247.157l-.056-.455c.012-.058.023-.115.036-.172l.053.466c-.013.053-.022.106-.033.16m-.432-4.355a2.15,2.15,0,0,0-.145-.218l0-.041a1.935,1.935,0,0,1,.14.176l.009.083" transform="translate(65.246 -199.429)" fill="#ef233c"/><path d="M111.849,247.262l-.053-.466c.019-.086.037-.17.056-.254a5.6,5.6,0,0,0,.162-1.01,4.163,4.163,0,0,0-.113-1.012,5.429,5.429,0,0,0-.293-.985,3.78,3.78,0,0,0-.225-.468l-.009-.083.045.064a3.491,3.491,0,0,1,.257.457,5.4,5.4,0,0,1,.34.988,3.771,3.771,0,0,1,.137,1.043,5.716,5.716,0,0,1-.151,1.038c-.053.231-.107.459-.154.688" transform="translate(65.034 -199.694)" fill="#ef233c"/><path d="M112.515,256.666l-.081-.441a.35.35,0,0,1,.006-.04l.077.441c0,.012,0,.026,0,.041" transform="translate(64.398 -207.627)" fill="#ef233c"/><path d="M112.5,256.793l-.084-.443c0-.022.006-.044.008-.065l.081.441c0,.022,0,.044,0,.067" transform="translate(64.41 -207.687)" fill="#ef233c"/><path d="M112.47,257.749c-.033-.12-.061-.241-.084-.365a3.924,3.924,0,0,1-.02-.753c0-.061.008-.121.014-.182l.084.443c0,.056,0,.112,0,.168a3.126,3.126,0,0,0,0,.6c0,.03.006.059.011.087" transform="translate(64.445 -207.786)" fill="#ef233c"/><path d="M113.01,260.685c-.017-.045-.034-.089-.051-.132a2.657,2.657,0,0,1-.087-.362,4.157,4.157,0,0,0,.139.471v.024" transform="translate(64.135 -210.035)" fill="#ef233c"/><path d="M112.783,259.224c-.069-.182-.129-.368-.179-.555,0-.028-.008-.057-.011-.087a3.127,3.127,0,0,1,0-.6,4.008,4.008,0,0,0,.1.882,2.656,2.656,0,0,0,.087.362" transform="translate(64.311 -208.706)" fill="#ef233c"/><path d="M112.558,259.392c-.03-.1-.055-.192-.076-.29s-.039-.2-.051-.309c.023.123.051.245.084.365a2.241,2.241,0,0,0,.044.234" transform="translate(64.4 -209.195)" fill="#ef233c"/><path d="M113.143,261.246c-.019-.05-.038-.1-.053-.148.017.044.034.087.051.133a.05.05,0,0,1,0,.016" transform="translate(64.004 -210.58)" fill="#ef233c"/><path d="M112.875,260.438a3.724,3.724,0,0,1-.19-.5,2.242,2.242,0,0,1-.044-.234c.05.187.111.373.179.555.016.05.034.1.053.148,0,.009,0,.019,0,.028" transform="translate(64.274 -209.744)" fill="#ef233c"/><path d="M112.615,255.774l-.064-.444c0-.028.009-.056.016-.083s.008-.039.011-.059l.056.444c0,.019-.006.039-.008.057s-.008.056-.011.084" transform="translate(64.328 -207.028)" fill="#ef233c"/><path d="M110.893,242.193c-.022-.022-.042-.042-.065-.064a0,0,0,0,1,0,0c.022.017.042.034.062.051l0,.011" transform="translate(65.363 -199.18)" fill="#ef233c"/><path d="M111.7,247.883l-.056-.444c.01-.042.019-.086.028-.13l.05.443c-.008.044-.016.087-.022.131m-.566-5.445c-.044-.048-.089-.1-.136-.143l.011,0c.041.036.081.072.12.109l0,.036" transform="translate(65.26 -199.279)" fill="#ef233c"/><path d="M110.993,242.276l0,0,0-.011.016.012-.011,0" transform="translate(65.267 -199.26)" fill="#ef233c"/><path d="M111.921,247.916l-.05-.443c.018-.078.037-.156.057-.234.087-.343.193-.678.27-1.018a4.313,4.313,0,0,0,.129-1.026,4.058,4.058,0,0,0-.136-1.026,3.737,3.737,0,0,0-.411-.954,4.011,4.011,0,0,0-.447-.614l0-.036a3.7,3.7,0,0,1,.977,1.572,4.051,4.051,0,0,1,.042,2.119c-.081.348-.194.681-.284,1.019-.058.212-.106.426-.143.641" transform="translate(65.063 -199.443)" fill="#ef233c"/><path d="M112.574,256.085l-.07-.443c.006-.033.012-.067.019-.1l.064.444c0,.033-.009.065-.012.1" transform="translate(64.356 -207.241)" fill="#ef233c"/><path d="M112.54,256.342l-.075-.441c0-.036.011-.072.016-.108l.07.443a.031.031,0,0,0,0,.011c0,.031-.006.062-.01.095" transform="translate(64.379 -207.392)" fill="#ef233c"/><path d="M112.526,256.552l-.077-.441a.443.443,0,0,1,.006-.048l.075.441c0,.016,0,.031,0,.048" transform="translate(64.389 -207.554)" fill="#ef233c"/><path d="M109.938,242.533l-.008-.043c0-.011,0-.022.006-.031l0,0,0,.076" transform="translate(65.903 -199.378)" fill="#ef233c"/><path d="M109.945,242.414a.216.216,0,0,1,.006-.031l0,.03,0,0" transform="translate(65.894 -199.333)" fill="#ef233c"/><path d="M109.879,242.881l-.031-.166c.011-.059.022-.118.033-.176l.008.043-.009.3" transform="translate(65.952 -199.427)" fill="#ef233c"/><path d="M109.164,248.114c-.05-.123-.1-.245-.14-.37-.011-.051-.02-.1-.026-.154a4.608,4.608,0,0,1-.047-.69l-.008-.7c0-.235-.009-.463.006-.7.025-.462.087-.923.154-1.384.034-.229.073-.46.115-.689.025-.151.053-.3.083-.451l.031.166-.047,1.378c-.019.315-.042.63-.08.943-.054.447-.131.9-.142,1.364a4.084,4.084,0,0,0,.031.69,2.341,2.341,0,0,0,.078.324l-.009.268" transform="translate(66.499 -199.692)" fill="#ef233c"/><path d="M109.286,255.443c-.047-.174-.1-.349-.134-.525.044.125.091.246.14.37l-.006.156" transform="translate(66.37 -206.866)" fill="#ef233c"/><path d="M109.925,242.492l0-.019,0-.012h0c0,.009,0,.02-.006.031" transform="translate(65.908 -199.38)" fill="#ef233c"/><path d="M109.934,242.414a.261.261,0,0,1,.011-.031.214.214,0,0,0-.006.031h0" transform="translate(65.9 -199.333)" fill="#ef233c"/><path d="M109.829,242.687l-.013-.062c.014-.044.028-.089.042-.132l0,.019c-.011.058-.022.117-.033.176" transform="translate(65.971 -199.399)" fill="#ef233c"/><path d="M108.8,247.65c-.065-.186-.121-.373-.168-.563-.009-.094-.017-.186-.023-.279-.019-.234-.024-.466-.036-.7s-.014-.472,0-.706a9.716,9.716,0,0,1,.192-1.4c.083-.4.181-.793.3-1.182l.013.062c-.03.15-.058.3-.083.451-.042.229-.081.46-.115.689-.067.461-.13.923-.154,1.384-.016.232-.011.46-.006.7l.008.7a4.609,4.609,0,0,0,.047.69c.006.051.016.1.026.154" transform="translate(66.726 -199.598)" fill="#ef233c"/><path d="M109.032,254.6a4.508,4.508,0,0,1-.235-.664,3.345,3.345,0,0,1-.067-.424q.071.285.168.563c.036.176.087.351.134.525" transform="translate(66.624 -206.019)" fill="#ef233c"/><path d="M109.57,251.883a1.523,1.523,0,0,1-.023-.167l.038-1.122c.033-.267.073-.532.112-.8l0,.87c-.022.092-.04.186-.057.279a4.153,4.153,0,0,0-.064.941" transform="translate(66.133 -203.786)" fill="#ef233c"/><path d="M109.71,253.577a2.09,2.09,0,0,1-.113-.383,4.152,4.152,0,0,1,.064-.941c.017-.093.036-.187.057-.279l-.009,1.6" transform="translate(66.106 -205.096)" fill="#ef233c"/><path d="M109.518,252.923c0-.037-.008-.073-.01-.111a4.058,4.058,0,0,1,.011-.675c.009-.113.022-.225.036-.337l-.038,1.122" transform="translate(66.161 -204.993)" fill="#ef233c"/><path d="M109.575,254.97c-.018-.044-.034-.089-.048-.134l.008-.223a1.526,1.526,0,0,0,.023.167c0,.039,0,.077.01.115s0,.05.008.075" transform="translate(66.145 -206.683)" fill="#ef233c"/><path d="M109.718,255.415a1.493,1.493,0,0,1-.1-.193c0-.025-.006-.05-.008-.075s-.006-.076-.01-.115a2.089,2.089,0,0,0,.113.384" transform="translate(66.098 -206.934)" fill="#ef233c"/><path d="M109.359,250.17a2.338,2.338,0,0,1-.078-.324,4.081,4.081,0,0,1-.031-.69c.011-.46.087-.917.142-1.364.038-.313.061-.628.08-.943l-.067,1.977c-.014.112-.027.224-.036.337a4.058,4.058,0,0,0-.011.675c0,.037,0,.073.01.111l-.008.223" transform="translate(66.313 -202.016)" fill="#ef233c"/><path d="M109.987,242.73l-.034-.189c0-.028,0-.056,0-.084h0c.011.091.02.181.028.273" transform="translate(65.889 -199.378)" fill="#ef233c"/><path d="M109.957,242.413c0-.009,0-.019,0-.03a.187.187,0,0,0,0,.03h0" transform="translate(65.886 -199.333)" fill="#ef233c"/><path d="M110.016,243.38l-.075-.391,0-.321.034.189c.016.174.028.349.036.524" transform="translate(65.896 -199.504)" fill="#ef233c"/><path d="M109.641,246.8l.067-1.977c.008-.139.016-.278.022-.415.013-.228.019-.455.024-.683,0-.083.006-.165.008-.249l.075.391q.011.271.014.543a11.21,11.21,0,0,1-.069,1.373c-.009.072-.019.143-.028.215-.039.27-.079.535-.112.8" transform="translate(66.076 -199.988)" fill="#ef233c"/><path d="M107.98,235.653l-.085-.371,1.124-.173.031.379-1.069.165" transform="translate(67.126 -194.962)" fill="#ef233c"/><path d="M107.828,235.649l-.086-.371.061-.009.085.371-.061.009m1.13-.174-.031-.379.061-.009.031.379-.061.01" transform="translate(67.218 -194.948)" fill="#ef233c"/><path d="M107.664,234.275l-.086-.371,1.205-.186.031.38-1.15.176" transform="translate(67.316 -194.127)" fill="#ef233c"/><path d="M107.419,234.272l-.087-.369.1-.016.086.371-.1.014m1.247-.19-.031-.38.07-.011.032.381-.07.011" transform="translate(67.464 -194.11)" fill="#ef233c"/><g transform="translate(172.549 44.403)"><path/></g><g transform="translate(177.058 49.681)" clip-path="url(#j)"><path d="M113.336,260.741l-.09-.717c0-.047,0-.092-.008-.139a.041.041,0,0,0,0-.014l.1.87" transform="translate(-113.143 -259.523)" fill="#ef233c"/></g><g transform="translate(177.058 50.878)" clip-path="url(#k)"><path d="M113.477,262.046l0,0s0,0,0,0" transform="translate(-113.284 -262.026)" fill="#ef233c"/></g><g transform="translate(177.058 50.878)" clip-path="url(#k)"><path d="M113.456,262.025s0,0,0,0l-.014-.014.018.017" transform="translate(-113.263 -262.005)" fill="#ef233c"/></g><g transform="translate(177.058 50.08)" clip-path="url(#m)"><path d="M113.348,260.971l-.085-.638,0-.079.09.717" transform="translate(-113.155 -260.153)" fill="#ef233c"/></g><g transform="translate(177.058 50.479)" clip-path="url(#n)"><path d="M113.327,261.767c-.037-.059-.073-.12-.1-.182a0,0,0,0,1,0,0v-.01c.033.064.066.126.1.189" transform="translate(-113.134 -261.347)" fill="#ef233c"/></g><g transform="translate(177.058 50.479)" clip-path="url(#n)"><path d="M113.271,261.79s0,0,0,0a1.748,1.748,0,0,1-.139-.17c.047.058.093.115.142.173" transform="translate(-113.078 -261.371)" fill="#ef233c"/></g><g transform="translate(177.058 50.479)" clip-path="url(#n)"><path d="M113.33,261.743c-.036-.062-.068-.125-.1-.189a.076.076,0,0,0,0-.016c.033.07.067.137.1.2" transform="translate(-113.136 -261.324)" fill="#ef233c"/></g><g transform="translate(177.058 50.479)" clip-path="url(#n)"><path d="M113.419,261.992l-.018-.017c-.008-.008-.017-.014-.025-.022.016.012.03.027.044.039" transform="translate(-113.225 -261.573)" fill="#ef233c"/></g><g transform="translate(177.058 50.479)" clip-path="url(#n)"><path d="M113.245,261.807c-.02-.017-.039-.036-.057-.055a1.342,1.342,0,0,1-.1-.107c.051.054.1.109.159.162" transform="translate(-113.052 -261.388)" fill="#ef233c"/><path d="M113.4,261.969c-.014-.012-.028-.027-.043-.039l-.014-.016c.019.019.038.038.057.055" transform="translate(-113.204 -261.549)" fill="#ef233c"/></g><g transform="translate(177.058 50.878)" clip-path="url(#k)"><path d="M113.48,262.046s0,0,0,0,0,0,0,0" transform="translate(-113.287 -262.026)" fill="#ef233c"/></g><g transform="translate(177.058 50.08)" clip-path="url(#m)"><path d="M113.355,261.091l-.075-.519c0-.039-.008-.078-.011-.119l.085.638" transform="translate(-113.162 -260.272)" fill="#ef233c"/></g><g transform="translate(177.058 50.08)" clip-path="url(#m)"><path d="M113.372,261.269l-.057-.371c-.006-.048-.012-.1-.017-.148l.075.519" transform="translate(-113.178 -260.451)" fill="#ef233c"/></g><g transform="translate(177.058 50.479)" clip-path="url(#n)"><path d="M113.4,261.492l-.036-.207c-.008-.054-.016-.109-.022-.164l.057.371" transform="translate(-113.204 -261.073)" fill="#ef233c"/></g><g transform="translate(177.058 50.479)" clip-path="url(#n)"><path d="M113.431,261.739l-.023-.133c0-.025-.008-.05-.012-.075l.036.208" transform="translate(-113.237 -261.319)" fill="#ef233c"/></g><g transform="translate(177.058 50.479)" clip-path="url(#n)"><path d="M113.449,261.852l-.012-.067c0-.022-.008-.044-.011-.065l.023.132" transform="translate(-113.256 -261.432)" fill="#ef233c"/></g><g transform="translate(177.058 50.08)" clip-path="url(#m)"><path d="M113.315,261.29c-.039-.089-.075-.179-.106-.271,0-.061-.006-.131-.006-.21v-.024c.03.17.067.34.112.505" transform="translate(-113.122 -260.472)" fill="#ef233c"/></g><g transform="translate(177.058 50.479)" clip-path="url(#n)"><path d="M113.465,261.95c0-.022-.008-.044-.012-.067l.012.067" transform="translate(-113.272 -261.531)" fill="#ef233c"/></g><g transform="translate(177.058 50.08)" clip-path="url(#m)"><path d="M113.318,261.138l-.111-.583v-.024l.1.54c0,.023.008.045.012.067" transform="translate(-113.124 -260.319)" fill="#ef233c"/></g><g transform="translate(177.058 50.08)" clip-path="url(#m)"><path d="M113.315,261.173c-.045-.165-.083-.335-.112-.505,0-.025,0-.051,0-.078l.111.583" transform="translate(-113.122 -260.355)" fill="#ef233c"/></g><g transform="translate(177.058 50.479)" clip-path="url(#n)"><path d="M113.325,261.642c-.037-.081-.071-.165-.106-.248v-.024c.031.092.067.182.106.271" transform="translate(-113.132 -261.223)" fill="#ef233c"/></g><g transform="translate(177.058 50.479)" clip-path="url(#n)"><path d="M113.325,261.678c-.039-.077-.073-.154-.1-.232a.051.051,0,0,0,0-.016c.034.083.069.167.106.248" transform="translate(-113.132 -261.258)" fill="#ef233c"/></g><g transform="translate(177.058 50.479)" clip-path="url(#n)"><path d="M113.327,261.7c-.036-.067-.07-.134-.1-.2,0-.009,0-.019,0-.028.031.078.065.156.1.232" transform="translate(-113.134 -261.282)" fill="#ef233c"/></g><g transform="translate(182.328 29.825)"><g transform="translate(0 0)"><path d="M8.475-29.429l-1.5-3.03H6.9v10.506H4.3V-36.531H7.321l4.39,7.476,1.5,3.03h.062V-36.531h2.613v14.578h-3.03Zm0,0" transform="translate(-4.297 36.531)" fill="#f3f3ff"/></g></g><g transform="translate(199.309 29.825)"><g transform="translate(0 0)"><path d="M8.256-34.087v12.134H5.493V-34.087H1.359v-2.444H12.39v2.444Zm0,0" transform="translate(-1.359 36.531)" fill="#f3f3ff"/></g></g><g transform="translate(214.452 29.825)"><g transform="translate(0 0)"><path d="M11.394-21.953l-1.172-3.716H5.047L3.893-21.953h-2.8L5.982-36.531H9.412l4.845,14.578ZM7.678-34.025H7.572L5.714-28.033H9.555Zm0,0" transform="translate(-1.094 36.531)" fill="#f3f3ff"/></g></g><g transform="translate(232.902 29.825)"><g transform="translate(0 0)"><path d="M4.3-36.531h6.747a4.5,4.5,0,0,1,1.615.274,3.51,3.51,0,0,1,1.222.748,3.117,3.117,0,0,1,.767,1.179,4.34,4.34,0,0,1,.262,1.534,3.93,3.93,0,0,1-.224,1.415,2.712,2.712,0,0,1-.586.948,2.366,2.366,0,0,1-.836.561,2.963,2.963,0,0,1-.966.212v.125a3.2,3.2,0,0,1,1.029.187,2.986,2.986,0,0,1,1.023.6,3.241,3.241,0,0,1,.786,1.041,3.511,3.511,0,0,1,.318,1.578,4.632,4.632,0,0,1-.287,1.64,4.1,4.1,0,0,1-.786,1.328,3.639,3.639,0,0,1-1.191.885,3.456,3.456,0,0,1-1.5.324H4.3Zm2.756,12.24h3.841a1.744,1.744,0,0,0,1.235-.405,1.553,1.553,0,0,0,.436-1.185v-.711a1.577,1.577,0,0,0-.436-1.191,1.72,1.72,0,0,0-1.235-.418H7.053Zm0-6.16h3.4a1.612,1.612,0,0,0,1.172-.405A1.533,1.533,0,0,0,12.047-32v-.648a1.513,1.513,0,0,0-.418-1.135,1.6,1.6,0,0,0-1.172-.412h-3.4Zm0,0" transform="translate(-4.297 36.531)" fill="#f3f3ff"/></g></g><g transform="translate(249.886 29.825)"><g transform="translate(0 0)"><path d="M4.3-21.953V-36.531H7.053V-24.4H12.8v2.444Zm0,0" transform="translate(-4.297 36.531)" fill="#f3f3ff"/></g></g><g transform="translate(263.903 29.825)"><g transform="translate(0 0)"><path d="M4.3-21.953V-36.531h9.609v2.444H7.053v3.529h6.054v2.444H7.053V-24.4h6.853v2.444Zm0,0" transform="translate(-4.297 36.531)" fill="#f3f3ff"/></g></g></g></svg>