<?xml version="1.0" encoding="UTF-8" standalone="no"?>
<!DOCTYPE svg PUBLIC "-//W3C//DTD SVG 1.1//EN" "http://www.w3.org/Graphics/SVG/1.1/DTD/svg11.dtd">
<svg width="100%" height="100%" viewBox="0 0 810 810" version="1.1" xmlns="http://www.w3.org/2000/svg" xmlns:xlink="http://www.w3.org/1999/xlink" xml:space="preserve" xmlns:serif="http://www.serif.com/" style="fill-rule:evenodd;clip-rule:evenodd;stroke-linejoin:round;stroke-miterlimit:2;">
    <g id="surface1">
        <path d="M132.77,682.344L677.387,682.344L646.363,145.75L163.781,145.75L132.77,682.344" style="fill:rgb(218,33,56);fill-rule:nonzero;"/>
        <path d="M197.406,201.734L163.781,145.75L136.43,201.734L197.406,201.734Z" style="fill:rgb(133,22,27);fill-rule:nonzero;"/>
        <path d="M612.738,201.734L646.363,145.75L673.723,201.734L612.738,201.734Z" style="fill:rgb(133,22,27);fill-rule:nonzero;"/>
        <path d="M300.086,178.23C299.145,188.039 297.953,192.855 297.961,202.969L264.461,202.969C275.953,10.785 405.953,19.031 405.953,19.031C532.09,22.602 535.922,202.969 535.922,202.969L499.391,202.969C501.219,195.082 500.352,178.855 500.352,178.855C500.352,178.855 497.516,45.766 404.445,43.133C404.445,43.133 308.793,37.051 300.086,178.23" style="fill:rgb(43,45,66);fill-rule:nonzero;"/>
        <g>
            <clipPath id="_clip1">
                <rect x="101.566" y="201" width="606.75" height="599"/>
            </clipPath>
            <g clip-path="url(#_clip1)">
                <path d="M101.539,799.707L708.336,799.707L673.766,201.867L136.113,201.867L101.539,799.707" style="fill:rgb(239,35,59);fill-rule:nonzero;"/>
            </g>
        </g>
        <path d="M495.066,259.738C495.066,276.91 508.969,290.82 526.133,290.82C543.285,290.82 557.207,276.91 557.207,259.738C557.207,242.574 543.285,228.664 526.133,228.664C508.969,228.664 495.066,242.574 495.066,259.738" style="fill:rgb(254,254,254);fill-rule:nonzero;"/>
        <path d="M243.176,259.738C243.176,276.91 257.078,290.82 274.242,290.82C291.395,290.82 305.316,276.91 305.316,259.738C305.316,242.574 291.395,228.664 274.242,228.664C257.078,228.664 243.176,242.574 243.176,259.738" style="fill:rgb(254,254,254);fill-rule:nonzero;"/>
    </g>
</svg>
