<?xml version="1.0" encoding="UTF-8"?>
<svg xmlns="http://www.w3.org/2000/svg" xmlns:xlink="http://www.w3.org/1999/xlink" width="810pt" height="809.999993pt" viewBox="0 0 810 809.999993" version="1.2">
<defs>
<clipPath id="clip1">
  <path d="M 9.113281 718 L 85 718 L 85 806 L 9.113281 806 Z M 9.113281 718 "/>
</clipPath>
</defs>
<g id="surface1">
<path style=" stroke:none;fill-rule:nonzero;fill:rgb(7.449341%,7.058716%,14.509583%);fill-opacity:1;" d="M 267.367188 689.941406 C 267.367188 689.941406 132.476562 615.800781 235.785156 533.617188 C 235.785156 533.617188 269.339844 506.753906 354.671875 451.5 C 354.671875 451.5 392.382812 414.675781 422.898438 451.496094 C 422.898438 451.496094 453.9375 486.746094 413.71875 531.949219 C 413.71875 531.949219 337.460938 623.207031 267.367188 689.941406 "/>
<path style=" stroke:none;fill-rule:nonzero;fill:rgb(9.408569%,10.5896%,23.919678%);fill-opacity:1;" d="M 218.828125 191.484375 C 185.515625 203.761719 144.21875 178.585938 128.007812 148.324219 C 111.359375 117.246094 117.464844 75.546875 150.742188 56.105469 C 184.464844 36.410156 235.167969 50.988281 251.875 86.414062 C 267.425781 119.390625 256.5625 177.5625 218.828125 191.484375 "/>
<path style=" stroke:none;fill-rule:nonzero;fill:rgb(2.749634%,12.939453%,24.308777%);fill-opacity:1;" d="M 344.335938 299.019531 C 344.335938 302.722656 347.34375 305.730469 351.054688 305.730469 L 381.875 305.730469 C 385.589844 305.730469 388.589844 302.722656 388.589844 299.019531 L 388.589844 221.808594 C 388.589844 218.101562 385.589844 215.09375 381.875 215.09375 L 351.054688 215.09375 C 347.34375 215.09375 344.335938 218.101562 344.335938 221.808594 L 344.335938 299.019531 "/>
<path style=" stroke:none;fill-rule:nonzero;fill:rgb(1.179504%,6.269836%,12.548828%);fill-opacity:1;" d="M 388.589844 284.9375 L 416.347656 284.9375 L 416.347656 232.824219 L 388.589844 232.824219 L 388.589844 284.9375 "/>
<path style=" stroke:none;fill-rule:nonzero;fill:rgb(1.179504%,6.269836%,12.548828%);fill-opacity:1;" d="M 416.347656 275.941406 L 444.109375 275.941406 L 444.109375 241.824219 L 416.347656 241.824219 L 416.347656 275.941406 "/>
<path style=" stroke:none;fill-rule:nonzero;fill:rgb(70.199585%,38.819885%,28.239441%);fill-opacity:1;" d="M 51.871094 756.320312 C 49.882812 760.347656 48.476562 769.601562 47.601562 777.234375 L 26.4375 777.234375 C 20.800781 750.460938 26.988281 718.976562 26.988281 718.976562 L 66.972656 718.558594 L 72.042969 739.832031 C 67.652344 742.386719 54.886719 750.191406 51.871094 756.320312 "/>
<path style=" stroke:none;fill-rule:nonzero;fill:rgb(13.729858%,15.689087%,19.219971%);fill-opacity:1;" d="M 84.152344 797.105469 C 84.152344 784.574219 75.402344 783.378906 75.402344 783.378906 L 58.511719 777.28125 L 51.871094 756.320312 C 53.003906 753.996094 55.554688 751.4375 58.511719 749.019531 C 58.230469 747.371094 57.996094 745.714844 57.464844 744.113281 C 56.824219 742.25 52.238281 742.054688 50.367188 741.410156 C 48.175781 740.652344 46.476562 737.132812 46.023438 735.109375 C 44.851562 729.652344 45.738281 723.984375 47.742188 718.757812 L 16.035156 718.558594 C 16.035156 718.558594 21.65625 773.695312 33.574219 797.105469 L 84.152344 797.105469 "/>
<path style=" stroke:none;fill-rule:nonzero;fill:rgb(100%,100%,100%);fill-opacity:1;" d="M 43.933594 751.175781 C 43.757812 750.546875 44.101562 749.890625 44.71875 749.667969 C 54.582031 746.257812 59.078125 751.285156 59.261719 751.5 C 59.714844 752.019531 59.652344 752.804688 59.132812 753.253906 C 58.613281 753.703125 57.835938 753.652344 57.386719 753.136719 C 57.210938 752.945312 53.683594 749.191406 45.539062 752.023438 C 44.886719 752.257812 44.183594 751.914062 43.953125 751.265625 L 43.933594 751.175781 "/>
<path style=" stroke:none;fill-rule:nonzero;fill:rgb(100%,100%,100%);fill-opacity:1;" d="M 46.75 758.820312 C 46.59375 758.253906 46.882812 757.625 47.449219 757.382812 C 55.585938 753.835938 60.25 757.582031 60.441406 757.75 C 60.96875 758.183594 61.039062 758.953125 60.605469 759.476562 C 60.171875 760 59.402344 760.066406 58.886719 759.648438 C 58.722656 759.515625 55.097656 756.730469 48.429688 759.632812 C 47.808594 759.902344 47.085938 759.613281 46.8125 759 L 46.75 758.820312 "/>
<path style=" stroke:none;fill-rule:nonzero;fill:rgb(100%,100%,100%);fill-opacity:1;" d="M 47.6875 765.203125 C 47.519531 764.601562 47.8125 763.945312 48.417969 763.6875 C 56.910156 759.988281 61.660156 763.25 61.863281 763.398438 C 62.449219 763.804688 62.578125 764.617188 62.160156 765.195312 C 61.753906 765.769531 60.957031 765.902344 60.371094 765.507812 C 60.199219 765.390625 56.484375 762.980469 49.441406 766.046875 C 48.789062 766.34375 48.027344 766.039062 47.746094 765.382812 L 47.6875 765.203125 "/>
<path style=" stroke:none;fill-rule:nonzero;fill:rgb(100%,100%,100%);fill-opacity:1;" d="M 50.355469 770.988281 C 50.191406 770.394531 50.480469 769.75 51.0625 769.503906 C 59.527344 765.820312 63.414062 770.125 63.578125 770.308594 C 64.039062 770.832031 63.992188 771.632812 63.460938 772.085938 C 62.941406 772.542969 62.152344 772.488281 61.691406 771.984375 C 61.542969 771.824219 58.71875 768.925781 52.066406 771.8125 C 51.433594 772.085938 50.695312 771.800781 50.417969 771.15625 L 50.355469 770.988281 "/>
<path style=" stroke:none;fill-rule:nonzero;fill:rgb(100%,100%,100%);fill-opacity:1;" d="M 53.613281 778.035156 C 53.46875 777.496094 53.738281 776.917969 54.261719 776.683594 C 62.007812 773.300781 65.558594 777.25 65.710938 777.421875 C 66.125 777.910156 66.078125 778.625 65.601562 779.042969 C 65.121094 779.464844 64.402344 779.410156 63.980469 778.941406 C 63.863281 778.808594 61.273438 776.144531 55.183594 778.789062 C 54.601562 779.039062 53.921875 778.769531 53.675781 778.195312 L 53.613281 778.035156 "/>
<g clip-path="url(#clip1)" clip-rule="nonzero">
<path style=" stroke:none;fill-rule:nonzero;fill:rgb(98.429871%,78.42865%,71.369934%);fill-opacity:1;" d="M 9.355469 718.558594 C 9.355469 718.558594 11.585938 753.867188 27.171875 802.375 C 27.171875 802.375 46.296875 808.605469 84.152344 802.375 C 84.152344 802.375 84.601562 801.636719 84.152344 797.105469 L 33.574219 797.105469 C 33.574219 797.105469 15.589844 730.863281 16.035156 718.558594 L 10.695312 718.558594 "/>
</g>
<path style=" stroke:none;fill-rule:nonzero;fill:rgb(9.408569%,10.5896%,23.919678%);fill-opacity:1;" d="M 254.609375 110.84375 C 254.605469 130.066406 248.480469 148.679688 236.960938 164.199219 C 222.136719 184.167969 204.785156 164.726562 196.503906 148.863281 C 186.734375 130.152344 182.71875 109.816406 187.558594 89.277344 C 191.871094 70.953125 208.492188 52.84375 228.9375 60.042969 C 247.871094 66.703125 254.609375 92.949219 254.609375 110.84375 "/>
<path style=" stroke:none;fill-rule:nonzero;fill:rgb(70.199585%,38.819885%,28.239441%);fill-opacity:1;" d="M 323.796875 440.558594 C 301.332031 458.832031 292.597656 445.730469 292.597656 445.730469 L 227.285156 285.933594 C 210.550781 259.335938 219.003906 240.710938 219.003906 240.710938 C 257.375 200.308594 288.539062 264.4375 288.539062 264.4375 C 288.539062 264.4375 344.292969 409.949219 323.796875 440.558594 "/>
<path style=" stroke:none;fill-rule:nonzero;fill:rgb(16.079712%,15.289307%,30.979919%);fill-opacity:1;" d="M 239.832031 222.878906 C 239.832031 222.878906 286.582031 229.039062 301.953125 290.324219 L 329.210938 363.046875 C 329.210938 363.046875 320.398438 404.441406 271.570312 409.949219 L 224.335938 316.414062 C 224.335938 316.414062 193.894531 240.554688 239.832031 222.878906 "/>
<path style=" stroke:none;fill-rule:nonzero;fill:rgb(70.199585%,38.819885%,28.239441%);fill-opacity:1;" d="M 414.101562 725.789062 C 415.542969 732.101562 420.15625 750.609375 426.46875 756.617188 C 434.105469 763.902344 464.125 775.609375 464.125 775.609375 L 479.46875 782.652344 C 479.46875 782.652344 489.125 794.527344 455.632812 795.960938 C 417.4375 797.589844 371.5 772.605469 371.5 772.605469 L 386.265625 723.824219 L 414.101562 725.789062 "/>
<path style=" stroke:none;fill-rule:nonzero;fill:rgb(13.729858%,15.689087%,19.219971%);fill-opacity:1;" d="M 398.402344 755.613281 C 401.046875 755.859375 405.976562 755.128906 407.742188 752.746094 C 409.234375 750.71875 411.234375 745.222656 413.746094 745.160156 C 415.898438 745.109375 417.992188 745.472656 420.105469 745.753906 C 421.941406 750.269531 424.074219 754.339844 426.46875 756.617188 C 434.105469 763.902344 464.125 775.609375 464.125 775.609375 L 482.785156 783.039062 C 482.785156 783.039062 488.882812 793.902344 462.214844 798.390625 C 429.164062 803.945312 368.648438 777.058594 368.648438 777.058594 L 379.164062 747.28125 C 384.753906 751.726562 391.328125 754.96875 398.402344 755.613281 "/>
<path style=" stroke:none;fill-rule:nonzero;fill:rgb(13.729858%,15.689087%,19.219971%);fill-opacity:1;" d="M 398.402344 755.613281 C 401.046875 755.859375 405.976562 755.128906 407.742188 752.746094 C 409.234375 750.71875 411.234375 745.222656 413.746094 745.160156 C 415.898438 745.109375 417.992188 745.472656 420.105469 745.753906 C 421.941406 750.269531 424.074219 754.339844 426.46875 756.617188 C 434.105469 763.902344 464.125 775.609375 464.125 775.609375 L 482.785156 783.039062 C 482.785156 783.039062 488.882812 793.902344 462.214844 798.390625 C 429.164062 803.945312 368.648438 777.058594 368.648438 777.058594 L 379.164062 747.28125 C 384.753906 751.726562 391.328125 754.96875 398.402344 755.613281 "/>
<path style=" stroke:none;fill-rule:nonzero;fill:rgb(98.429871%,78.42865%,71.369934%);fill-opacity:1;" d="M 368.648438 777.058594 C 368.648438 777.058594 429.164062 803.945312 462.214844 798.390625 C 488.882812 793.902344 482.785156 783.039062 482.785156 783.039062 C 482.785156 783.039062 493.621094 801.203125 462.339844 804.726562 C 462.339844 804.726562 422.625 810 366.84375 782.855469 C 366.84375 782.855469 367.265625 779.765625 368.648438 777.058594 "/>
<path style=" stroke:none;fill-rule:nonzero;fill:rgb(100%,100%,100%);fill-opacity:1;" d="M 414.582031 770.441406 C 413.851562 770.0625 413.515625 769.167969 413.855469 768.390625 C 419.230469 756.117188 427.886719 756.265625 428.25 756.285156 C 429.125 756.308594 429.828125 757.046875 429.796875 757.933594 C 429.769531 758.8125 429.027344 759.5 428.148438 759.476562 C 427.832031 759.472656 421.210938 759.53125 416.792969 769.675781 C 416.441406 770.484375 415.496094 770.851562 414.679688 770.5 L 414.582031 770.441406 "/>
<path style=" stroke:none;fill-rule:nonzero;fill:rgb(100%,100%,100%);fill-opacity:1;" d="M 424.246094 774.460938 C 423.574219 774.109375 423.230469 773.289062 423.507812 772.542969 C 427.25 761.78125 434.855469 760.652344 435.175781 760.617188 C 436.046875 760.503906 436.839844 761.117188 436.964844 761.972656 C 437.0625 762.832031 436.46875 763.625 435.613281 763.738281 C 435.351562 763.78125 429.554688 764.757812 426.480469 773.578125 C 426.195312 774.402344 425.300781 774.835938 424.476562 774.554688 L 424.246094 774.460938 "/>
<path style=" stroke:none;fill-rule:nonzero;fill:rgb(100%,100%,100%);fill-opacity:1;" d="M 431.09375 779.140625 C 430.378906 778.769531 430.015625 777.914062 430.289062 777.125 C 434.199219 765.902344 441.429688 764.265625 441.734375 764.203125 C 442.636719 764.007812 443.515625 764.589844 443.707031 765.492188 C 443.882812 766.371094 443.320312 767.25 442.425781 767.445312 C 442.164062 767.507812 436.675781 768.910156 433.421875 778.21875 C 433.125 779.082031 432.175781 779.542969 431.3125 779.234375 L 431.09375 779.140625 "/>
<path style=" stroke:none;fill-rule:nonzero;fill:rgb(100%,100%,100%);fill-opacity:1;" d="M 438.875 781.675781 C 438.175781 781.304688 437.820312 780.476562 438.105469 779.707031 C 441.988281 768.53125 449.445312 768.609375 449.757812 768.609375 C 450.667969 768.636719 451.367188 769.382812 451.339844 770.273438 C 451.304688 771.15625 450.574219 771.851562 449.691406 771.835938 C 449.429688 771.847656 444.207031 771.980469 441.144531 780.773438 C 440.847656 781.601562 439.9375 782.054688 439.085938 781.765625 L 438.875 781.675781 "/>
<path style=" stroke:none;fill-rule:nonzero;fill:rgb(100%,100%,100%);fill-opacity:1;" d="M 448.371094 784.746094 C 447.730469 784.410156 447.410156 783.648438 447.652344 782.941406 C 451.21875 772.714844 458.046875 772.796875 458.332031 772.800781 C 459.148438 772.835938 459.792969 773.511719 459.777344 774.328125 C 459.742188 775.140625 459.074219 775.773438 458.265625 775.765625 C 458.035156 775.757812 453.246094 775.871094 450.449219 783.921875 C 450.179688 784.6875 449.339844 785.097656 448.574219 784.824219 L 448.371094 784.746094 "/>
<path style=" stroke:none;fill-rule:nonzero;fill:rgb(70.199585%,38.819885%,28.239441%);fill-opacity:1;" d="M 253.382812 419.890625 C 280.394531 322.527344 251.878906 226.285156 251.878906 226.285156 C 227.503906 219.816406 210.011719 216.742188 210.011719 216.742188 L 160.835938 216.742188 C 160.835938 216.742188 122.574219 237.550781 89.316406 260.582031 L 156.5 431.078125 L 253.382812 419.890625 "/>
<path style=" stroke:none;fill-rule:nonzero;fill:rgb(70.199585%,38.819885%,28.239441%);fill-opacity:1;" d="M 210.601562 224.746094 L 160.847656 224.824219 L 160.730469 151.089844 L 210.492188 151.011719 L 210.601562 224.746094 "/>
<path style=" stroke:none;fill-rule:nonzero;fill:rgb(62.748718%,30.589294%,23.919678%);fill-opacity:1;" d="M 174.363281 191.261719 C 167.675781 179.066406 165.648438 165.742188 164.808594 151.082031 L 210.492188 151.011719 L 210.589844 207.488281 C 197.488281 205.117188 181.132812 203.59375 174.363281 191.261719 "/>
<path style=" stroke:none;fill-rule:nonzero;fill:rgb(7.449341%,7.058716%,14.509583%);fill-opacity:1;" d="M 266.300781 619.199219 C 239.058594 629.394531 209.769531 632.910156 180.769531 630.855469 C 163.652344 629.644531 146.546875 626.953125 130.351562 621.101562 C 118.585938 616.847656 105.734375 611.527344 94.957031 604.132812 C 104.164062 534.15625 133.816406 461.71875 150.410156 443.820312 C 232.832031 458.714844 277.453125 447.921875 277.453125 447.921875 C 294.65625 481.820312 309.125 529.445312 311.3125 589.96875 C 300.222656 603.90625 282.5 613.128906 266.300781 619.199219 "/>
<path style=" stroke:none;fill-rule:nonzero;fill:rgb(10.978699%,10.5896%,21.958923%);fill-opacity:1;" d="M 126.007812 684.039062 L 282.792969 761.925781 C 332.257812 788.746094 361.429688 751.457031 361.429688 751.457031 C 391.304688 709.792969 342.992188 677.140625 342.992188 677.140625 C 264.714844 612.296875 225.289062 589.992188 225.289062 589.992188 C 208.914062 578.921875 173.808594 542.589844 154.386719 547.984375 C 117.0625 558.347656 109.835938 566.65625 95.230469 585.800781 C 95.230469 585.800781 76.039062 657.933594 126.007812 684.039062 "/>
<path style=" stroke:none;fill-rule:nonzero;fill:rgb(11.369324%,11.759949%,19.60907%);fill-opacity:1;" d="M 210.511719 473.578125 C 246.566406 473.578125 271.921875 461.847656 272.296875 461.667969 C 273.148438 461.269531 273.511719 460.253906 273.109375 459.402344 C 272.703125 458.550781 271.683594 458.199219 270.84375 458.59375 C 270.285156 458.855469 214.574219 484.5625 151.089844 458.558594 C 150.230469 458.203125 149.222656 458.613281 148.867188 459.484375 C 148.507812 460.355469 148.925781 461.351562 149.796875 461.707031 C 171.523438 470.605469 192.375 473.578125 210.511719 473.578125 "/>
<path style=" stroke:none;fill-rule:nonzero;fill:rgb(11.369324%,11.759949%,19.60907%);fill-opacity:1;" d="M 130.035156 541.980469 C 143.054688 541.980469 154.011719 538.222656 162.667969 530.757812 C 181.167969 514.824219 182.582031 487.957031 182.632812 486.824219 C 182.675781 485.882812 181.949219 485.085938 181.007812 485.050781 C 179.90625 485.058594 179.273438 485.730469 179.230469 486.667969 C 179.21875 486.933594 177.8125 513.234375 160.425781 528.195312 C 150.867188 536.417969 138.191406 539.792969 122.777344 538.1875 C 121.863281 538.097656 121.003906 538.773438 120.910156 539.710938 C 120.8125 540.644531 121.492188 541.476562 122.425781 541.574219 C 125.035156 541.847656 127.570312 541.980469 130.035156 541.980469 "/>
<path style=" stroke:none;fill-rule:nonzero;fill:rgb(11.369324%,11.759949%,19.60907%);fill-opacity:1;" d="M 216.867188 555.566406 L 217.140625 555.542969 L 237.550781 552.265625 C 238.472656 552.121094 239.101562 551.261719 238.96875 550.339844 L 231.015625 496.050781 C 230.878906 495.121094 230.003906 494.464844 229.082031 494.613281 C 228.152344 494.746094 227.503906 495.613281 227.640625 496.542969 L 235.351562 549.171875 L 216.601562 552.179688 C 215.675781 552.328125 215.042969 553.203125 215.1875 554.132812 C 215.324219 554.96875 216.046875 555.566406 216.867188 555.566406 "/>
<path style=" stroke:none;fill-rule:nonzero;fill:rgb(10.978699%,10.5896%,21.958923%);fill-opacity:1;" d="M 325.335938 667.269531 C 325.335938 667.269531 254.203125 682.609375 61.269531 706.503906 C 51.089844 723.90625 57.800781 748.359375 57.800781 748.359375 C 193.066406 778.226562 291.320312 777.058594 325.605469 770.207031 C 325.605469 770.207031 419.957031 716.859375 325.335938 667.269531 "/>
<path style=" stroke:none;fill-rule:nonzero;fill:rgb(7.449341%,7.058716%,14.509583%);fill-opacity:1;" d="M 366.234375 442.929688 C 366.234375 442.929688 359.914062 539.617188 382.492188 732.597656 C 399.832031 742.902344 424.339844 736.367188 424.339844 736.367188 C 446.730469 589.664062 442.8125 569.226562 453.9375 496.296875 C 453.9375 496.296875 454.699219 403.542969 366.234375 442.929688 "/>
<path style=" stroke:none;fill-rule:nonzero;fill:rgb(70.199585%,38.819885%,28.239441%);fill-opacity:1;" d="M 138.613281 133.90625 C 138.519531 143.046875 143.65625 153.375 151.90625 157.125 C 163.09375 162.21875 167.332031 151.960938 167.285156 141.949219 C 167.238281 133.882812 163.628906 120.007812 154.464844 117.191406 C 145.820312 114.53125 138.679688 126.410156 138.613281 133.90625 "/>
<path style=" stroke:none;fill-rule:nonzero;fill:rgb(70.199585%,38.819885%,28.239441%);fill-opacity:1;" d="M 161.632812 158.625 C 166.9375 171.773438 174.148438 182.546875 186.59375 190.105469 C 198.769531 197.488281 211.328125 201.253906 223.003906 191.519531 C 232.292969 183.777344 238.277344 172.527344 241.609375 161.203125 C 249.289062 135.140625 243.15625 99.144531 226.5 78.246094 C 208.199219 55.304688 173.097656 60.601562 159.652344 86.367188 C 148.691406 107.351562 153.0625 137.421875 161.632812 158.625 "/>
<path style=" stroke:none;fill-rule:nonzero;fill:rgb(64.709473%,32.159424%,25.099182%);fill-opacity:1;" d="M 152.113281 149.195312 L 151.660156 149.125 C 150.75 148.878906 150.21875 147.941406 150.464844 147.03125 C 152.734375 138.75 151.15625 130.515625 146.871094 128.285156 C 146.03125 127.847656 145.707031 126.820312 146.144531 125.984375 C 146.578125 125.144531 147.609375 124.820312 148.449219 125.257812 C 154.296875 128.304688 156.527344 137.835938 153.757812 147.933594 C 153.550781 148.695312 152.867188 149.195312 152.113281 149.195312 "/>
<path style=" stroke:none;fill-rule:nonzero;fill:rgb(64.709473%,32.159424%,25.099182%);fill-opacity:1;" d="M 143.703125 136.472656 C 143.042969 136.472656 142.410156 136.09375 142.132812 135.449219 C 141.757812 134.585938 142.152344 133.578125 143.019531 133.203125 C 144.519531 132.558594 149.671875 130.605469 153.230469 132.800781 C 154.03125 133.296875 154.28125 134.347656 153.78125 135.152344 C 153.289062 135.957031 152.230469 136.199219 151.433594 135.707031 C 149.835938 134.726562 146.65625 135.339844 144.382812 136.332031 C 144.160156 136.433594 143.929688 136.472656 143.703125 136.472656 "/>
<path style=" stroke:none;fill-rule:nonzero;fill:rgb(9.408569%,10.5896%,23.919678%);fill-opacity:1;" d="M 166.652344 135.660156 C 164.808594 137.644531 158.5 132.480469 157.167969 128.515625 C 157.03125 128.121094 157.167969 128.515625 157.167969 128.515625 C 156.667969 123.847656 153.53125 119.84375 147.984375 119.65625 C 144.015625 119.515625 140.222656 125.539062 139.097656 129.546875 C 138.816406 125.339844 138.898438 119.285156 138.824219 114.789062 C 138.765625 110.523438 138.992188 105.949219 139.519531 101.570312 C 140.707031 91.378906 141.5 85.785156 146.324219 76.21875 C 151.527344 65.917969 159.671875 57.914062 171.246094 54.976562 C 185.21875 51.425781 208.042969 48.5 219.945312 57.035156 C 226.050781 61.421875 220.984375 62.550781 220.132812 81.730469 C 220.132812 81.730469 165.300781 68.691406 166.652344 135.660156 "/>
<path style=" stroke:none;fill-rule:nonzero;fill:rgb(11.369324%,11.759949%,19.60907%);fill-opacity:1;" d="M 224.359375 127.4375 C 224.53125 130.328125 226.082031 132.589844 227.824219 132.476562 C 229.558594 132.375 230.824219 129.933594 230.644531 127.042969 C 230.457031 124.152344 228.910156 121.890625 227.164062 122.003906 C 225.429688 122.113281 224.171875 124.539062 224.359375 127.4375 "/>
<path style=" stroke:none;fill-rule:nonzero;fill:rgb(11.369324%,11.759949%,19.60907%);fill-opacity:1;" d="M 186.703125 127.4375 C 186.882812 130.328125 188.433594 132.589844 190.167969 132.476562 C 191.914062 132.375 193.171875 129.9375 192.984375 127.042969 C 192.804688 124.152344 191.261719 121.890625 189.515625 121.996094 C 187.773438 122.113281 186.515625 124.539062 186.703125 127.4375 "/>
<path style=" stroke:none;fill-rule:nonzero;fill:rgb(64.709473%,32.159424%,25.099182%);fill-opacity:1;" d="M 181.386719 142.515625 C 181.503906 144.570312 185.390625 146.007812 190.046875 145.710938 C 194.707031 145.425781 198.378906 143.515625 198.246094 141.457031 C 198.121094 139.398438 194.234375 137.976562 189.582031 138.265625 C 184.925781 138.558594 181.253906 140.460938 181.386719 142.515625 "/>
<path style=" stroke:none;fill-rule:nonzero;fill:rgb(64.709473%,32.159424%,25.099182%);fill-opacity:1;" d="M 222.960938 142.515625 C 223.085938 144.566406 226.96875 146.003906 231.625 145.714844 C 236.28125 145.414062 239.957031 143.511719 239.828125 141.453125 C 239.703125 139.398438 235.816406 137.96875 231.160156 138.265625 C 226.5 138.550781 222.828125 140.460938 222.960938 142.515625 "/>
<path style=" stroke:none;fill-rule:nonzero;fill:rgb(9.408569%,10.5896%,23.919678%);fill-opacity:1;" d="M 242.378906 113.71875 C 249.738281 96.511719 252.347656 67.375 220.507812 55.929688 C 212.695312 53.121094 193.609375 51.339844 187.289062 58.292969 C 173.292969 73.710938 204.796875 79.785156 213.226562 80.625 C 226.660156 81.972656 235.804688 85.640625 242.378906 113.71875 "/>
<path style=" stroke:none;fill-rule:nonzero;fill:rgb(16.079712%,15.289307%,30.979919%);fill-opacity:1;" d="M 105.179688 247.699219 C 105.179688 247.699219 170.5625 298.050781 105.179688 336.695312 C 107.851562 343.214844 143.445312 442.359375 150.152344 446.527344 C 170.0625 458.882812 278.800781 464.441406 282.226562 435.878906 C 293.414062 342.707031 294.703125 337.464844 283.746094 305.300781 C 265.765625 253.964844 252.628906 226.285156 252.628906 226.285156 L 243.492188 223.253906 L 214.449219 217.585938 C 214.449219 217.585938 219.726562 245.757812 195.664062 247.253906 C 195.664062 247.253906 156.941406 250.707031 157.566406 218.546875 L 105.179688 247.699219 "/>
<path style=" stroke:none;fill-rule:nonzero;fill:rgb(16.079712%,15.289307%,30.979919%);fill-opacity:1;" d="M 94.957031 494.496094 C 101.453125 414.335938 91.605469 400.359375 91.605469 372.839844 C 91.605469 347.300781 82.441406 307.351562 84.351562 294.199219 C 86.875 276.820312 139.042969 330.339844 152.875 331.472656 C 179.496094 333.644531 200.8125 341.238281 221.324219 321.257812 C 230.507812 312.308594 239.378906 304.5625 251.960938 301.929688 C 262.316406 299.761719 278.671875 301.777344 291.171875 330.289062 L 294.738281 393.839844 C 294.738281 397.242188 294.800781 400.4375 294.894531 403.542969 C 291.824219 427.132812 296.550781 439.695312 300.855469 481.375 C 300.976562 482.535156 301.15625 483.75 301.304688 484.929688 C 281.835938 521.476562 216.535156 517.761719 189.542969 550.734375 C 186.855469 552.382812 184.183594 554.128906 181.511719 555.972656 C 166.445312 566.355469 151.367188 575.453125 133.621094 577.503906 C 133.621094 577.503906 105.179688 586.648438 95.585938 584.125 C 95.585938 553.867188 93.347656 514.320312 94.957031 494.496094 "/>
<path style=" stroke:none;fill-rule:nonzero;fill:rgb(100%,100%,100%);fill-opacity:1;" d="M 208.011719 300.945312 C 208.929688 300.945312 209.683594 300.21875 209.714844 299.296875 C 210.035156 288.6875 209.367188 279.351562 208.777344 271.109375 C 207.269531 249.976562 206.179688 234.699219 223.09375 217.847656 C 246.589844 194.445312 246.589844 167.703125 246.589844 139.386719 C 246.589844 138.445312 245.828125 137.683594 244.886719 137.683594 C 243.945312 137.683594 243.183594 138.445312 243.183594 139.386719 C 243.183594 166.972656 243.183594 193.035156 220.691406 215.441406 C 202.671875 233.390625 203.804688 249.316406 205.378906 271.355469 C 205.960938 279.511719 206.625 288.761719 206.308594 299.195312 C 206.28125 300.132812 207.019531 300.917969 207.960938 300.945312 L 208.011719 300.945312 "/>
<path style=" stroke:none;fill-rule:nonzero;fill:rgb(100%,100%,100%);fill-opacity:1;" d="M 206.28125 252.144531 L 206.359375 252.144531 C 207.300781 252.101562 208.023438 251.304688 207.980469 250.363281 C 206.683594 221.757812 200.128906 203.457031 186.742188 191.027344 C 183.339844 187.867188 179.847656 184.949219 176.46875 182.128906 C 162.164062 170.171875 149.808594 159.851562 151.792969 138.234375 C 151.878906 137.296875 151.183594 136.46875 150.25 136.382812 C 149.324219 136.28125 148.480469 136.984375 148.398438 137.921875 C 146.257812 161.320312 159.867188 172.695312 174.28125 184.738281 C 177.628906 187.53125 181.089844 190.429688 184.425781 193.523438 C 197.105469 205.296875 203.320312 222.878906 204.582031 250.519531 C 204.621094 251.429688 205.375 252.144531 206.28125 252.144531 "/>
<path style=" stroke:none;fill-rule:nonzero;fill:rgb(100%,100%,100%);fill-opacity:1;" d="M 145.789062 138.441406 C 145.789062 140.699219 147.617188 142.527344 149.878906 142.527344 C 152.136719 142.527344 153.964844 140.699219 153.964844 138.441406 L 153.964844 134.5 C 153.964844 132.246094 152.136719 130.417969 149.878906 130.417969 C 147.617188 130.417969 145.789062 132.246094 145.789062 134.5 L 145.789062 138.441406 "/>
<path style=" stroke:none;fill-rule:nonzero;fill:rgb(9.408569%,10.5896%,23.919678%);fill-opacity:1;" d="M 182.457031 119.785156 C 183.246094 119.785156 184.019531 119.417969 184.519531 118.734375 C 187.144531 115.164062 188.929688 115 192.496094 114.660156 C 193.898438 114.53125 194.929688 113.285156 194.800781 111.882812 C 194.667969 110.480469 193.449219 109.421875 192.015625 109.574219 C 187.402344 110.011719 184.101562 110.675781 180.402344 115.714844 C 179.566406 116.855469 179.8125 118.449219 180.949219 119.289062 C 181.40625 119.617188 181.933594 119.785156 182.457031 119.785156 "/>
<path style=" stroke:none;fill-rule:nonzero;fill:rgb(9.408569%,10.5896%,23.919678%);fill-opacity:1;" d="M 236.082031 119.039062 C 236.574219 119.039062 237.074219 118.894531 237.515625 118.597656 C 238.683594 117.800781 238.984375 116.21875 238.191406 115.050781 C 235.527344 111.132812 229.761719 109.589844 226.03125 110.621094 C 224.667969 110.996094 223.871094 112.402344 224.246094 113.757812 C 224.625 115.121094 226.023438 115.914062 227.386719 115.542969 C 229.28125 115.015625 232.636719 115.96875 233.964844 117.921875 C 234.457031 118.652344 235.261719 119.039062 236.082031 119.039062 "/>
<path style=" stroke:none;fill-rule:nonzero;fill:rgb(62.348938%,32.548523%,24.708557%);fill-opacity:1;" d="M 211.238281 152.730469 C 212.886719 152.730469 214.515625 152.605469 215.992188 152.066406 C 216.734375 151.792969 217.195312 151.046875 217.101562 150.261719 C 216.800781 147.710938 215.863281 145.542969 214.957031 143.445312 C 213.957031 141.132812 213.015625 138.953125 212.914062 136.335938 C 212.785156 132.949219 213.203125 126.738281 217.425781 123.164062 C 218.144531 122.554688 218.234375 121.480469 217.625 120.757812 C 217.015625 120.042969 215.941406 119.949219 215.214844 120.558594 C 209.890625 125.0625 209.347656 132.460938 209.5 136.464844 C 209.625 139.71875 210.742188 142.300781 211.816406 144.796875 C 212.457031 146.273438 213.070312 147.699219 213.4375 149.1875 C 212.179688 149.355469 210.71875 149.316406 209.292969 149.273438 C 208.640625 149.253906 207.996094 149.234375 207.375 149.234375 C 206.433594 149.234375 205.667969 150 205.667969 150.941406 C 205.667969 151.882812 206.433594 152.648438 207.375 152.648438 C 207.960938 152.648438 208.570312 152.667969 209.191406 152.6875 C 209.867188 152.707031 210.554688 152.730469 211.238281 152.730469 "/>
<path style=" stroke:none;fill-rule:nonzero;fill:rgb(6.669617%,5.879211%,12.159729%);fill-opacity:1;" d="M 365.578125 744.757812 C 365.949219 744.757812 366.320312 744.640625 366.632812 744.394531 C 373.402344 739.058594 374.382812 726.105469 372.921875 718.617188 C 367.003906 688.375 323.296875 657.230469 302.292969 642.269531 C 291.601562 634.648438 281.3125 626.636719 271.359375 618.882812 C 252.742188 604.375 233.484375 589.378906 211.671875 577.183594 C 210.851562 576.726562 209.8125 577.011719 209.351562 577.835938 C 208.894531 578.660156 209.1875 579.691406 210.007812 580.15625 C 231.597656 592.21875 249.894531 606.472656 269.269531 621.570312 C 279.246094 629.339844 289.5625 637.382812 300.316406 645.039062 C 319.351562 658.601562 363.917969 690.355469 369.574219 719.269531 C 370.882812 725.980469 369.859375 737.507812 364.523438 741.722656 C 363.785156 742.300781 363.65625 743.371094 364.238281 744.109375 C 364.574219 744.535156 365.074219 744.757812 365.578125 744.757812 "/>
<path style=" stroke:none;fill-rule:nonzero;fill:rgb(6.669617%,5.879211%,12.159729%);fill-opacity:1;" d="M 65.863281 709.757812 C 68.519531 709.757812 71.207031 709.535156 73.644531 709.316406 C 91.03125 707.730469 108.574219 704.742188 125.539062 701.847656 C 144.777344 698.570312 164.667969 695.179688 184.96875 693.679688 C 202.855469 692.359375 223.808594 691.328125 243.667969 693.644531 C 245.875 693.902344 248.78125 694.148438 252.121094 694.425781 C 266.1875 695.601562 292.375 697.796875 296.886719 705.34375 C 297.367188 706.148438 298.417969 706.40625 299.226562 705.929688 C 300.03125 705.445312 300.296875 704.398438 299.8125 703.59375 C 294.402344 694.542969 269.128906 692.433594 252.402344 691.035156 C 249.113281 690.761719 246.242188 690.519531 244.0625 690.265625 C 223.917969 687.914062 202.761719 688.953125 184.714844 690.285156 C 164.257812 691.796875 144.285156 695.199219 124.96875 698.492188 C 108.066406 701.371094 90.589844 704.351562 73.335938 705.921875 C 69.839844 706.246094 65.8125 706.550781 62.308594 706.183594 C 61.394531 706.085938 60.539062 706.757812 60.4375 707.695312 C 60.335938 708.628906 61.015625 709.46875 61.953125 709.566406 C 63.222656 709.703125 64.539062 709.757812 65.863281 709.757812 "/>
<path style=" stroke:none;fill-rule:nonzero;fill:rgb(11.369324%,11.759949%,19.60907%);fill-opacity:1;" d="M 377.84375 690.28125 L 377.949219 690.277344 C 378.886719 690.21875 379.597656 689.414062 379.546875 688.476562 C 377.964844 662.125 377.273438 655.078125 375.574219 640.136719 L 374.753906 632.96875 C 372.339844 612.066406 369.851562 590.449219 369.894531 569.519531 C 369.902344 567.269531 369.894531 565.023438 369.886719 562.777344 C 369.855469 550.976562 369.820312 538.78125 371.578125 527.097656 C 372.941406 518.066406 376.542969 510.210938 380.351562 501.902344 C 381.371094 499.679688 382.394531 497.449219 383.382812 495.171875 C 383.757812 494.308594 383.359375 493.308594 382.5 492.933594 C 381.640625 492.558594 380.632812 492.953125 380.257812 493.816406 C 379.277344 496.070312 378.265625 498.285156 377.253906 500.480469 C 373.339844 509.019531 369.644531 517.082031 368.210938 526.589844 C 366.414062 538.535156 366.449219 550.859375 366.480469 562.785156 C 366.488281 565.027344 366.496094 567.269531 366.488281 569.515625 C 366.441406 590.636719 368.945312 612.355469 371.367188 633.359375 L 372.1875 640.519531 C 373.882812 655.390625 374.5625 662.410156 376.148438 688.679688 C 376.199219 689.585938 376.953125 690.28125 377.84375 690.28125 "/>
<path style=" stroke:none;fill-rule:nonzero;fill:rgb(70.199585%,38.819885%,28.239441%);fill-opacity:1;" d="M 356.261719 282.214844 C 341.167969 282.527344 341.238281 287.710938 341.40625 270.402344 C 341.503906 260.390625 337.171875 240.53125 341.417969 231.289062 C 342.578125 228.773438 341.9375 223.921875 344.335938 223.082031 L 347.074219 228.472656 C 348.039062 235.632812 345.574219 244.039062 353.886719 248.335938 C 359.78125 241.824219 363.304688 239.746094 368.441406 236.207031 C 372.378906 233.496094 382.050781 218.191406 385.960938 216.511719 C 398.898438 210.945312 378.011719 242.964844 374.953125 247.566406 C 385.457031 235.308594 388.082031 227.882812 389.945312 227.90625 C 394.773438 229.609375 394.628906 237.039062 379.726562 254.289062 C 382.289062 252.660156 398.386719 235.199219 401.445312 238.332031 C 404.847656 241.824219 386.503906 259.699219 383.980469 261.953125 L 400.738281 254.578125 C 400.738281 254.578125 404.132812 255.589844 401.019531 260.414062 C 401.019531 260.414062 372.355469 281.886719 356.261719 282.214844 "/>
<path style=" stroke:none;fill-rule:nonzero;fill:rgb(100%,100%,100%);fill-opacity:1;" d="M 186.671875 637.894531 C 189.570312 637.894531 192.363281 637.484375 194.984375 636.554688 C 202.074219 634.027344 207.015625 628.011719 209.65625 618.683594 C 213.460938 605.230469 214.582031 591.304688 215.667969 577.84375 C 216.632812 565.871094 217.625 553.5 220.527344 541.742188 C 224.09375 527.28125 236.550781 517.28125 249.734375 506.703125 C 259.613281 498.773438 269.828125 490.574219 275.917969 480.292969 C 276.398438 479.484375 276.128906 478.4375 275.320312 477.957031 C 274.511719 477.484375 273.46875 477.746094 272.984375 478.554688 C 267.207031 488.308594 257.238281 496.308594 247.601562 504.046875 C 234.554688 514.519531 221.0625 525.347656 217.222656 540.929688 C 214.253906 552.953125 213.246094 565.464844 212.269531 577.570312 C 211.199219 590.867188 210.089844 604.625 206.375 617.757812 C 204.050781 625.96875 199.835938 631.210938 193.839844 633.34375 C 179.199219 638.554688 156.839844 624.558594 147.90625 618.300781 C 131.757812 606.984375 111.75 582.585938 122.8125 561.757812 C 129.539062 549.082031 143.175781 544.910156 157.613281 540.488281 C 167.808594 537.367188 178.359375 534.132812 185.964844 527.574219 C 194.242188 520.425781 196.480469 509.710938 191.40625 501.515625 C 187.683594 495.496094 181.863281 493.386719 176.238281 491.347656 C 172.640625 490.046875 169.242188 488.816406 166.488281 486.621094 C 160.175781 481.589844 156.621094 475.261719 155.933594 467.808594 C 154.953125 457.242188 159.941406 444.496094 169.273438 433.71875 C 173.558594 428.769531 178.648438 424.324219 183.566406 420.015625 C 188.183594 415.980469 192.953125 411.800781 197.164062 407.148438 C 210.667969 392.21875 211.855469 373.726562 211.234375 357.609375 C 210.957031 350.460938 210.9375 343.121094 210.917969 336.023438 C 210.902344 328.585938 210.882812 320.890625 210.570312 313.339844 C 210.472656 311.03125 210.265625 308.667969 210.054688 306.273438 C 209.492188 299.953125 208.914062 293.414062 210.511719 287.488281 C 210.757812 286.578125 210.21875 285.644531 209.308594 285.398438 C 208.40625 285.15625 207.464844 285.695312 207.222656 286.605469 C 205.464844 293.113281 206.074219 299.957031 206.660156 306.578125 C 206.867188 308.914062 207.070312 311.222656 207.164062 313.480469 C 207.476562 320.96875 207.496094 328.628906 207.511719 336.035156 C 207.527344 343.15625 207.550781 350.527344 207.824219 357.738281 C 208.421875 373.175781 207.320312 390.84375 194.636719 404.863281 C 190.5625 409.367188 185.863281 413.480469 181.320312 417.453125 C 176.3125 421.839844 171.136719 426.363281 166.699219 431.492188 C 156.769531 442.957031 151.476562 456.648438 152.539062 468.121094 C 153.316406 476.535156 157.296875 483.652344 164.367188 489.285156 C 167.558594 491.824219 171.378906 493.210938 175.074219 494.546875 C 180.390625 496.476562 185.410156 498.292969 188.511719 503.300781 C 193.378906 511.171875 189.449219 520.066406 183.734375 524.996094 C 176.675781 531.09375 166.929688 534.070312 156.613281 537.234375 C 142.152344 541.664062 127.195312 546.242188 119.804688 560.160156 C 107.707031 582.941406 128.808594 609.070312 145.949219 621.082031 C 155.625 627.867188 172.367188 637.894531 186.671875 637.894531 "/>
<path style=" stroke:none;fill-rule:nonzero;fill:rgb(2.349854%,10.978699%,20.779419%);fill-opacity:1;" d="M 273.660156 493.078125 C 267.425781 499.296875 264.050781 499.296875 260.609375 499.296875 L 232.886719 499.296875 C 225.261719 499.296875 225.183594 495.015625 227.078125 491.128906 L 287.792969 433.453125 C 294.351562 427.230469 297.085938 427.230469 300.527344 427.230469 L 333.277344 427.230469 C 337.890625 427.230469 340.09375 434.550781 336.300781 436.785156 L 273.660156 493.078125 "/>
<path style=" stroke:none;fill-rule:nonzero;fill:rgb(3.529358%,16.468811%,30.198669%);fill-opacity:1;" d="M 273.726562 493.292969 C 267 499.515625 264.050781 499.515625 260.609375 499.515625 L 237.394531 499.515625 C 231.164062 499.515625 229.273438 497.183594 231.164062 493.292969 L 292.902344 435.160156 C 297.023438 431.078125 299.941406 430.558594 303.382812 430.558594 L 331.6875 430.558594 C 336.300781 430.558594 337.871094 433.453125 336.300781 436.785156 L 273.726562 493.292969 "/>
<path style=" stroke:none;fill-rule:nonzero;fill:rgb(70.199585%,38.819885%,28.239441%);fill-opacity:1;" d="M 287.230469 461.722656 C 291.707031 471.042969 299.757812 475.210938 308.601562 477.074219 C 328.816406 481.332031 342.730469 439.515625 323.320312 443.527344 C 313.304688 445.597656 276.035156 438.394531 287.230469 461.722656 "/>
<path style=" stroke:none;fill-rule:nonzero;fill:rgb(70.199585%,38.819885%,28.239441%);fill-opacity:1;" d="M 112.253906 324.117188 L 230.058594 417.570312 C 230.058594 417.570312 245.46875 419.859375 260.09375 407.238281 C 260.09375 407.238281 277.675781 397.398438 245.828125 368.878906 L 134.722656 258.378906 C 134.722656 258.378906 103.820312 233.714844 91.703125 273.484375 C 91.703125 273.484375 83.207031 302.320312 112.253906 324.117188 "/>
<path style=" stroke:none;fill-rule:nonzero;fill:rgb(16.079712%,15.289307%,30.979919%);fill-opacity:1;" d="M 102.195312 249.523438 C 102.195312 249.523438 122.601562 227.351562 175.625 281.070312 L 227.851562 330.574219 C 227.851562 330.574219 196.480469 386.515625 167.285156 394.898438 L 105.179688 336.695312 C 105.179688 336.695312 52.648438 277.765625 102.195312 249.523438 "/>
<path style=" stroke:none;fill-rule:nonzero;fill:rgb(70.199585%,38.819885%,28.239441%);fill-opacity:1;" d="M 311.992188 354.132812 C 279.90625 401.703125 271.277344 417.878906 233.957031 417.71875 C 208.992188 417.605469 237.28125 360.378906 237.28125 360.378906 C 271.957031 359.726562 341.40625 270.402344 341.40625 270.402344 C 341.40625 270.402344 354.089844 268.117188 359.78125 276.269531 C 359.78125 276.269531 327.132812 331.691406 311.992188 354.132812 "/>
<path style=" stroke:none;fill-rule:nonzero;fill:rgb(9.408569%,10.5896%,23.919678%);fill-opacity:1;" d="M 191.242188 13.515625 C 181.28125 4.960938 159.941406 0.0234375 148.980469 7.542969 C 129.230469 21.101562 129.511719 56.503906 155.367188 62.964844 C 180.175781 69.160156 215.996094 34.757812 191.242188 13.515625 "/>
<path style=" stroke:none;fill-rule:nonzero;fill:rgb(62.348938%,32.548523%,24.708557%);fill-opacity:1;" d="M 211.25 167.863281 C 212.039062 167.863281 212.820312 167.769531 213.597656 167.570312 C 214.511719 167.335938 215.0625 166.40625 214.828125 165.492188 C 214.597656 164.578125 213.652344 164.027344 212.753906 164.261719 C 208.292969 165.402344 201.910156 160.6875 199.980469 156.171875 C 199.613281 155.300781 198.605469 154.898438 197.742188 155.265625 C 196.875 155.640625 196.46875 156.640625 196.84375 157.507812 C 198.839844 162.1875 205.082031 167.863281 211.25 167.863281 "/>
<path style=" stroke:none;fill-rule:nonzero;fill:rgb(64.309692%,35.289001%,32.159424%);fill-opacity:1;" d="M 434.40625 629.261719 C 464.117188 559.667969 454.800781 500.769531 454.800781 500.769531 C 452.996094 493.082031 451.625 484.972656 450.570312 476.777344 C 452.027344 468.621094 454.28125 460.660156 457.953125 453.046875 C 465.449219 437.46875 477.5625 430.328125 493.757812 426.050781 C 499.695312 424.484375 505.484375 422.90625 511.003906 420.742188 C 536.816406 463.90625 503.65625 536.066406 503.65625 536.066406 C 503.65625 536.066406 496.621094 547.226562 481.492188 558.386719 L 463.164062 614.019531 C 463.164062 614.019531 459.453125 615.316406 453.261719 626.515625 C 453.261719 626.515625 446.476562 646.164062 436.695312 646.203125 L 421.871094 643.582031 C 416.367188 631.753906 434.40625 629.261719 434.40625 629.261719 "/>
<path style=" stroke:none;fill-rule:nonzero;fill:rgb(64.309692%,35.289001%,32.159424%);fill-opacity:1;" d="M 744.671875 582.480469 C 725.484375 610.941406 701.847656 623.652344 667.011719 623.285156 C 676.910156 623.390625 684.804688 633.625 694.835938 635.1875 C 750.554688 643.871094 801.144531 560.699219 782.683594 513.828125 C 777.90625 501.695312 745.011719 467.15625 740.355469 489.238281 C 737.964844 500.777344 753.339844 512.125 757.191406 521.960938 C 765.199219 542.394531 756.21875 565.328125 744.671875 582.480469 "/>
<path style=" stroke:none;fill-rule:nonzero;fill:rgb(66.668701%,32.159424%,28.239441%);fill-opacity:1;" d="M 519.777344 655.761719 C 532.75 686.234375 550.144531 692.40625 585.804688 706.285156 C 585.804688 706.285156 601.382812 732.421875 590.773438 758.089844 C 590.773438 758.089844 565.128906 760.839844 576.398438 778.429688 L 597.238281 778.375 C 597.238281 778.375 609.632812 769.96875 612.96875 744.320312 L 612.867188 709.414062 C 612.867188 709.414062 614.144531 697.65625 609.015625 692.328125 C 609.015625 692.328125 603.351562 689.65625 598.929688 682.671875 C 598.929688 682.671875 593.453125 665.359375 606.910156 639.695312 L 605.410156 612.644531 L 529.472656 580.023438 C 529.472656 580.023438 505.859375 628.90625 519.777344 655.761719 "/>
<path style=" stroke:none;fill-rule:nonzero;fill:rgb(75.289917%,46.669006%,33.729553%);fill-opacity:1;" d="M 566.050781 266.261719 C 554.242188 238.644531 527.535156 222.851562 527.535156 222.851562 C 515.929688 216.914062 516.347656 228.527344 516.347656 228.527344 C 521.4375 243.902344 514.488281 276.59375 514.488281 276.59375 C 514.488281 276.59375 544.050781 287.191406 566.050781 266.261719 "/>
<path style=" stroke:none;fill-rule:nonzero;fill:rgb(64.309692%,32.548523%,27.449036%);fill-opacity:1;" d="M 522.566406 231.550781 C 522.566406 231.550781 525.726562 255.203125 520.183594 266.453125 C 520.183594 266.453125 528.730469 271.226562 538.679688 262.988281 C 538.679688 262.988281 532.601562 242.894531 522.566406 231.550781 "/>
<path style=" stroke:none;fill-rule:nonzero;fill:rgb(75.289917%,46.669006%,33.729553%);fill-opacity:1;" d="M 569.410156 655.761719 C 582.382812 686.234375 599.777344 692.40625 635.4375 706.285156 C 635.4375 706.285156 651.015625 732.421875 640.40625 758.089844 C 640.40625 758.089844 614.761719 760.839844 626.03125 778.429688 L 646.875 778.375 C 646.875 778.375 659.265625 769.96875 662.605469 744.320312 L 662.5 709.414062 C 662.5 709.414062 663.78125 697.65625 658.652344 692.328125 C 658.652344 692.328125 652.980469 689.65625 648.5625 682.671875 C 648.5625 682.671875 643.085938 665.359375 656.546875 639.695312 L 655.042969 612.644531 L 573.496094 600.734375 C 573.496094 600.734375 555.496094 628.90625 569.410156 655.761719 "/>
<path style=" stroke:none;fill-rule:nonzero;fill:rgb(75.289917%,46.669006%,33.729553%);fill-opacity:1;" d="M 454.867188 467.207031 C 455.234375 455.511719 457.722656 444.230469 460.824219 433.066406 C 484.515625 396.902344 516.921875 364.546875 516.921875 364.546875 L 536.738281 343.507812 C 551.199219 333.851562 573.527344 308.074219 573.527344 308.074219 C 573.527344 308.074219 560.792969 289.171875 593.660156 316.753906 C 583.40625 302.582031 608.820312 284.984375 604.929688 383.859375 C 604.929688 383.859375 612.15625 428.886719 625.65625 453.042969 C 650.328125 492.707031 663.914062 528.457031 690.238281 566.972656 C 700.015625 581.261719 691.4375 617.65625 683.527344 631.269531 C 675.609375 644.871094 661.777344 657.425781 647.804688 667.632812 C 647.375 667.386719 646.839844 667.328125 646.273438 667.683594 C 615.820312 686.792969 584.070312 652.550781 586.214844 621.824219 C 588.683594 619.492188 590.324219 618.191406 590.324219 618.191406 L 573.199219 607.339844 C 573.199219 607.339844 509.773438 581.375 468.71875 520.554688 C 461.347656 503.464844 454.28125 485.933594 454.867188 467.207031 "/>
<path style=" stroke:none;fill-rule:nonzero;fill:rgb(75.289917%,46.669006%,33.729553%);fill-opacity:1;" d="M 602.714844 327.910156 C 602.714844 281.585938 581.148438 260.714844 581.148438 260.714844 C 571.042969 232.445312 545.335938 215.058594 545.335938 215.058594 C 534.109375 208.433594 533.832031 220.046875 533.832031 220.046875 C 537.976562 235.707031 531.597656 256.089844 531.597656 256.089844 C 531.597656 256.089844 499.4375 293.371094 462.890625 315.550781 C 462.890625 315.550781 449.183594 323.726562 448.058594 337.121094 C 448.058594 337.121094 461.027344 364.894531 525.988281 360.46875 C 525.988281 360.46875 582.582031 361.199219 602.714844 327.910156 "/>
<path style=" stroke:none;fill-rule:nonzero;fill:rgb(62.348938%,38.42926%,27.449036%);fill-opacity:1;" d="M 462.890625 315.550781 C 492.136719 297.804688 518.546875 270.417969 527.945312 260.164062 C 525.351562 266.671875 521.628906 272.734375 516.601562 278.179688 C 508.140625 287.335938 498.074219 294.449219 488.417969 302.234375 C 482.410156 307.074219 473.304688 315.402344 478.816406 323.945312 C 482.019531 328.917969 489.808594 332.46875 490.855469 338.523438 C 492.183594 346.207031 490.226562 352.796875 486.042969 358.613281 C 455.308594 352.613281 448.058594 337.121094 448.058594 337.121094 C 449.183594 323.726562 462.890625 315.550781 462.890625 315.550781 "/>
<path style=" stroke:none;fill-rule:nonzero;fill:rgb(9.408569%,3.919983%,1.568604%);fill-opacity:1;" d="M 533.644531 293.945312 C 534.324219 293.945312 534.964844 293.535156 535.222656 292.863281 C 536.679688 289.042969 534.699219 284.71875 530.808594 283.238281 C 528.902344 282.503906 526.828125 282.558594 524.980469 283.386719 C 523.171875 284.191406 521.792969 285.648438 521.101562 287.476562 C 520.769531 288.347656 521.207031 289.320312 522.074219 289.644531 C 522.9375 289.984375 523.914062 289.542969 524.246094 288.675781 C 524.621094 287.683594 525.371094 286.898438 526.351562 286.457031 C 527.375 286 528.53125 285.96875 529.605469 286.378906 C 531.765625 287.199219 532.875 289.574219 532.070312 291.667969 C 531.738281 292.535156 532.175781 293.507812 533.046875 293.835938 L 533.644531 293.945312 "/>
<path style=" stroke:none;fill-rule:nonzero;fill:rgb(64.309692%,32.548523%,27.449036%);fill-opacity:1;" d="M 539.746094 221.070312 C 539.746094 221.070312 542.921875 244.71875 537.363281 255.96875 C 537.363281 255.96875 545.925781 260.742188 555.867188 252.5 C 555.867188 252.5 549.785156 232.40625 539.746094 221.070312 "/>
<path style=" stroke:none;fill-rule:nonzero;fill:rgb(11.369324%,11.759949%,19.60907%);fill-opacity:1;" d="M 584.632812 681.828125 C 585.058594 681.828125 585.488281 681.667969 585.804688 681.34375 C 586.457031 680.695312 586.457031 679.640625 585.8125 678.992188 C 555.425781 648.527344 558.894531 606.046875 594.867188 568.113281 C 595.5 567.445312 595.472656 566.394531 594.804688 565.761719 C 594.140625 565.125 593.085938 565.15625 592.449219 565.824219 C 555.671875 604.605469 552.140625 649.949219 583.449219 681.339844 C 583.777344 681.667969 584.207031 681.828125 584.632812 681.828125 "/>
<path style=" stroke:none;fill-rule:nonzero;fill:rgb(11.369324%,11.759949%,19.60907%);fill-opacity:1;" d="M 568.746094 607.003906 C 569.328125 607.003906 569.894531 606.699219 570.199219 606.152344 C 570.648438 605.351562 570.363281 604.335938 569.5625 603.886719 C 566.019531 601.902344 562.519531 599.992188 559.054688 598.101562 C 542.839844 589.257812 527.519531 580.902344 513.730469 567.664062 L 513.640625 567.574219 C 513.386719 567.332031 513.074219 567.179688 512.75 567.132812 C 497.753906 553.882812 477.988281 534.550781 464.410156 510.769531 C 463.945312 509.96875 462.921875 509.695312 462.132812 510.152344 C 461.335938 510.605469 461.058594 511.625 461.511719 512.417969 C 476.527344 538.703125 498.863281 559.558594 514.359375 572.953125 L 514.898438 573.269531 C 528.0625 584.988281 542.378906 592.796875 557.460938 601.023438 C 560.914062 602.90625 564.40625 604.808594 567.929688 606.792969 C 568.191406 606.933594 568.46875 607.003906 568.746094 607.003906 "/>
<path style=" stroke:none;fill-rule:nonzero;fill:rgb(37.649536%,17.248535%,11.759949%);fill-opacity:1;" d="M 460.847656 350.917969 C 469.046875 341.371094 468.988281 326.792969 459.753906 317.667969 C 455.597656 320.882812 448.03125 328.027344 447.1875 338 C 447.1875 338 450.277344 344.574219 460.847656 350.917969 "/>
<path style=" stroke:none;fill-rule:nonzero;fill:rgb(94.509888%,26.269531%,62.748718%);fill-opacity:1;" d="M 605.34375 363.046875 C 605.34375 363.046875 564.183594 378.289062 514.449219 362.613281 L 506.300781 375.726562 C 506.300781 375.726562 518.746094 396.351562 604.933594 383.855469 C 604.933594 383.855469 607.808594 378.429688 605.34375 363.046875 "/>
<path style=" stroke:none;fill-rule:nonzero;fill:rgb(11.369324%,11.759949%,19.60907%);fill-opacity:1;" d="M 521.488281 365.0625 C 538.953125 365.0625 562.667969 358.425781 574.417969 349.667969 C 575.3125 349.011719 575.492188 347.746094 574.828125 346.859375 C 574.164062 345.964844 572.902344 345.78125 572.015625 346.449219 C 559.433594 355.824219 531.027344 362.851562 514.722656 360.625 C 513.609375 360.472656 512.605469 361.238281 512.453125 362.34375 C 512.308594 363.441406 513.074219 364.457031 514.179688 364.609375 C 516.4375 364.914062 518.890625 365.0625 521.488281 365.0625 "/>
<path style=" stroke:none;fill-rule:nonzero;fill:rgb(75.289917%,46.669006%,33.729553%);fill-opacity:1;" d="M 420.660156 433.667969 L 445.171875 461.433594 L 459.691406 498.652344 L 521.011719 453.171875 L 468.316406 429.453125 L 442.070312 410.53125 C 435.296875 418.582031 428.152344 426.292969 420.660156 433.667969 "/>
<path style=" stroke:none;fill-rule:nonzero;fill:rgb(75.289917%,46.669006%,33.729553%);fill-opacity:1;" d="M 397.535156 441.160156 C 406.6875 433.21875 420.660156 433.667969 420.660156 433.667969 C 438.328125 429.773438 442.070312 410.53125 442.070312 410.53125 C 420.753906 395.171875 411.300781 406.648438 411.300781 406.648438 L 402.714844 416.296875 C 402.714844 416.296875 397.347656 423.757812 389.675781 427.011719 C 382.695312 432.179688 375.554688 437.359375 369.476562 443.386719 L 374.796875 450.015625 C 386.390625 457.148438 397.535156 441.160156 397.535156 441.160156 "/>
</g>
</svg>
