<?xml version="1.0" encoding="UTF-8"?>
<svg xmlns="http://www.w3.org/2000/svg" xmlns:xlink="http://www.w3.org/1999/xlink" width="50px" height="50px" viewBox="0 0 810 809.999993" version="1.2">
<defs>
<clipPath id="clip1">
  <path d="M 121 109.671875 L 689 109.671875 L 689 700.671875 L 121 700.671875 Z M 121 109.671875 "/>
</clipPath>
<clipPath id="clip2">
  <path d="M 258 418 L 427 418 L 427 554.679688 L 258 554.679688 Z M 258 418 "/>
</clipPath>
<clipPath id="clip3">
  <path d="M 279 323.679688 L 338 323.679688 L 338 399 L 279 399 Z M 279 323.679688 "/>
</clipPath>
<clipPath id="clip4">
  <path d="M 347 323.679688 L 406 323.679688 L 406 399 L 347 399 Z M 347 323.679688 "/>
</clipPath>
</defs>
<g id="surface1">
<rect x="0" y="0" width="810" height="809.999993" style="fill:rgb(100%,100%,100%);fill-opacity:1;stroke:none;"/>
<rect x="0" y="0" width="810" height="809.999993" style="fill:rgb(100%,100%,100%);fill-opacity:1;stroke:none;"/>
<rect x="0" y="0" width="810" height="809.999993" style="fill:rgb(100%,100%,100%);fill-opacity:1;stroke:none;"/>
<g clip-path="url(#clip1)" clip-rule="nonzero">
<path style=" stroke:none;fill-rule:nonzero;fill:rgb(93.728638%,13.729858%,23.529053%);fill-opacity:1;" d="M 612.796875 401.949219 C 613.09375 458.632812 601.113281 490.691406 589.808594 501.785156 C 585.875 505.652344 581.738281 507.300781 575.964844 507.300781 C 575.738281 507.300781 575.503906 507.292969 575.273438 507.292969 C 570.671875 507.175781 566.941406 506.667969 563.769531 505.671875 L 563.769531 302.703125 C 568.066406 298.460938 571.402344 297.109375 572.992188 297.039062 L 573.277344 297.039062 C 577.253906 297.171875 586.882812 303.976562 595.886719 321.757812 C 606.636719 342.988281 612.644531 371.464844 612.796875 401.949219 Z M 658.058594 278.070312 C 637.160156 242.503906 607.675781 222.484375 575.046875 221.710938 L 574.871094 221.703125 L 573.09375 221.679688 L 572.71875 221.679688 C 569.714844 221.695312 566.734375 221.871094 563.769531 222.21875 L 563.769531 184.628906 C 563.769531 159.6875 539.199219 140.214844 490.738281 126.765625 C 450.953125 115.722656 398.390625 109.640625 342.726562 109.640625 C 287.0625 109.640625 234.5 115.722656 194.714844 126.765625 C 146.257812 140.214844 121.691406 159.6875 121.691406 184.628906 C 121.691406 185.328125 121.714844 186.035156 121.757812 186.742188 C 121.714844 187.28125 121.691406 187.808594 121.691406 188.347656 L 121.691406 625.722656 C 121.691406 650.65625 146.257812 670.125 194.714844 683.574219 C 234.5 694.625 287.0625 700.703125 342.726562 700.703125 C 398.390625 700.703125 450.953125 694.625 490.738281 683.574219 C 539.199219 670.125 563.769531 650.65625 563.769531 625.722656 L 563.769531 582.03125 C 566.957031 582.347656 570.195312 582.539062 573.484375 582.621094 C 574.308594 582.644531 575.128906 582.652344 575.945312 582.652344 C 601.484375 582.652344 624.519531 573.289062 642.554688 555.578125 C 680.660156 518.167969 688.359375 451.167969 688.109375 401.558594 C 687.867188 354.488281 677.191406 310.628906 658.058594 278.070312 "/>
</g>
<path style=" stroke:none;fill-rule:nonzero;fill:rgb(93.728638%,13.729858%,23.529053%);fill-opacity:1;" d="M 573.007812 279.117188 C 560.292969 279.195312 546.902344 290.726562 536.261719 310.746094 C 523.402344 334.953125 516.414062 367.519531 516.601562 402.449219 C 517.144531 509.105469 544.921875 524.480469 574.863281 525.199219 C 575.230469 525.207031 575.605469 525.214844 575.964844 525.214844 C 586.433594 525.214844 595.0625 521.730469 602.34375 514.578125 C 620.644531 496.613281 630.980469 455.53125 630.703125 401.859375 C 630.339844 330.324219 600.355469 279.769531 573.675781 279.128906 Z M 575.945312 564.734375 C 575.265625 564.734375 574.589844 564.726562 573.914062 564.714844 C 477.921875 562.40625 477.347656 450.457031 477.097656 402.65625 C 476.890625 361.292969 485.511719 322.0625 501.382812 292.191406 C 519.332031 258.421875 544.699219 239.742188 572.816406 239.59375 L 574.605469 239.617188 C 628.640625 240.90625 669.734375 310.5625 670.207031 401.652344 C 670.433594 447.8125 663.652344 509.761719 630.015625 542.792969 C 615.390625 557.148438 596.699219 564.734375 575.945312 564.734375 "/>
<path style=" stroke:none;fill-rule:nonzero;fill:rgb(100%,100%,100%);fill-opacity:1;" d="M 575.964844 524.273438 C 575.613281 524.273438 575.246094 524.265625 574.882812 524.257812 C 545.421875 523.542969 518.085938 508.296875 517.542969 402.441406 C 517.359375 367.671875 524.300781 335.261719 537.09375 311.1875 C 547.570312 291.476562 560.660156 280.132812 573.023438 280.058594 L 573.660156 280.074219 C 586.421875 280.382812 600.386719 293.097656 611.023438 314.089844 C 622.933594 337.625 629.589844 368.792969 629.757812 401.859375 C 630.039062 455.28125 619.804688 496.117188 601.679688 513.902344 C 594.585938 520.875 586.175781 524.273438 575.964844 524.273438 Z M 572.824219 238.652344 L 572.808594 238.652344 C 544.332031 238.800781 518.667969 257.65625 500.550781 291.75 C 484.613281 321.75 475.949219 361.144531 476.152344 402.65625 C 476.402344 450.734375 476.984375 563.335938 573.890625 565.65625 C 574.574219 565.671875 575.257812 565.679688 575.945312 565.679688 C 596.949219 565.679688 615.875 557.996094 630.671875 543.460938 C 664.550781 510.203125 671.382812 447.988281 671.148438 401.644531 C 670.675781 310.039062 629.183594 239.972656 574.640625 238.675781 L 572.84375 238.652344 Z M 575.964844 526.160156 C 586.679688 526.160156 595.542969 522.585938 603.007812 515.25 C 621.484375 497.113281 631.925781 455.773438 631.644531 401.851562 C 631.277344 329.78125 600.8125 278.835938 573.699219 278.1875 L 573.015625 278.171875 C 559.9375 278.246094 546.246094 289.949219 535.433594 310.296875 C 522.503906 334.636719 515.472656 367.371094 515.65625 402.449219 C 516.210938 509.914062 544.433594 525.40625 574.839844 526.144531 C 575.214844 526.152344 575.597656 526.160156 575.964844 526.160156 M 572.816406 240.539062 L 574.597656 240.558594 C 628.097656 241.835938 668.792969 311.101562 669.261719 401.652344 C 669.492188 447.625 662.769531 509.304688 629.355469 542.121094 C 614.886719 556.324219 596.453125 563.792969 575.945312 563.792969 C 575.273438 563.792969 574.605469 563.785156 573.933594 563.769531 C 478.863281 561.488281 478.28125 450.175781 478.039062 402.648438 C 477.832031 361.441406 486.417969 322.371094 502.214844 292.632812 C 519.992188 259.183594 545.0625 240.679688 572.816406 240.539062 "/>
<path style=" stroke:none;fill-rule:nonzero;fill:rgb(100%,100%,100%);fill-opacity:1;" d="M 342.726562 682.789062 C 288.636719 682.789062 237.769531 676.9375 199.5 666.316406 C 160.871094 655.589844 139.597656 641.175781 139.597656 625.722656 L 139.597656 188.347656 C 139.597656 187.921875 139.890625 187.539062 140.3125 187.433594 C 154.304688 183.949219 213.472656 182.183594 316.179688 182.183594 C 378.734375 182.183594 443.65625 182.800781 491.070312 183.257812 C 515.703125 183.492188 535.152344 183.683594 544.921875 183.683594 C 545.445312 183.683594 545.863281 184.105469 545.863281 184.628906 L 545.863281 625.722656 C 545.863281 641.167969 524.585938 655.589844 485.953125 666.316406 C 447.683594 676.9375 396.820312 682.789062 342.726562 682.789062 "/>
<path style=" stroke:none;fill-rule:nonzero;fill:rgb(93.728638%,13.729858%,23.529053%);fill-opacity:1;" d="M 316.203125 181.238281 L 316.203125 183.125 L 316.1875 181.238281 C 211.949219 181.238281 154.351562 182.964844 140.082031 186.519531 C 139.242188 186.734375 138.65625 187.484375 138.65625 188.347656 L 138.65625 625.722656 C 138.65625 641.632812 160.171875 656.378906 199.25 667.222656 C 237.597656 677.867188 288.550781 683.730469 342.726562 683.730469 C 396.902344 683.730469 447.855469 677.867188 486.203125 667.222656 C 525.285156 656.371094 546.804688 641.632812 546.804688 625.722656 L 546.804688 184.628906 C 546.804688 183.582031 545.964844 182.742188 544.921875 182.742188 C 535.160156 182.742188 515.710938 182.550781 491.082031 182.316406 C 443.679688 181.859375 378.753906 181.238281 316.203125 181.238281 Z M 316.179688 183.125 C 412.429688 183.125 516.996094 184.628906 544.921875 184.628906 C 544.921875 184.628906 544.921875 594.710938 544.921875 625.722656 C 544.921875 656.71875 454.390625 681.84375 342.726562 681.84375 C 231.054688 681.84375 140.539062 656.71875 140.539062 625.722656 C 140.539062 609.117188 140.539062 188.347656 140.539062 188.347656 C 157.066406 184.230469 233.558594 183.125 316.179688 183.125 "/>
<path style=" stroke:none;fill-rule:nonzero;fill:rgb(93.728638%,13.729858%,23.529053%);fill-opacity:1;" d="M 342.726562 241.695312 C 288.636719 241.695312 237.769531 235.847656 199.5 225.222656 C 160.871094 214.5 139.597656 200.082031 139.597656 184.628906 C 139.597656 169.171875 160.871094 154.75 199.5 144.023438 C 237.769531 133.402344 288.636719 127.554688 342.726562 127.554688 C 396.820312 127.554688 447.683594 133.402344 485.953125 144.023438 C 524.585938 154.75 545.863281 169.171875 545.863281 184.628906 C 545.863281 200.082031 524.585938 214.5 485.953125 225.222656 C 447.683594 235.847656 396.820312 241.695312 342.726562 241.695312 "/>
<path style=" stroke:none;fill-rule:nonzero;fill:rgb(100%,100%,100%);fill-opacity:1;" d="M 342.726562 126.609375 C 288.550781 126.609375 237.597656 132.476562 199.25 143.117188 C 160.171875 153.96875 138.65625 168.710938 138.65625 184.628906 C 138.65625 200.546875 160.171875 215.285156 199.25 226.128906 C 237.597656 236.78125 288.550781 242.636719 342.726562 242.636719 C 396.902344 242.636719 447.855469 236.78125 486.203125 226.128906 C 525.285156 215.285156 546.804688 200.546875 546.804688 184.628906 C 546.804688 168.710938 525.285156 153.96875 486.203125 143.117188 C 447.855469 132.476562 396.902344 126.609375 342.726562 126.609375 Z M 342.726562 128.496094 C 454.390625 128.496094 544.921875 153.628906 544.921875 184.628906 C 544.921875 215.625 454.390625 240.75 342.726562 240.75 C 231.054688 240.75 140.539062 215.625 140.539062 184.628906 C 140.539062 153.628906 231.054688 128.496094 342.726562 128.496094 "/>
<g clip-path="url(#clip2)" clip-rule="nonzero">
<path style=" stroke:none;fill-rule:nonzero;fill:rgb(16.859436%,17.649841%,25.878906%);fill-opacity:1;" d="M 389.832031 461.257812 C 373.972656 443.203125 367.238281 418.695312 342.679688 418.695312 C 318.121094 418.695312 311.386719 443.203125 295.527344 461.257812 C 281.339844 477.40625 258.984375 484.921875 258.984375 507.339844 C 258.984375 533.484375 280.207031 554.683594 306.375 554.683594 C 320.953125 554.683594 329.160156 537.765625 342.679688 537.765625 C 356.195312 537.765625 364.40625 554.683594 378.980469 554.683594 C 405.152344 554.683594 426.371094 533.484375 426.371094 507.339844 C 426.371094 484.921875 404.019531 477.40625 389.832031 461.257812 "/>
</g>
<g clip-path="url(#clip3)" clip-rule="nonzero">
<path style=" stroke:none;fill-rule:nonzero;fill:rgb(16.859436%,17.649841%,25.878906%);fill-opacity:1;" d="M 337.636719 361.28125 C 337.636719 382.046875 324.695312 398.886719 308.730469 398.886719 C 292.765625 398.886719 279.824219 382.046875 279.824219 361.28125 C 279.824219 340.511719 292.765625 323.675781 308.730469 323.675781 C 324.695312 323.675781 337.636719 340.511719 337.636719 361.28125 "/>
</g>
<g clip-path="url(#clip4)" clip-rule="nonzero">
<path style=" stroke:none;fill-rule:nonzero;fill:rgb(16.859436%,17.649841%,25.878906%);fill-opacity:1;" d="M 405.53125 361.28125 C 405.53125 382.046875 392.589844 398.886719 376.625 398.886719 C 360.660156 398.886719 347.71875 382.046875 347.71875 361.28125 C 347.71875 340.511719 360.660156 323.675781 376.625 323.675781 C 392.589844 323.675781 405.53125 340.511719 405.53125 361.28125 "/>
</g>
<path style=" stroke:none;fill-rule:nonzero;fill:rgb(16.859436%,17.649841%,25.878906%);fill-opacity:1;" d="M 283.203125 415.316406 C 287.121094 435.714844 277.589844 454.6875 261.910156 457.691406 C 246.230469 460.699219 230.34375 446.597656 226.425781 426.203125 C 222.507812 405.808594 232.039062 386.835938 247.71875 383.828125 C 263.394531 380.820312 279.28125 394.917969 283.203125 415.316406 "/>
<path style=" stroke:none;fill-rule:nonzero;fill:rgb(16.859436%,17.649841%,25.878906%);fill-opacity:1;" d="M 456.949219 431.191406 C 449.886719 450.726562 431.988281 462.167969 416.972656 456.75 C 401.957031 451.332031 395.511719 431.105469 402.574219 411.570312 C 409.636719 392.039062 427.535156 380.597656 442.550781 386.011719 C 457.566406 391.429688 464.011719 411.660156 456.949219 431.191406 "/>
</g>
</svg>
