<?xml version="1.0" encoding="UTF-8" standalone="no"?>
<!DOCTYPE svg PUBLIC "-//W3C//DTD SVG 1.1//EN" "http://www.w3.org/Graphics/SVG/1.1/DTD/svg11.dtd">
<svg width="100%" height="100%" viewBox="0 0 810 810" version="1.1" xmlns="http://www.w3.org/2000/svg" xmlns:xlink="http://www.w3.org/1999/xlink" xml:space="preserve" xmlns:serif="http://www.serif.com/" style="fill-rule:evenodd;clip-rule:evenodd;stroke-linejoin:round;stroke-miterlimit:2;">
    <g id="surface1">
        <g transform="matrix(1,0,0,1,-1.48438,-44.5665)">
            <path d="M411.816,246.465L326.773,197.953C293.758,186.883 361.922,53.152 457.777,246.676L411.816,246.465" style="fill:rgb(228,56,52);"/>
        </g>
        <g transform="matrix(1,0,0,1,-1.48438,-44.5665)">
            <path d="M428.785,237.078C238.332,113.012 422.801,196.875 440.074,229.742L428.785,237.078" style="fill:rgb(182,27,27);"/>
        </g>
        <g transform="matrix(1,0,0,1,-1.48438,-44.5665)">
            <path d="M503.742,246.465L588.785,197.953C621.809,186.883 553.645,53.152 457.777,246.676L503.742,246.465" style="fill:rgb(228,56,52);"/>
        </g>
        <g transform="matrix(1,0,0,1,-1.48438,-44.5665)">
            <path d="M486.781,237.078C677.238,113.012 492.758,196.875 475.492,229.742L486.781,237.078" style="fill:rgb(182,27,27);"/>
        </g>
        <g transform="matrix(1,0,0,1,-1.48438,-44.5665)">
            <path d="M457.777,272.285C481.445,272.285 500.738,258.156 500.738,240.84C500.738,223.512 481.445,209.383 457.777,209.383C434.121,209.383 414.82,223.512 414.82,240.84C414.82,258.156 434.121,272.285 457.777,272.285" style="fill:rgb(182,27,27);"/>
        </g>
        <g transform="matrix(1,0,0,1,-1.48438,-44.5665)">
            <path d="M267.289,304.223L648.27,304.223C662.055,304.223 673.336,315.496 673.336,329.266L673.336,594.09C673.336,607.871 662.055,619.145 648.27,619.145L267.289,619.145C253.512,619.145 242.23,607.871 242.23,594.09L242.23,329.266C242.23,315.496 253.512,304.223 267.289,304.223" style="fill:rgb(254,179,0);"/>
        </g>
        <g transform="matrix(1,0,0,1,-1.48438,-44.5665)">
            <path d="M267.289,304.223L648.27,304.223C662.055,304.223 673.336,317.215 673.336,333.09L673.336,364.656L242.23,364.656L242.23,333.09C242.23,317.215 253.512,304.223 267.289,304.223" style="fill:rgb(232,163,3);"/>
        </g>
        <g transform="matrix(1,0,0,1,-1.48438,-44.5665)">
            <path d="M219.379,249.078L696.188,249.078C708.668,249.078 718.879,259.285 718.879,271.758L718.879,316.813C718.879,329.285 708.668,339.492 696.188,339.492L219.379,339.492C206.898,339.492 196.688,329.285 196.688,316.813L196.688,271.758C196.688,259.285 206.898,249.078 219.379,249.078" style="fill:rgb(254,179,0);"/>
        </g>
        <g transform="matrix(1,0,0,1,-1.48438,-44.5665)">
            <path d="M403.395,619.145L512.172,619.145L512.172,249.078L403.395,249.078L403.395,619.145" style="fill:rgb(228,56,52);"/>
        </g>
        <g transform="matrix(1,0,0,1,-1.48438,-44.5665)">
            <path d="M512.172,364.656L512.172,339.492L403.387,339.492L403.387,364.656L512.172,364.656" style="fill:rgb(208,55,50);"/>
        </g>
        <g transform="matrix(1,0,0,1,-1.48438,-44.5665)">
            <clipPath id="_clip1">
                <rect x="27" y="545.301" width="781.605" height="211.168"/>
            </clipPath>
            <g clip-path="url(#_clip1)">
                <path d="M589.633,606.367C636.563,591.656 710.738,568.637 729.691,564.48C733.086,563.73 736.668,563.148 740.406,562.738C744.168,562.328 747.754,562.121 751.129,562.121C764.258,562.121 776.465,564.875 785.973,569.523C797.563,575.184 805.594,583.867 807.918,594.527C809.383,601.203 809.211,611.445 800.008,622.172C795.16,627.82 787.469,633.754 775.445,639.27L775.043,639.445L565.551,727.629L564.906,727.918C463.52,765.41 454.461,762.512 381.68,739.195C369.125,735.176 354.5,730.492 336.359,725.113C324.18,721.516 312.473,717.926 301.715,714.617C231.863,693.195 204.359,684.762 117.867,700.949L108.844,702.633L96.648,704.918L96.648,708.523C96.648,714.926 91.406,720.156 85.008,720.156L39.098,720.156C32.695,720.156 27.461,714.926 27.461,708.523L27.461,566.063C27.461,559.668 32.695,554.43 39.098,554.43L85.008,554.43C91.406,554.43 96.648,559.668 96.648,566.063L96.648,568.27L103.305,566.977L109.469,565.773C174.008,553.273 220.336,545.051 267.367,545.598C314.723,546.156 361.539,555.582 426.273,578.422C440.023,583.262 457.367,587.168 474.996,591.145C503.133,597.477 531.945,603.965 551.918,615.246C552.66,615.668 553.387,616.094 554.098,616.523C554.199,616.805 554.313,617.094 554.422,617.395L589.633,606.367" style="fill:rgb(210,97,69);"/>
            </g>
        </g>
        <g transform="matrix(1,0,0,1,-1.48438,-44.5665)">
            <clipPath id="_clip2">
                <rect x="91" y="562" width="717.605" height="194.469"/>
            </clipPath>
            <g clip-path="url(#_clip2)">
                <path d="M568.707,612.949C610.109,599.914 707.555,569.328 729.691,564.48C733.086,563.73 736.668,563.148 740.406,562.738C744.168,562.328 747.754,562.121 751.129,562.121C764.258,562.121 776.465,564.875 785.973,569.523C797.563,575.184 805.594,583.867 807.918,594.527C809.383,601.203 809.211,611.445 800.008,622.172C795.16,627.82 787.469,633.754 775.445,639.27L775.043,639.445L565.551,727.629L564.906,727.918C463.52,765.41 454.461,762.512 381.68,739.195C369.125,735.176 354.5,730.492 336.359,725.113C324.18,721.516 312.473,717.926 301.715,714.617C231.863,693.195 204.359,684.762 117.867,700.949L108.844,702.633L91.16,705.941L91.16,590.074L219.234,632.746C250.414,651.199 395.031,674.945 417.531,678.699C454.418,684.844 524.02,694.145 555.844,667.895C572.922,653.816 575.734,632.703 568.707,612.949" style="fill:rgb(213,117,69);fill-rule:nonzero;"/>
            </g>
        </g>
        <g transform="matrix(1,0,0,1,-1.48438,-44.5665)">
            <path d="M91.16,574.328L91.16,567.355L96.395,568.32L103.305,566.977L109.469,565.773C174.008,553.273 220.336,545.051 267.367,545.598C314.723,546.156 361.539,555.582 426.273,578.422C440.023,583.262 457.367,587.168 474.996,591.145C503.133,597.477 531.945,603.965 551.918,615.246C552.66,615.668 553.387,616.094 554.098,616.523C561.016,634.359 571.176,689.145 419.984,663.961C367.113,655.16 328.543,647.645 300.414,641.438L288.012,648.031L300.848,656.867L300.414,672.82L91.16,634.465L91.16,574.328" style="fill:rgb(213,117,69);fill-rule:nonzero;"/>
        </g>
        <g transform="matrix(1,0,0,1,-1.48438,-44.5665)">
            <path d="M31.66,499.637L150.668,499.637C167.266,499.637 180.84,513.211 180.84,529.801L180.84,723.43C180.84,740.023 167.266,753.598 150.668,753.598L31.66,753.598C15.066,753.598 1.484,740.023 1.484,723.43L1.484,529.801C1.484,513.211 15.066,499.637 31.66,499.637" style="fill:rgb(219,35,56);"/>
        </g>
    </g>
</svg>
