<?xml version="1.0" encoding="UTF-8" standalone="no"?>
<!DOCTYPE svg PUBLIC "-//W3C//DTD SVG 1.1//EN" "http://www.w3.org/Graphics/SVG/1.1/DTD/svg11.dtd">
<svg width="100%" height="100%" viewBox="0 0 800 590" version="1.1" xmlns="http://www.w3.org/2000/svg" xmlns:xlink="http://www.w3.org/1999/xlink" xml:space="preserve" xmlns:serif="http://www.serif.com/" style="fill-rule:evenodd;clip-rule:evenodd;stroke-linejoin:round;stroke-miterlimit:2;">
    <g transform="matrix(1,0,0,1,3.87874,-211.849)">
        <path d="M368.473,504.027L368.473,700.102C368.473,700.102 605.461,744.516 718.031,706.023C718.031,706.023 756.539,682.336 735.805,634.961C735.805,634.961 771.766,596.469 741.938,549.094C741.938,549.094 789.516,492.84 753.773,457.309C753.773,457.309 810.203,401.055 767.078,377.367C723.957,353.68 531.398,386.25 522.516,359.602L525.48,315.188C528.441,270.773 501.781,208.598 454.383,217.48C454.383,217.48 448.457,229.324 448.457,247.09C448.457,247.09 451.422,318.148 427.723,359.602C404.023,401.055 368.473,483.297 368.473,504.027Z" style="fill:rgb(213,117,69);fill-rule:nonzero;"/>
    </g>
    <g transform="matrix(1,0,0,1,3.87874,-211.849)">
        <path d="M383.285,481.445L383.285,730.16C383.285,730.16 386.25,753.848 362.547,753.848C338.848,753.848 282.563,759.766 273.676,736.082C264.785,712.395 258.867,499.215 273.676,481.449C288.484,463.684 383.285,466.547 383.285,481.445Z" style="fill:rgb(166,218,244);fill-rule:nonzero;"/>
    </g>
    <g transform="matrix(1,0,0,1,3.87874,-211.849)">
        <path d="M331.445,671.219C331.445,671.219 309.227,671.219 306.262,693.426C303.301,715.629 321.074,721.879 331.445,721.715C331.445,721.715 353.66,717.277 356.625,696.469C356.621,696.473 358.105,674.18 331.445,671.219Z" style="fill:rgb(244,218,115);fill-rule:nonzero;"/>
    </g>
    <g transform="matrix(1,0,0,1,3.87874,-211.849)">
        <path d="M290.461,469.172C290.461,469.172 304.281,794.094 290.461,796.066C276.637,798.039 15.949,796.504 15.949,796.504C15.949,796.504 0.152,770.844 15.949,469.609C15.949,469.609 17.93,453.039 53.477,456.988C89.023,460.938 282.563,455.941 282.563,455.941C282.563,455.941 289.93,456.148 290.461,469.172Z" style="fill:rgb(63,120,161);fill-rule:nonzero;"/>
    </g>
</svg>
