<?xml version="1.0" encoding="UTF-8" standalone="no"?>
<!DOCTYPE svg PUBLIC "-//W3C//DTD SVG 1.1//EN" "http://www.w3.org/Graphics/SVG/1.1/DTD/svg11.dtd">
<svg width="100%" height="100%" viewBox="0 0 810 810" version="1.1" xmlns="http://www.w3.org/2000/svg" xmlns:xlink="http://www.w3.org/1999/xlink" xml:space="preserve" xmlns:serif="http://www.serif.com/" style="fill-rule:evenodd;clip-rule:evenodd;stroke-linejoin:round;stroke-miterlimit:2;">
    <g id="surface1" transform="matrix(1.10499,0,0,1.10499,-49.0683,-84.4362)">
        <path d="M560.406,597.891C560.406,597.891 565.719,593.379 565.719,586.633C565.719,579.891 542.539,513.371 524.375,495.23C506.27,477.105 489.555,479.18 489.555,479.18C489.555,479.18 321.945,482.551 315.188,482.551C308.391,482.551 279.008,484.402 258.762,518.363C238.555,552.328 224.957,599.984 234.547,609.594C244.188,619.18 314.531,626.063 324.121,621.125C333.723,616.246 469.766,637.492 479.816,627.445C489.832,617.453 505.336,613.969 515.813,611.734C526.324,609.512 560.406,597.891 560.406,597.891" style="fill:rgb(239,37,60);fill-rule:nonzero;"/>
        <path d="M267.93,578.035C255.504,575.195 243.91,577.992 233.152,583.008C230.59,595.75 230.73,605.738 234.547,609.594C242.23,617.223 288.598,623.172 311.883,622.746C306.578,601.32 290.879,583.563 267.93,578.035" style="fill:rgb(219,35,56);fill-rule:nonzero;"/>
        <path d="M514.324,584.77C502.164,592.629 496.402,604.531 495.227,617.637C502.395,614.668 509.898,612.988 515.813,611.734C526.324,609.512 560.406,597.891 560.406,597.891C560.406,597.891 565.719,593.379 565.719,586.633C565.719,585.516 565.027,582.641 563.852,578.59C546.438,574.641 528.422,575.379 514.324,584.77" style="fill:rgb(219,35,56);fill-rule:nonzero;"/>
        <g>
            <path d="M509.621,613.137C509.621,613.137 522.184,681.383 522.184,809.453L267.516,809.453C267.516,809.453 273.477,670.879 282.547,646.191C292.934,617.824 308.113,611.734 308.113,611.734L315.188,482.551L332.039,485.922L341.77,553.328L464.035,553.328C464.035,553.328 464.035,478.43 470.043,472.457C476.047,466.461 490.672,477.691 490.672,481.066C490.672,484.426 488.066,556.32 488.066,565.297C488.066,574.309 509.621,613.137 509.621,613.137" style="fill:rgb(110,176,213);fill-rule:nonzero;"/>
        </g>
        <path d="M514.418,746.926C507.523,745.488 502.027,744.371 496.02,740.227C489.082,735.395 486.477,728.984 482.754,721.918C482.004,720.516 479.906,720.801 479.723,722.426C478.883,730.563 486.984,737.855 492.805,742.23C498.109,746.18 507.938,751.898 514.785,749.113C515.949,748.594 515.441,747.109 514.418,746.926" style="fill:rgb(73,144,180);fill-rule:nonzero;"/>
        <path d="M511.43,757.848C499.883,757.109 491.133,753.336 483.078,744.922C482.098,743.898 480.105,745.016 480.84,746.363C486.801,757.008 499.605,761.105 511.199,760.691C512.965,760.645 513.344,757.996 511.43,757.848" style="fill:rgb(73,144,180);fill-rule:nonzero;"/>
        <path d="M280.313,741.066C293.313,734.555 306.809,722.148 312.168,708.336C312.816,706.578 310.441,705.508 309.367,706.898C305.219,712.055 302.152,717.957 297.867,723.082C292.656,729.262 286.234,734.691 279.113,738.559C277.523,739.398 278.688,741.91 280.313,741.066" style="fill:rgb(73,144,180);fill-rule:nonzero;"/>
        <path d="M309.785,723.402C309.969,740.09 289.301,750.309 276.266,755.902C274.688,756.547 275.574,758.93 277.199,758.688C286.086,757.434 294.512,751.621 301.172,745.766C307.742,739.996 313.137,732.289 312.629,723.266C312.539,721.688 309.785,721.781 309.785,723.402" style="fill:rgb(73,144,180);fill-rule:nonzero;"/>
        <g>
            <path d="M403.512,779.566C403.883,771.105 408.629,758.871 403.559,751.117C403.039,750.309 402.117,751.059 402.117,751.762C402.535,761.762 400.633,771.016 399.93,780.91C399.605,785.563 400.25,790.301 401.129,794.801C402.152,799.969 402.672,804.391 402.305,809.453L406.773,809.453C408.828,799.738 403.086,789.418 403.512,779.566" style="fill:rgb(73,144,180);fill-rule:nonzero;"/>
        </g>
        <path d="M386.234,750.09C387.871,754.359 387.031,759.988 386.883,764.5C386.754,768.688 386.754,772.82 387.445,776.953C388.563,783.742 393.359,790.902 400.48,792.156C402.441,792.488 402.949,789.922 401.703,788.91C398.855,786.574 395.918,785.227 393.59,782.211C391.262,779.148 390.707,774.914 390.34,771.199C389.637,764.305 389.129,756.457 389.406,749.527C389.496,746.777 385.211,747.48 386.234,750.09" style="fill:rgb(73,144,180);fill-rule:nonzero;"/>
        <path d="M508.781,497.281C511.707,500.168 515.523,502.344 519.246,504.023C520.133,504.418 520.883,503.23 520.273,502.527C517.68,499.559 514.082,497.188 510.602,495.289C509.332,494.586 507.57,496.117 508.781,497.281" style="fill:rgb(157,84,107);fill-rule:nonzero;"/>
        <path d="M526.289,511.746C528.895,513.691 530.059,516.902 532.477,518.984C533.215,519.641 534.195,518.758 534.102,517.949C533.781,514.484 530.609,511.367 527.82,509.516C526.379,508.559 524.883,510.723 526.289,511.746" style="fill:rgb(157,84,107);fill-rule:nonzero;"/>
        <path d="M537.18,530.668C537.977,532.43 538.574,534.258 539.23,536.098C539.785,537.836 539.934,539.945 541.133,541.395C541.699,542.074 543,541.945 543.23,541.023C543.738,539.125 542.91,537.285 542.254,535.5C541.563,533.406 540.488,531.496 539.465,529.574C538.715,528.102 536.477,529.172 537.18,530.668" style="fill:rgb(157,84,107);fill-rule:nonzero;"/>
        <path d="M522.934,517.926C523.867,519.977 524.848,522.012 525.77,524.063C526.656,525.949 527.5,528.574 529.355,529.598C530.105,529.965 531.223,529.734 531.27,528.734C531.27,526.523 529.734,524.59 528.711,522.668C527.637,520.551 526.426,518.48 525.031,516.57C524.145,515.418 522.371,516.672 522.934,517.926" style="fill:rgb(157,84,107);fill-rule:nonzero;"/>
        <path d="M509.668,509.227C509.805,509.227 510.035,509.332 509.621,509.203C509.762,509.227 509.852,509.285 509.945,509.332C510.359,509.492 509.668,509.133 510.035,509.375C510.176,509.457 510.313,509.539 510.406,509.617C510.555,509.699 510.695,509.813 510.785,509.906C510.555,509.699 510.926,510.066 510.926,510.066C511.199,510.344 511.43,510.586 511.629,510.883C512.043,511.438 512.871,511.551 513.484,511.273C514.277,510.906 514.508,510.02 514.223,509.227C513.574,507.582 511.813,506.016 509.945,506.039C509.102,506.063 508.32,506.559 508.227,507.488C508.125,508.352 508.781,509.156 509.668,509.227" style="fill:rgb(157,84,107);fill-rule:nonzero;"/>
        <path d="M277.754,502.68C273.613,506.016 266.953,511.551 268.531,517.594C268.867,518.758 270.492,519.09 270.965,517.836C272.867,512.555 276.449,508.859 280.082,504.82C281.336,503.414 279.113,501.586 277.754,502.68" style="fill:rgb(157,84,107);fill-rule:nonzero;"/>
        <path d="M277.754,515.418C275.805,516.996 274.398,519.793 273.844,522.176C273.57,523.406 274.766,524.43 275.852,523.59C277.844,522.059 278.641,519.551 280.082,517.547C281.152,516.039 279.16,514.324 277.754,515.418" style="fill:rgb(157,84,107);fill-rule:nonzero;"/>
        <path d="M261.691,527.688C258.898,531.082 253.359,537.031 255.922,541.867C256.34,542.66 257.551,542.891 258.059,542.051C259.227,540.152 259.414,537.813 260.297,535.754C261.273,533.543 262.898,531.449 264.344,529.551C265.648,527.871 263.043,526.074 261.691,527.688" style="fill:rgb(157,84,107);fill-rule:nonzero;"/>
        <path d="M268.773,532.66C267.793,533.637 267,534.801 266.16,535.914C265.328,537.031 264.535,538.078 264.113,539.391C263.742,540.52 264.813,541.371 265.836,541.004C267.234,540.52 268.023,539.516 268.91,538.379C269.789,537.168 270.676,535.801 271.285,534.406C271.887,532.98 269.891,531.496 268.773,532.66" style="fill:rgb(157,84,107);fill-rule:nonzero;"/>
        <path d="M252.66,548.609C250.52,551.301 247.117,555.953 248.051,559.578C248.379,560.855 249.914,561.223 250.754,560.188C251.773,558.898 252.055,557.207 252.617,555.676C253.266,553.836 254.293,552.164 255.406,550.555C256.664,548.746 254.012,546.93 252.66,548.609" style="fill:rgb(157,84,107);fill-rule:nonzero;"/>
        <path d="M261.508,556.184C261.508,556.391 261.508,556.609 261.461,556.84L261.414,557.113C261.414,557.113 261.32,557.621 261.414,557.344C261.363,557.539 261.32,557.723 261.273,557.898C261.32,557.621 261.18,558.117 261.18,558.117C261.039,558.484 260.949,558.805 260.949,559.207C260.898,560.094 261.598,560.762 262.531,560.648C264.676,560.395 264.625,557.668 264.535,556.043C264.441,554.316 261.645,554.512 261.508,556.184" style="fill:rgb(157,84,107);fill-rule:nonzero;"/>
        <path d="M347.738,479.246C347.738,479.246 349.641,543.395 387.871,554.629C426.047,565.805 455.934,516.109 451.844,487.59L347.738,479.246" style="fill:rgb(219,35,56);fill-rule:nonzero;"/>
        <path d="M359.887,483.469C359.887,483.469 361.328,532.359 390.418,540.934C419.57,549.461 442.344,511.551 439.223,489.848L359.887,483.469" style="fill:rgb(213,117,69);fill-rule:nonzero;"/>
        <g transform="matrix(0.835404,0,0,1,66.359,22.1667)">
            <path d="M200.934,376.508C225.891,396.074 239.578,342.363 271.148,331.648C299.688,321.695 320.824,298.641 349.41,287.063C381.762,273.023 420.133,270.469 453.652,280.09C482.617,288.973 539.082,324.789 568.094,332.902C606.129,344.203 613.254,355.887 623.961,325.539C659.68,225.285 584.992,152.668 546.172,134.219C537.504,130.07 528.605,127.887 519.395,126.148C522.613,123.172 525.215,119.594 526.656,115.805C533.828,94.418 497.613,96.113 500.492,115.914C498.547,111.289 495.652,94.559 488.852,93.809C476.473,92.277 484.438,110.359 486.43,115.219C486.477,115.426 486.523,115.598 486.66,115.805C484.148,114.734 481.359,114.129 479.172,112.57C347.59,19.965 96.461,169.051 172.254,331.316L200.934,376.508" style="fill:rgb(88,96,100);fill-rule:nonzero;"/>
        </g>
        <g transform="matrix(0.835404,0,0,1,65.8192,0)">
            <path d="M154.191,335.066C148,362.813 161.73,387.754 188.32,399.262C202.844,405.59 223.703,403.52 236.785,394.613C264.117,375.957 234.547,333.5 217.977,318.496C194.648,297.457 162.852,296.215 154.191,335.066" style="fill:rgb(213,117,69);fill-rule:nonzero;"/>
        </g>
        <g transform="matrix(0.835404,0,0,1,65.8192,0)">
            <path d="M668.566,315.836C672.383,344.031 656.602,367.672 629.043,376.879C614,381.906 593.43,378.063 581.176,368.039C555.52,347.082 588.715,307.375 606.512,293.855C631.512,274.863 663.297,276.441 668.566,315.836" style="fill:rgb(213,117,69);fill-rule:nonzero;"/>
        </g>
        <g transform="matrix(0.835404,0,0,0.903644,65.8192,49.0497)">
            <path d="M303.18,491.758C381.625,526.57 530.852,510.203 571.863,429.969C611.902,351.66 600.031,260.121 532.34,205.203C442.988,132.723 292.043,139.93 236.086,247.105C191.25,332.949 208.66,447.68 303.18,491.758" style="fill:rgb(213,117,69);fill-rule:nonzero;"/>
        </g>
        <path d="M393.406,326.113C392.379,336.781 394.625,347.219 394.523,357.867C385.117,357.91 378.316,364.715 378.5,375.195C378.699,388.156 393.957,394.82 404.066,387.293C406.914,385.105 405.934,379.617 401.738,379.996C396.48,380.504 390.098,383.105 387.629,376.648C384.934,369.672 390.754,364.84 397.313,365.773C399.789,366.117 402.152,364.504 402.074,361.859C401.461,350.004 399.652,338.336 398.063,326.586C397.738,324.168 393.691,323.281 393.406,326.113" style="fill:rgb(101,88,75);fill-rule:nonzero;"/>
        <g transform="matrix(0.835404,0,0,1,65.8192,0)">
            <path d="M234.176,254.102C235.527,260.469 227.426,283 229.988,287.41C233.852,293.129 261.23,288.836 267.605,288.734C272.035,288.688 281.625,289.805 284.738,287.156C289.855,283.898 288.32,259.008 296.012,258.234C303.641,258.098 302.523,277.305 307.641,281.047C316.582,286.039 335.016,281.887 344.57,281.77C349.031,281.645 362.445,283.992 366.215,280.793C373.152,276.141 373.672,257.59 378.699,250.477C388.289,256.105 389.684,269.512 396.102,277.063C403.18,285.902 413.992,283.832 424.789,283.668C433.125,283.508 452.258,288.32 460.496,284.371C468.738,280.414 462.918,270.262 468.555,263.125C476.785,254.059 482.004,269.305 487.781,275.602C494.199,283.188 499.328,283.715 508.871,284.234C521.633,284.648 534.992,283.809 547.703,284.234C548.305,277.191 546.91,265.727 550.676,259.891C569.258,270.469 574.984,330.246 584.023,349.313C596.723,339.473 600.504,273.16 594.637,259.824C586.211,239.512 571.402,223.742 554.781,209.98C537.457,194.875 523.305,175.938 502.223,167.332C474.086,156.898 426.602,126.91 397.313,127.328C350.25,128.125 303.641,140.109 263.738,165.68C242.836,179.469 233.852,212.547 219.977,233.859C210.617,248.109 203.355,266.004 198.793,282.16C188.598,317.676 205.961,375.668 208.613,348.105C209.172,342.293 214.898,281.77 234.176,254.102" style="fill:rgb(88,96,100);fill-rule:nonzero;"/>
        </g>
        <path d="M484.012,327.91C484.484,334.043 485.867,343.398 476.426,344.125C466.688,344.895 467.621,331.359 467.898,326.629C468.035,324.02 469.719,321.672 472.141,320.668C477.914,318.297 483.551,321.695 484.012,327.91" style="fill:rgb(101,88,75);fill-rule:nonzero;"/>
        <path d="M311.512,328.438C311.145,334.629 309.785,343.961 319.188,344.641C328.961,345.332 327.996,331.855 327.672,327.047C327.477,324.434 325.805,322.121 323.43,321.164C317.609,318.77 311.926,322.258 311.512,328.438" style="fill:rgb(101,88,75);fill-rule:nonzero;"/>
        <path d="M500.539,768.953L289.348,763.199L296.148,514.301L507.34,520.035L500.539,768.953" style="fill:rgb(217,147,120);fill-rule:nonzero;"/>
        <path d="M300.852,752.371C319.707,752.875 470.824,757.008 489.695,757.527C490.246,738.18 495.375,550.23 495.883,530.875C477.027,530.355 325.898,526.25 306.992,525.73C306.488,545.074 301.359,733.023 300.852,752.371" style="fill:rgb(125,135,138);fill-rule:nonzero;"/>
        <path d="M366.918,679.141C341.031,658.918 330.922,627.445 327.523,596.023C324.273,573.156 326.266,550.254 329.48,526.34C318.59,526.039 310.488,525.832 306.992,525.73C306.488,545.078 301.359,733.023 300.852,752.371C319.707,752.875 470.824,757.008 489.695,757.527C489.879,751.148 490.535,726.613 491.363,695.793C486.387,698.531 480.934,700.582 474.93,701.605C436.664,708.336 397.313,702.723 366.918,679.141" style="fill:rgb(114,124,126);fill-rule:nonzero;"/>
        <path d="M495.316,551.027L303.133,668.082C302.383,694.859 301.738,719.363 301.313,735.258L494.582,579.199C494.855,568.461 495.145,558.875 495.316,551.027" style="fill:rgb(149,158,162);fill-rule:nonzero;"/>
        <path d="M492.988,636.891L368.543,754.223C381.82,754.59 395.777,754.969 409.324,755.34L492.527,654.234C492.668,648.457 492.852,642.656 492.988,636.891" style="fill:rgb(125,135,138);fill-rule:nonzero;"/>
        <path d="M455.645,734.047C456.719,724.75 442.102,742.555 437.641,751.117C436.848,752.691 435.914,754.359 434.898,756.043L454.723,756.594C454.816,747.617 454.953,740.227 455.645,734.047" style="fill:rgb(216,203,180);fill-rule:nonzero;"/>
        <path d="M331.301,742.047C331.301,742.047 325.527,734.75 327.809,718.051C330.137,701.363 340.051,694.492 343.266,697.969C346.438,701.41 339.496,709.5 338.52,724.141C337.492,738.836 340.801,743.254 340.801,743.254L331.301,742.047" style="fill:rgb(203,190,168);fill-rule:nonzero;"/>
        <path d="M453.281,739.25C453.883,738.18 461.293,725.07 461.199,720.848C461.109,716.672 458.539,707.602 452.164,698.992C448.305,693.699 445.457,688.023 443.969,683.984C442.988,681.43 444.477,677.746 449.836,673.387C451.887,671.66 454.539,669.242 457.895,665.754C469.582,653.488 475.402,640.793 473.813,631.68C472.277,622.531 459.898,621.125 457.34,620.02C454.77,618.895 448.117,594.402 438.703,588.027C438.703,588.027 442.805,579.293 450.066,578.406C450.066,578.406 452.672,595.379 468.188,597.465C483.676,599.605 483.828,580.82 475.723,566.012C467.621,551.211 446.621,538.125 437.641,543.418C428.652,548.723 428.375,569.902 420.086,579.523C420.086,579.523 402.395,571.613 384.609,581.145C366.871,590.672 357.559,612.574 342.746,622.148C327.902,631.77 322.406,631.309 317.242,631.266C312.02,631.219 305.738,650.598 306.992,659.344C308.25,668.035 318.496,671.477 332.789,662.879C347.082,654.316 364.313,631.402 364.313,631.402C364.313,631.402 366.77,642.141 363.332,647.539C359.934,652.922 352.488,665.145 361.789,669.898C371.055,674.641 385.59,676.219 386.512,679.703C387.492,683.191 387.355,692.582 380.703,710.34C374.043,728.098 354.297,748.777 354.297,748.777C354.297,748.777 341.398,735.957 331.027,739.309C326.555,740.734 324.965,746.512 324.641,752.875L443.277,756.27C446.711,750.734 450.668,743.863 453.281,739.25" style="fill:rgb(216,203,180);fill-rule:nonzero;"/>
        <path d="M443.969,683.984C443.879,683.742 443.832,683.512 443.785,683.285L368.68,754.129L409.379,755.293L453.789,701.316C453.281,700.535 452.719,699.785 452.164,698.992C448.305,693.699 445.457,688.023 443.969,683.984" style="fill:rgb(227,213,191);fill-rule:nonzero;"/>
        <path d="M438.703,588.027C438.703,588.027 439.637,586.023 441.41,583.895L309.23,664.363C313.137,668.965 321.758,669.52 332.789,662.879C347.082,654.316 364.313,631.402 364.313,631.402C364.313,631.402 366.77,642.141 363.332,647.539C359.934,652.922 352.488,665.145 361.789,669.898C366.031,672.074 371.379,673.57 375.988,674.918L453.375,612.438C449.977,604.391 444.949,592.25 438.703,588.027" style="fill:rgb(227,213,191);fill-rule:nonzero;"/>
        <path d="M475.723,566.012C475.309,565.273 474.883,564.527 474.375,563.813L450.113,578.543C450.438,580.27 453.559,595.461 468.188,597.465C469.535,597.648 470.699,597.648 471.805,597.555L480.137,590.824C482.34,584.402 480.426,574.539 475.723,566.012" style="fill:rgb(227,213,191);fill-rule:nonzero;"/>
        <path d="M438.703,588.027C438.75,588.027 437.871,586.633 436.156,585.563C434.426,584.492 432.664,584.492 432.695,584.586C432.695,584.633 434.148,585.242 435.727,586.207C437.355,587.188 438.668,588.117 438.703,588.027" style="fill:rgb(143,134,111);fill-rule:nonzero;"/>
        <path d="M413.426,641.313C407.465,645.996 401.184,648.457 395.871,649.77C396.574,654.363 399.547,668.965 407.664,671.891C416.641,675.148 434.945,656.746 439.082,645.109C438.195,645.168 437.215,645.168 436.234,645.109C420.883,644.832 413.426,641.313 413.426,641.313" style="fill:rgb(171,94,102);fill-rule:nonzero;"/>
        <path d="M413.426,641.313C407.465,645.996 401.184,648.457 395.871,649.77C396.102,651.395 396.668,654.281 397.645,657.48L416.352,642.324C414.406,641.773 413.426,641.313 413.426,641.313" style="fill:rgb(194,117,126);fill-rule:nonzero;"/>
        <path d="M401.324,625.914C401.461,622.793 410.117,620.434 416.031,619.641C421.91,618.848 425.207,621.031 425.066,622.332C424.836,624.703 418.129,633.68 414.957,633.727C411.801,633.82 401.184,629.398 401.324,625.914" style="fill:rgb(124,111,101);fill-rule:nonzero;"/>
        <path d="M412.262,659.988C412.262,659.988 408.445,655.719 405.555,656.363C402.672,657.066 401.266,660.359 401.266,660.359C401.266,660.359 402.152,662.926 397.082,668.402C391.965,673.938 391.121,686.586 402.535,687.23C413.945,687.84 415.801,674.352 419.523,667.055C422.691,660.828 420.18,658.035 417.852,657.527C415.523,656.977 412.262,659.988 412.262,659.988" style="fill:rgb(237,161,171);fill-rule:nonzero;"/>
        <path d="M456.543,635.395C454.539,634.613 452.766,634.98 452.809,635.074C452.766,635.164 454.309,635.867 456.027,636.559C456.27,636.66 456.488,636.707 456.672,636.789C456.223,638.191 453.984,641.727 448.211,643.258C441.32,645.352 431.027,644.891 420.316,642.75C418.969,642.418 417.668,642.094 416.352,641.68L414.496,641.07C413.945,641.023 414.543,640.656 413.012,640.84L412.215,641.438C410.164,642.969 408.078,644.328 405.934,645.441C401.738,647.676 397.648,649.023 394.109,649.816C388.195,651.117 384.047,651.012 382.836,651.012C383.215,650.508 383.676,649.953 384.137,649.391C386.234,646.789 387.828,644.465 387.723,644.418C387.676,644.328 385.301,645.902 383.113,648.598C380.875,651.301 380.184,654.18 380.324,654.234C380.367,654.234 381.348,652.879 382.789,651.07C383.906,651.254 388.102,651.578 394.246,650.508C397.879,649.863 402.117,648.598 406.441,646.422C408.629,645.352 410.82,644.004 412.965,642.418L413.52,642C413.715,642.094 414.035,642.141 414.082,642.23L415.984,642.887C417.285,643.301 418.637,643.672 420.043,643.957C430.98,646.191 441.41,646.375 448.441,643.902C454.262,642.141 456.406,638.332 456.773,636.848C458.125,637.398 458.871,638.191 459,638.238C459.195,638.332 458.723,636.098 456.543,635.395" style="fill:rgb(143,134,111);fill-rule:nonzero;"/>
        <path d="M424.883,682.305C420.641,687.094 415.156,687.184 415.199,686.953C414.832,687.426 421.148,688.348 425.758,683.238C430.23,678.586 433.309,674.688 433.586,674.918C433.309,674.41 429.16,677.793 424.883,682.305" style="fill:rgb(143,134,111);fill-rule:nonzero;"/>
        <path d="M395.547,620.48C395.688,623.219 394.199,625.5 392.297,625.59C390.387,625.684 388.703,623.496 388.563,620.805C388.473,618.063 389.914,615.738 391.871,615.68C393.773,615.602 395.457,617.73 395.547,620.48" style="fill:rgb(124,111,101);fill-rule:nonzero;"/>
        <path d="M433.398,612.391C434.563,614.945 434.102,617.684 432.281,618.523C430.508,619.363 428.098,617.973 426.887,615.453C425.723,612.898 426.184,610.156 428.008,609.316C429.77,608.488 432.191,609.871 433.398,612.391" style="fill:rgb(124,111,101);fill-rule:nonzero;"/>
        <path d="M436.387,429.781C431.914,423.973 425.539,423.832 419.109,426.617C414.879,428.438 411.523,431.785 406.961,432.938C402.027,434.25 398.582,433.039 394.523,430.289C389.637,427.043 384.703,424.672 378.699,425.848C374.316,426.711 374.641,431.105 378.086,432.809C379.676,433.594 381.027,431.637 380.414,430.254C380.414,430.289 385.117,430.762 385.773,430.945C387.906,431.508 389.773,433.223 391.551,434.523C395.262,437.25 398.949,438.945 403.652,438.805C408.723,438.609 412.965,436.41 417.102,433.742C423.34,429.738 428.27,428.23 435.176,431.52C436.234,432.016 436.984,430.602 436.387,429.781" style="fill:rgb(101,88,75);fill-rule:nonzero;"/>
        <path d="M402.441,443.121C400.633,443.145 399.504,444.008 398.293,445.32C397.082,446.699 395.316,448.816 396.055,450.738C396.344,451.441 397.266,451.648 397.879,451.371C399.227,450.797 399.746,448.98 400.48,447.816C400.863,447.16 401.371,446.563 401.844,445.988C402.199,445.539 402.535,445.008 402.902,444.652C403.469,444.191 403.227,443.074 402.441,443.121" style="fill:rgb(101,88,75);fill-rule:nonzero;"/>
        <path d="M407.973,444.098C407.145,443.754 406.211,444.238 405.934,445.031C405.598,445.871 406.07,446.805 406.867,447.102C406.961,447.137 407.051,447.219 406.578,446.953C406.395,446.516 406.164,446.055 405.98,445.629L405.98,446.977C405.98,447.496 405.887,448.094 406.027,448.609C406.211,449.211 406.578,449.703 407.281,449.773C407.895,449.82 408.539,449.449 408.723,448.863C409.047,447.945 408.859,446.852 408.859,445.895C408.586,446.285 408.309,446.699 408.031,447.082L408.125,447.059C408.953,446.699 409.23,445.652 408.859,444.895C408.492,444.078 407.559,443.824 406.73,444.145C405.324,444.699 405.508,446.746 406.867,447.242C407.707,447.563 408.676,447.102 409.012,446.238C409.324,445.379 408.859,444.434 407.973,444.098" style="fill:rgb(101,88,75);fill-rule:nonzero;"/>
        <path d="M562.273,594.633C560.832,586.117 527.164,587.188 515.246,599.051C508.828,605.508 516.363,633.773 512.363,637.777C508.355,641.773 480.105,678.727 476.184,678.727C472.324,678.727 466.93,670.727 459.75,670.727C452.578,670.727 440.66,672.363 440.66,675.191C440.66,678.035 453.836,683.098 457.191,686.449C460.59,689.832 445.977,691.223 436.098,695.414C426.277,699.648 422.785,710.25 425.723,711.457C428.652,712.617 437.539,706.383 443.691,706.383C443.691,706.383 428.051,719.41 429.16,723.91C430.277,728.375 438.059,724.84 438.059,724.84C438.059,724.84 435.543,728.328 438.059,730.836C440.523,733.313 444.293,731.676 448.027,729.305C448.027,729.305 444.477,733.91 447,736.418C449.516,738.973 457.605,734.75 466.504,728.801C475.355,722.793 493.461,714.898 499.605,708.762C499.605,708.762 544.211,688.023 555.945,666.41C565.074,649.574 568.094,628.098 562.273,594.633" style="fill:rgb(213,117,69);fill-rule:nonzero;"/>
        <path d="M287.574,603.598C292.473,606.105 295.309,609.594 294.004,621.781C294.004,621.781 310.211,628.145 312.25,630.195C312.25,630.195 319.051,621.125 324.121,621.125C329.203,621.125 344.891,618.938 344.891,620.434C344.891,621.965 342.746,626.145 338.23,628.008C333.723,629.906 332.316,635.867 332.316,635.867C332.316,635.867 343.266,637.352 347.406,637.352C351.555,637.352 367.656,645.258 368.406,648.84C369.152,652.371 365.617,653.305 359.98,651.809C359.98,651.809 369.57,654.234 369.57,659.105C369.57,663.996 358.863,661.152 358.863,661.152C358.863,661.152 367.473,664.41 364.484,669.609C362.398,673.145 350.805,669.809 350.805,669.809C350.805,669.809 356.258,672.039 354.16,676.172C352.105,680.258 338.75,674.641 333.02,674.582C327.336,674.535 319.707,674.215 312.492,672.223C305.277,670.266 260.438,675.148 243.352,662.543C226.262,649.953 233.945,613.969 235.297,605.277C236.641,596.578 271.793,595.461 287.574,603.598" style="fill:rgb(213,117,69);fill-rule:nonzero;"/>
        <path d="M498.949,379.676C500.953,375.832 500.066,370.445 499.512,366.324C499.043,363.215 498.348,360.191 497.324,357.211C496.539,354.93 494.258,352.078 494.016,349.684C493.738,346.059 487.828,350.707 492.207,351.66C492.438,351.707 492.668,351.871 492.852,352.098L495.559,363.539C495.605,364.332 495.699,364.93 495.746,365.367C495.18,365.574 494.719,366 494.672,366.691C494.34,371.133 494.395,375.152 495.789,379.434C496.207,380.641 498.305,380.824 498.949,379.676" style="fill:white;fill-rule:nonzero;"/>
        <path d="M500.539,404.891C500.863,403.934 501.277,403.004 501.094,401.988C500.91,400.723 499.191,400.332 498.488,401.379C497.797,402.438 497.324,404.141 497.141,405.395C496.863,407.055 498.063,408.309 499.375,409.078C500.586,409.746 501.844,408.93 501.75,407.582C501.656,406.594 501.242,405.613 500.539,404.891" style="fill:white;fill-rule:nonzero;"/>
        <path d="M305.508,366.418C306.117,363.977 306.578,360.375 305.414,357.91C305.969,356.656 306.625,355.539 307.18,354.664C307.973,353.492 306.383,351.871 305.324,352.941C301.969,356.52 299.688,362.906 302.66,367.324C303.594,368.648 305.277,367.602 305.508,366.418" style="fill:white;fill-rule:nonzero;"/>
        <path d="M304.664,451.027C304.527,450.914 304.391,450.844 304.297,450.797C303.836,449.68 303.457,448.586 303.133,447.496L300.516,434.156C299.965,429.344 299.504,424.453 298.57,419.504C298.34,418.434 296.746,418.723 296.898,419.793C297.91,426.984 297.59,434.316 298.477,441.543C299.074,446.699 301.035,451.441 303.133,456.16C306.809,464.629 312.25,474.898 321.285,478.625C322.449,479.109 324.086,477.945 323.707,476.621C320.824,467.023 311.422,458.094 304.664,451.027" style="fill:white;fill-rule:nonzero;"/>
        <path d="M383.676,504.348C382.883,504.023 382.039,504.727 381.902,505.465L375.48,504.887C373.949,504.531 372.555,504.094 371.195,503.52C370.168,503 369.293,504.68 370.273,505.281C376.602,509.227 387.906,508.109 391.078,515.926C391.594,517.18 393.691,517.457 394.34,516.199C398.582,508.422 389.164,506.535 383.676,504.348" style="fill:white;fill-rule:nonzero;"/>
        <path d="M438.148,505.75C432.742,503.887 428.512,504.969 424.789,507.422C420.594,507.926 416.352,508.766 412.125,508.836C411.098,508.859 410.211,509.41 410.117,510.48C409.84,514.348 410.59,517.836 411.281,521.621C411.523,522.898 413.195,523.637 414.223,522.668C418.082,518.977 421.02,514.809 424.605,511.793C426.934,511.367 429.113,510.723 431.07,509.641C431.625,509.332 431.867,508.676 431.809,508.066L432.984,507.813C434.426,507.605 435.969,507.559 437.734,507.695C438.852,507.836 439.223,506.141 438.148,505.75" style="fill:white;fill-rule:nonzero;"/>
        <path d="M409.563,533.867C409.75,534.73 409.887,535.547 410.027,536.375C409.75,536.559 409.52,536.766 409.379,537.078C407.848,540.117 409.379,544.008 411.145,546.605C411.984,547.793 414.266,547.125 414.223,545.629C414.176,541.324 413.289,537.168 411.938,533.129C411.477,531.773 409.277,532.52 409.563,533.867" style="fill:white;fill-rule:nonzero;"/>
    </g>
</svg>
