<?xml version="1.0" encoding="UTF-8" standalone="no"?>
<!DOCTYPE svg PUBLIC "-//W3C//DTD SVG 1.1//EN" "http://www.w3.org/Graphics/SVG/1.1/DTD/svg11.dtd">
<svg width="100%" height="100%" viewBox="0 0 810 810" version="1.1" xmlns="http://www.w3.org/2000/svg" xmlns:xlink="http://www.w3.org/1999/xlink" xml:space="preserve" xmlns:serif="http://www.serif.com/" style="fill-rule:evenodd;clip-rule:evenodd;stroke-linejoin:round;stroke-miterlimit:2;">
    <g id="surface1">
        <g>
            <path d="M291.531,163.391C290.938,163.207 290.082,163.031 289.621,163.008C287.902,162.914 288.07,164.836 287.59,166.027C287.453,166.363 287.34,166.582 287.082,166.84C286.418,167.504 285.871,168.195 285.453,169.035C284.246,170.043 282.512,169.695 281.363,168.723C280.512,167.996 279.711,167.707 278.605,167.586C276.563,167.359 275.211,168.711 276.012,170.82C277.168,173.859 275.563,176.625 275.141,179.598C275.008,180.516 274.758,181.344 274.348,182.168L274.238,182.563C273.879,183.859 272.621,184.41 271.371,184.461C268.793,184.57 267.93,185.625 266.191,187.41C263.852,188.313 262.414,191.074 261.691,193.32C261.297,194.539 260.375,194.828 259.297,195.199C258.473,195.547 257.996,195.93 257.359,196.566C256.793,196.664 256.277,197.219 256.105,197.781C255.859,198.578 254.73,199.371 254.152,199.969C253.836,200.383 253.547,200.809 253.313,201.277C252.996,201.914 251.965,203.059 251.133,202.324C250.563,201.816 250.297,200.922 250.051,200.203C248.645,199.031 247.352,199.391 246.051,200.5C245.031,201.367 245.117,203.348 245.57,204.441C246.098,205.715 245.742,206.715 245.098,207.84C244.816,208.434 244.684,209.008 244.684,209.684C244.684,213.094 240.328,215.77 237.219,215.77C235.301,215.77 235.168,214.422 235.297,212.781C235.402,211.41 235.313,210.355 234.375,209.422C233.434,208.477 232.234,208.063 231.055,207.484C229.078,206.688 227.316,207.266 225.281,207.266C223.332,207.266 222.43,208.887 221.848,210.52C221.414,211.746 220.277,211.867 219.148,211.398C218.34,210.535 217.391,210.234 216.16,210.234C214.785,210.234 213.965,209.754 212.902,209.008C212.262,208.563 211.223,208.453 210.445,208.453C208.973,208.453 207.957,208.832 206.891,209.797C205.191,211.336 205.867,214.16 207.086,215.75C207.551,216.391 207.703,217.145 208.004,217.867C208.465,218.98 208.934,219.695 209.801,220.551C211.176,221.906 212.051,223.926 212.051,225.879C212.051,226.801 211.66,228.238 210.434,227.934C209.75,227.762 208.832,228.105 208.293,228.52C206.508,229.883 206.117,231.059 206.117,233.297C206.117,234.938 206.281,236.418 207.574,237.488C209.059,238.719 210.121,240.285 209.566,242.297C209.164,243.758 207.219,244.152 205.965,243.641C204.691,243.121 203.625,241.871 202.555,240.988C201.918,240.461 201.383,239.93 201.008,239.176C200.129,237.422 197.824,237.688 196.172,237.836C194.469,237.988 193.512,237.066 192.309,236.035C191.52,235.359 191.367,234.203 191.18,233.219C190.754,230.977 189.664,229.828 187.93,228.539C187.285,228.059 186.668,227.547 186.051,227.031C184.816,226.008 183.078,226.137 181.59,226.469C181.055,226.59 180.523,226.613 180.41,226.527C179.648,225.926 180.855,224.363 181.086,223.801C181.445,222.938 181.938,221.57 181.363,220.688C180.785,219.789 179.938,219.383 179,218.934C177.996,218.648 177.137,219.52 177.043,220.52C176.965,221.328 175.473,222.227 174.828,222.504C173.094,223.258 172.395,221.719 171.738,220.363L171.414,220.125C171.234,219.996 170.914,219.934 170.703,219.984C169.164,220.363 170.602,222.344 170.813,223.09C170.93,223.496 171.078,223.883 171.23,224.277C171.563,225.152 172.074,225.563 172.91,225.879C173.316,226.285 173.723,226.68 174.156,227.055C174.734,227.547 175.516,227.672 176.23,227.836C176.656,228.387 176.352,229.145 176.152,229.734C175.66,231.219 176.035,232.781 176.738,234.16C177.102,234.875 177.652,235.191 178.258,235.719C179.359,236.676 178.668,239.355 178.219,240.418C177.953,241.047 177.668,241.637 177.23,242.176C175.945,243.754 176.488,245.762 178.426,246.418C179.25,246.695 179.98,247.016 180.563,247.668C182.059,249.352 180.871,252.125 180.711,254.043C180.539,256.133 179.73,256.977 178.211,258.117C177.449,258.703 176.621,258.855 175.738,258.484C174.516,257.969 173.496,256.73 173.066,255.508C171.371,253.469 168.492,250.891 165.75,252.262C164.633,252.82 163.398,253.07 162.191,253.352L161.734,253.535C159.824,254.305 159.793,257.277 160.605,258.855C160.895,259.414 161.762,260.035 162.309,260.313C162.77,260.547 162.543,261.309 162.141,261.484C160.617,262.145 160.039,260.328 159.457,259.313C157.93,258.203 156.391,260.238 155.02,260.855C154.281,261.191 153.699,261.664 153.133,262.23C152.5,262.289 152.195,262.773 151.75,263.219C150.863,263.547 150.184,263.602 149.219,263.336C148.328,263.094 147.363,263.02 146.711,263.801C146.16,264.461 146.07,265.93 146.27,266.734C146.594,268.051 146.02,269.59 144.984,270.383C144.016,271.121 143.188,271.336 141.961,271.434C139.965,271.598 139.852,273.324 140.258,274.91C140.371,275.355 140.48,275.801 140.57,276.25C140.859,277.68 139.508,277.746 138.605,278.328C136.895,279.438 139.426,280.848 140.145,281.441C141.582,282.637 143.605,283.105 145.387,282.609C146.594,282.277 148.367,283.43 148.367,284.77C148.367,286.031 146.066,285.547 145.344,285.48C143.164,285.285 141.945,286.762 141.047,288.559C140.816,289.012 140.57,289.441 140.246,289.844C139.984,290.168 139.809,290.445 139.652,290.832C139.023,292.391 137.551,292.977 136.133,293.684C135.148,295.039 135.195,296.141 135.707,297.676C136.277,298.914 136.699,300.207 137.082,301.512C137.352,302.43 137.684,303.34 138.289,304.082C139.684,305.797 139.547,308.09 140.059,310.137C140.469,311.773 139.355,312.797 137.871,313.184C137.242,313.348 136.117,314.066 136.949,314.805C137.246,315.07 137.523,315.168 137.902,315.293C138.969,315.652 138.754,317.395 138.496,318.281C138.379,318.699 138.094,319.406 137.863,319.855C137.32,320.934 136.531,320.813 135.48,320.488C134.578,320.211 134.285,320.211 132.414,320.488C131.277,320.66 129.813,320.797 129.16,320.797C127.98,320.797 126.809,320.652 125.82,320.004C125.199,319.602 124.52,319.313 123.844,319.016C122.641,318.398 121.555,317.406 120.988,316.168C120.266,314.59 118.934,314.094 117.512,313.281C116.785,312.801 116.043,312.359 115.262,311.973C114.48,311.586 113.676,311.32 113.457,312.41C113.164,313.887 114.082,314.809 114.938,315.797C115.445,316.871 115.973,317.934 116.504,318.996C117.121,320.438 116.816,321.707 116.199,323.074C115.676,324.246 116.398,324.688 117.41,325.195C118.656,325.82 119.32,326.953 119.887,328.176C119.887,329.41 119.348,330.035 118.523,330.863C118.367,331.359 118.117,331.586 117.73,331.961C117.328,332.352 117.02,332.898 116.902,333.434C116.695,334.375 116.277,334.504 115.402,334.246C113.238,333.613 111,334.633 108.863,334.953C107.543,335.152 106.453,334.344 105.488,333.566C104.027,332.395 101.074,332.188 99.613,333.43C99.219,333.766 99.09,333.848 98.832,333.941C97.809,334.305 96.891,335.074 96.781,336.227C96.602,338.141 98.566,340.238 99.781,341.488C101.098,342.852 101.68,344.363 102.004,346.184C102.18,347.176 101.637,348.199 101.273,349.102C100.746,350.219 101.176,351.262 102.047,352.113C102.801,352.852 103.273,353.594 103.273,354.668C103.273,356.395 103.996,356.809 105.738,357.004C107.281,357.176 107.676,357.66 108.328,359C108.984,360.359 109.023,361.66 108.781,363.133C108.391,365.465 109.461,366.664 111.219,368.008C112.277,368.816 113.813,368.258 114.922,367.891C116.75,368.133 116.895,369.977 117.664,371.441C118.316,372.691 118.57,373.66 118.305,375.043C118.105,376.086 118.227,377.047 118.887,377.859C119.27,378.328 119.504,378.777 119.738,379.324C120.656,380.137 121.563,380.309 122.773,380.527C123.371,380.637 124.074,380.902 124.336,381.113C124.645,381.363 124.852,381.504 124.93,381.52C125.414,381.602 126.035,382.523 126.332,382.914C127.117,383.934 127.598,385.594 127.598,386.844C127.598,388.434 125.648,388.809 124.73,389.727C124.176,390.285 123.563,390.582 122.93,391.023C121.348,392.137 121.469,393.922 121.469,395.68C121.469,396.871 120.914,397.879 120.379,398.941C120,399.707 119.637,400.617 119.574,400.969C119.324,402.387 120.426,403.59 120.875,404.855C121.359,405.566 122.113,405.844 122.965,406C124.531,406.285 124.355,404.316 124.059,403.398C123.59,401.938 123.563,400.852 124.238,399.496C124.777,397.539 126.598,396.848 128.387,396.281L129.254,397.117C130.113,397.945 131.844,398.676 132.75,397.43C133.262,396.723 133.336,395.875 133.336,395.047C133.336,393.895 133.801,392.234 135.277,392.973C136.375,393.523 136.844,395.18 137.273,396.23C137.563,396.934 138.047,397.133 138.77,397.426C139.996,397.926 140.172,398.668 140.453,399.891C140.98,400.797 141.316,400.992 142.441,401.043C143.188,401.074 143.98,401.188 144.207,401.289C145.969,402.109 143.941,404.035 143.309,404.863C142.262,406.223 143.516,408.367 143.996,409.781C144.324,410.93 144.988,411.637 145.699,412.559C146.254,413.277 146.102,413.953 145.695,414.777C145.121,415.945 144.961,417.316 146.043,418.219C146.68,418.75 147.344,419.281 148.09,419.652C149.047,420.129 149.488,421.121 149.926,422.043C149.988,422.676 150.473,422.984 150.918,423.43C151.02,424.016 151.703,424.598 152.066,425.07C152.566,425.73 152.539,426.832 152.727,427.621C153.047,428.969 153.617,429.785 154.66,430.676C154.957,430.934 155.098,431.133 155.262,431.488C155.633,432.289 156.227,433.688 156.016,434.551C155.848,435.223 155.086,434.828 154.723,434.645C153.973,434.262 153.457,433.668 153.129,432.891C152.688,431.836 151.293,430.379 150,431.371C147.348,433.41 147.426,437.406 149.059,440.063C149.652,441.031 149.848,441.59 149.906,442.703C150.004,444.504 150.648,446.012 151.066,447.727C151.227,448.387 150.777,448.797 150.18,448.973C149.824,449.078 148.586,449.16 147.43,449.16C146.262,449.16 145.207,449.07 145.055,448.953C144.547,448.559 144.125,448.074 143.719,447.578C143.25,447.012 143.238,446.996 142.535,446.258C141.547,445.219 139.488,444.934 139.316,446.738C139.25,447.453 139.406,448.051 139.684,448.688C139.922,449.504 140.086,450.313 140.156,451.16C140.367,453.691 142.199,455.309 144.758,454.793C146.477,454.445 146.918,455.719 146.492,457.098C145.551,460.16 147.543,462.914 148.832,465.574C149.098,467.449 147.891,468.371 146.871,469.742C145.859,471.105 145.313,472.637 144.828,474.262C144.352,475.797 142.961,476.797 142.016,478.059C140.91,479.504 140.574,481.152 140.258,482.906C139.949,484.594 139.887,486.262 140.852,487.73C141.574,488.836 141.914,489.953 142.059,491.27C142.195,492.523 142.543,493.672 143.004,494.832C143.098,496.664 143.762,498.766 145.137,500.031C146.641,501.418 149.375,502.023 151.375,501.664C152.184,501.52 153.496,501.859 152.813,502.895C151.105,505.469 155.344,506.148 156.984,506.457C157.773,506.605 158.5,506.738 159.238,507.039C159.887,507.305 160.555,507.43 161.242,507.527C163.395,508.301 164.324,506.328 165.809,505.195C167.113,504.199 169.223,504.445 170.484,505.422C171.672,506.34 171.75,508.133 171.902,509.508C172.609,510.887 173.871,510.461 174.836,509.598C175.441,509.047 176.035,508.734 176.867,508.598C178.469,508.332 179.652,510.266 180.625,511.289C181.129,511.949 181.402,512.672 181.621,513.48C181.887,514.473 182.227,515.426 182.617,516.371C182.832,517.238 182.977,517.984 182.977,518.879C182.977,520.137 182.324,520.961 181.055,520.961C179.758,520.961 178.832,519.832 177.855,519.102C176.422,518.027 175.453,516.871 174.973,515.16C174.688,514.145 174.035,512.945 172.816,513.418C172.117,513.691 171.75,514.43 171.309,515.023C170.793,515.758 170.113,516.078 169.309,516.43C168.902,516.84 168.484,517.238 168.059,517.625C165.707,519.785 167.184,522.324 169.133,524.023C170.477,525.195 171.715,526.492 172.945,527.777C173.512,528.371 174.367,529.199 175.285,528.969C176.207,528.738 177.645,528.902 178.566,529.176C179.711,529.516 180.457,528.375 180.875,527.539C181.586,526.117 182.961,527.121 183.945,527.664C184.98,528.156 186.141,528.184 187.258,527.902C188.723,527.535 189.391,528.773 189.504,530.078C189.93,530.781 190.359,531.27 191.184,531.551C192.5,532.004 192.84,533.309 193.063,534.527C193.195,535.27 193.441,535.91 193.828,536.543C193.688,537.055 192.266,536.02 191.977,535.785C191.117,535.086 189.871,534.82 188.801,534.727C187.328,534.594 187.066,532.684 187.43,531.469C187.824,530.156 186.336,529.848 185.504,529.453C183.855,528.676 181.855,529.426 181.645,531.32C181.41,533.395 183.215,534.879 184.48,536.234C184.641,536.547 184.797,536.863 184.953,537.176C185.188,537.633 185.43,538.063 185.754,538.465C186.855,539.816 185.68,540.887 184.363,541.137C181.844,541.617 179.98,540.484 178.207,538.938C177.238,538.133 176.25,537.508 174.934,537.402C173.152,537.266 172.172,538.484 171.063,539.66C170.313,540.461 169.629,541.336 170.18,542.438C170.656,543.391 171.836,544.48 172.93,544.633C174.84,544.898 175.516,545.977 176.227,547.723C176.539,548.484 177.195,548.84 177.941,549.188C179.609,549.961 180.781,549.223 182.43,548.926C183.566,548.723 183.852,549.23 184.633,549.863C185.613,550.652 184.613,552.148 184.559,553.168C184.465,554.871 186.602,554.605 187.523,553.902C188.711,552.996 188.406,551.949 187.891,550.684C187.465,549.207 187.539,547.949 187.742,546.453C188.109,545.691 188.344,544.945 188.414,544.094C188.5,543.117 188.586,542.898 188.922,542.816C189.867,542.582 191.344,543.383 192.25,543.684L193.527,543.988C194.797,544.289 195.281,544.781 195.832,545.879C196.07,546.203 196.168,546.305 196.574,546.406C197.422,546.613 197.508,545.883 197.719,545.25C197.973,544.5 198.613,543.828 199.066,544.871C199.609,546.125 199.867,549.141 197.641,548.371C196.676,548.035 196.035,549.574 195.922,550.23C195.754,551.16 195.461,552.227 194.668,552.805C193.262,552.805 192.34,551.914 191.105,551.383C189.832,551.066 187.98,552.516 189.492,553.672C190.328,554.313 190.688,554.961 190.688,556.066C190.688,558.328 192.27,559.402 193.535,561.09C194.602,562.508 196.145,563.918 198.066,563.297C199.035,562.988 199.82,561.934 200.211,561.023C200.633,560.055 199.41,559.125 198.844,558.52C197.938,557.551 197.684,556.727 198.004,555.441C198.344,554.09 199.074,552.16 200.129,551.223C202.27,551.223 202.598,553.238 203.84,554.484C204.637,555.281 204.93,556.063 204.93,557.191C204.93,558.48 203.848,558.91 202.777,559.234C202.188,559.414 200.652,560.09 201.219,560.969C202.02,562.207 203.738,562.988 204.91,563.859C205.516,564.27 206.105,564.707 206.684,565.16C208.02,566.215 209.73,566.48 211.277,565.836C212.449,564.887 215.035,564.293 215.832,566.133C216.445,567.539 215.547,568.813 215.313,570.227C215.086,571.594 215.953,572.824 216.578,573.945C217.422,575.902 214.426,575.781 213.215,575.855C212.266,575.914 211.34,575.98 210.402,576.137C208.809,576.402 207.109,578.609 206.426,580.086C205.676,581.695 204.844,583.609 205.504,585.359C205.922,586.473 206.281,587.543 206.414,588.723C206.598,590.391 207.105,591.363 208.238,592.543C209.574,593.941 211.945,594.867 213.848,595.148C215.746,595.871 217.184,594.738 218.477,593.449C219.52,592.406 219.793,591.273 220.473,590.016C221.734,587.691 221.938,584.508 221.938,581.957C221.938,581.301 222.082,580.309 222.977,580.723C223.508,580.965 223.953,581.316 224.41,581.68C225.121,582.242 225.777,582.594 226.66,582.891C228.465,583.492 229.504,585.141 230.309,586.754C231.195,588.531 232.359,588.801 234.219,588.801C235.598,589.145 236.688,589.68 237.938,590.363C240.453,591.586 243.137,591.488 245.891,591.57C246.652,591.57 247.629,591.73 248.023,592.516C248.57,593.613 250.09,595.301 251.293,595.453C253.211,595.699 254.734,596.137 256.172,597.414C258.848,599.793 261.715,601.148 265.328,601.359C266.266,601.414 267.164,601.52 268.039,601.855L268.512,602.242C268.863,602.523 269.219,602.746 269.609,602.953C270.461,603.398 271.051,604.48 271.691,605.195C273.313,605.594 274.055,604.52 274.254,603.035C274.516,601.133 276.668,601.977 277.887,602.449C280.063,603.148 281.754,602.031 283.859,601.656C284.926,600.91 285.531,600.16 285.996,598.906C286.793,596.918 289.91,594.477 291.871,596.434C293.043,597.609 294.578,598.496 295.906,599.48C296.301,599.754 296.664,599.93 297.113,600.094C298.145,601.129 299.336,602.004 300.453,602.941C301.797,604.07 302.992,605.383 304.23,606.621C305.77,607.855 307.266,609.129 308.727,610.453C310.445,612.016 312.801,612.141 315.012,612.141C317.02,612.141 317.836,611.48 319.043,610.063C320.711,608.109 322.703,606.449 324.672,604.813C325.691,603.965 326.691,604.945 325.898,605.984C325.582,606.395 325.27,606.805 324.957,607.215C323.047,609.707 323.703,612.191 324.785,614.832C325.516,616.605 327.52,615.313 328.387,614.531C329.758,613.301 331.832,612.875 333.566,613.559C335.059,614.84 335.637,617.41 336.477,619.203C337.922,620.543 339.906,620.922 341.809,620.445C342.762,620.211 343.563,620.535 344.402,620.941C345.973,621.699 347.965,620.758 349.594,620.594C351.941,620.363 353.781,619.617 355.613,618.172C357.328,616.816 358.512,618.074 360.402,618.074C360.938,618.074 361.363,617.629 361.742,617.301C363.656,616.699 364.703,618.094 366.156,619.199C367.75,620.418 370.547,619.457 372.266,618.855C372.926,618.625 373.695,618.34 374.016,617.703C374.473,616.781 375.52,615.699 376.531,615.566C378.234,615.34 379.184,616.68 380.57,617.285C381.348,617.621 382.141,617.484 382.945,617.281C384.422,616.914 385.672,617.961 386.934,618.574C387.59,618.895 388.219,618.781 388.641,618.199C389.305,617.285 389.402,615.695 389.672,614.602C390.148,613.867 390.813,612.93 391.781,612.93C393.699,612.93 392.098,614.789 391.906,615.559C391.668,616.531 392.508,617.098 393.133,617.652C394.801,618.465 396.441,618.824 398.273,618.965C400.328,619.121 400.977,620.426 402.289,621.879C402.613,622.242 402.938,622.738 403,622.988C403.172,623.637 403.563,624.234 403.891,624.816L404.074,625.281C405.094,627.797 408.945,628.168 411.227,628.754C411.477,628.945 411.727,629.137 411.977,629.328C412.285,629.535 412.59,629.742 412.898,629.949C413.121,630.102 413.336,630.262 413.551,630.426C413.742,630.57 414.055,630.75 414.242,630.82C415.809,631.406 415.883,632.918 416.141,634.352L416.379,634.719C417.371,636.25 419.137,635.59 420.672,635.973C422.039,636.309 421.855,638.074 421.773,639.156C421.574,641.711 422.207,643.723 423.457,645.934C425.414,647.359 427.262,646.504 429.445,646.363C431.473,646.23 431.809,648.668 431.973,650.137C432.797,651.742 434.641,651.031 435.57,649.91C435.914,648.754 435.953,647.629 435.426,646.535C434.66,644.957 435.43,642.238 436.621,640.934C437.832,639.598 438.012,638.48 437.215,636.82C436.43,635.199 437.969,634.359 439.293,633.699C440.434,633 441.297,632.129 441.863,630.91C442.238,629.73 442.684,628.809 443.59,627.91C444.855,626.66 445.254,625.156 443.953,623.754C443.508,623.273 443.086,622.777 442.66,622.281C441.949,620.656 442.41,619.121 443.055,617.559C443.684,616.027 445.59,616.895 446.629,617.281C447.453,617.629 447.93,618.012 448.566,618.648C448.902,618.703 449.137,618.977 449.387,619.191C450.004,619.727 450.777,619.973 451.531,620.23C452.883,620.293 454.461,619.559 455.52,618.746C457.148,617.488 458.328,615.457 458.891,613.504C460.277,612.117 461.434,610.559 462.605,608.996C463.617,608.414 464.398,607.398 465.219,606.582L465.695,606.207C465.953,606 466.359,605.664 466.598,605.461C467.547,604.637 466.949,603.434 466.582,602.469C466.156,601.07 467.695,599.852 468.273,598.672C468.945,597.289 469.996,596.984 471.449,597.305C472.563,597.555 473.699,597.555 474.813,597.305C476.375,596.957 477.992,597.098 479.559,597.305C481.156,597.52 482.461,597.383 483.77,596.516C484.848,596.039 485.262,594.457 485.566,593.422C486.066,591.727 485.281,589.961 484.977,588.285C484.813,587.391 484.57,586.555 484.293,585.691C484.172,584.707 484.457,583.945 484.691,582.988C484.926,582.031 483.863,580.695 483.488,579.832C482.934,578.543 484.352,579.066 484.879,579.496C485.195,579.754 485.496,579.93 485.879,580.055C486.098,580.328 486.316,580.598 486.539,580.871C486.617,582.105 487.676,582.938 488.438,583.855C489.906,585.633 491.648,586.742 494.023,586.793C496.008,586.832 497.902,587.418 499.828,587.82C500.375,587.938 500.996,588.113 501.215,588.219C501.434,588.32 502.148,588.355 502.809,588.297C503.949,588.191 504.797,588.539 505.844,588.852C508.242,589.574 511.391,590.223 513.852,589.594C515.75,589.105 517.707,589.285 519.59,589.805C520.762,590.129 521.855,589.398 522.965,589.102C523.82,588.875 524.594,590.055 525.102,590.563C526.488,591.531 528.129,591.266 529.711,591.559C530.262,591.66 530.848,591.676 531.012,591.594C531.598,591.301 530.922,590.301 530.66,590.016C530.293,589.625 529.934,589.227 529.57,588.832C528.754,587.93 527.574,586.066 528.879,585.117C530.223,584.141 532.848,584.832 534.125,585.734C536.273,587.254 539.262,587.387 541.816,587.406C544.023,587.426 546.672,588.199 548.242,589.77L548.539,589.879C548.809,589.977 549.074,590.039 549.352,590.098C549.852,590.203 550.199,590.41 550.637,590.68C551.363,591.125 552.039,591.328 552.852,591.551L553.141,591.77C553.93,592.371 554.352,593.172 554.852,593.996C555.246,594.645 556.258,595.031 556.914,594.527C557.887,593.781 558.199,592.691 558.418,591.508C558.629,590.348 560.461,590.078 561.418,589.801C562.191,589.574 562.723,589.059 563.371,588.625C564.691,587.746 566.867,588.125 568.258,588.406C570.258,588.406 571.945,587.848 573.797,587.199C574.828,586.098 576.281,585.77 577.734,586.328C579.023,586.824 580.551,586.836 581.906,586.723C583.059,586.629 584.18,586.816 585.309,587.016C586.375,587.633 587.027,588.602 587.895,589.473C589.059,590.633 590.754,590.277 592.191,589.988C592.852,589.988 593.422,590.043 594.07,590.188C596.406,590.703 598.605,590.117 600.891,589.891C601.73,589.805 602.48,589.621 603.289,589.395C604.023,589.395 604.582,589.492 605.293,589.711C606.457,590.07 607.93,590.461 609.094,589.922C610.539,589.254 610.367,587.422 610.367,586.09C610.367,583.121 611.477,580.129 612.879,577.512C613.688,575.992 612.359,575.223 611.344,574.441C609.754,573.223 607.574,573.285 605.691,572.977C604.395,572.766 603.887,572.234 603.027,571.375C602.012,570.602 600.871,570.254 599.645,569.902C598.082,569.457 597.195,567.203 596.551,565.914L596.203,565.625C595.086,564.695 594.02,565.707 593.086,566.414C592.25,567.055 590.637,567.039 589.996,566.152C588.848,564.582 591.598,564.008 592.641,563.867C594.359,563.629 595.078,563.168 596.047,561.883C596.484,561.301 596.926,560.719 597.422,560.184C598.555,558.953 600.539,560.441 601.641,560.992C602.234,561.285 602.828,561.543 603.465,561.723C603.934,562.195 604.41,562.648 604.898,563.094C606.332,564.387 608.227,564.297 609.773,563.285C610.992,562.488 612.355,562.262 613.797,562.676C614.668,562.93 615.445,563.488 616.172,564.043C616.73,564.469 617.883,564.629 618.551,564.379C620.293,563.738 621.363,561.582 622.605,560.34C622.855,560.094 623.152,559.902 623.438,559.707C625.199,558.355 627.383,558.262 629.52,557.961C629.867,557.816 630.211,557.672 630.559,557.531L632.535,555.551C633.66,554.109 633.762,552.566 633.301,550.848C632.977,550.477 632.637,550.086 632.418,549.645C632.156,549.117 633.148,549.328 633.574,549.305C635.133,549.23 636.316,548.949 637.281,547.738C637.57,547.379 637.859,547.027 638.152,546.672C638.684,546.031 639.281,545.313 640.082,545.008C640.367,544.902 640.551,544.785 640.922,544.488C641.945,543.652 643.172,543.379 644.469,543.281C645.469,543.527 646.617,543.402 647.449,542.727C647.758,542.477 647.961,542.336 648.043,542.32C648.406,542.258 648.82,541.777 649.105,541.551C650.934,540.313 652.406,538.66 653.914,537.059L654.301,536.91C655.406,536.484 656.445,535.242 656.445,534.039C656.445,532.137 654.117,531.805 652.738,531.641C651.828,531.531 650.516,531.227 649.82,530.957C648.348,530.395 647.199,530.254 645.645,530.254C644.723,530.254 643.598,530.168 643.152,530.063C642.707,529.953 642.137,529.691 641.887,529.477C639.973,527.836 637.34,527.477 634.93,527.867C633.332,528.129 632.129,527.875 630.691,527.289C629.457,527.289 628.387,527.711 627.211,528.078C626.277,528.078 625.496,527.805 624.641,527.449C623.297,527.281 621.984,527.02 620.727,526.488C620.219,526.273 619.879,525.918 619.449,525.586C617.695,524.242 616.164,525.445 614.301,526.004C612.461,526.555 611.5,526.074 609.844,525.203C608.684,524.59 608.387,524.52 606.977,524.52C605.879,524.52 604.824,524.52 604.035,523.727C603.516,523.207 602.984,522.906 602.336,522.582C601.492,521.613 600.613,520.703 599.707,519.793L599.496,519.496C599.082,518.906 598.797,518.207 598.523,517.539C597.98,516.203 596.297,516.109 595.023,516.336C593.906,516.535 593.484,515.57 593.301,514.617C593.098,513.586 593.047,512.586 593,511.539C592.953,510.438 592.969,509.34 593.035,509.105C593.301,508.188 592.777,506.867 592.586,505.945C592.563,503.832 592.633,501.535 593.668,499.633C594.191,498.672 594.137,497.672 594.035,496.602C593.863,494.77 594.473,493.578 595.156,491.996C595.438,491.344 595.172,490.758 594.902,490.164C594.32,488.883 594.145,487.207 594.543,485.859C594.895,484.66 596.77,483.391 597.844,484.414C598.922,485.441 598.563,487.383 597.719,488.422C597.465,488.73 597.324,488.938 597.313,489.016C597.301,489.082 597.16,489.309 597,489.516C596.441,490.246 595.723,491.43 596.625,492.086C598.098,493.156 599.047,491.063 600.238,490.512C600.961,490.18 601.723,489.961 602.473,489.707C603.871,488.996 604.387,488.094 605.223,486.84C605.82,485.941 607.527,487.281 608.133,487.582C610.496,488.016 611.816,485.93 612.047,483.855C612.25,482.023 613.523,481.059 614.734,479.801C615.367,478.988 615.703,478.039 615.926,477.047C616.156,476.02 616.543,475.27 617.707,475.27C619.324,475.27 619.48,476.688 619.352,477.992C619.207,479.484 620.066,481.355 621.898,480.613C623.48,479.977 624.129,479.02 624.496,477.367C624.59,476.934 624.965,476.348 625.496,476.531C625.703,476.602 625.906,477.141 626.098,478.141C626.254,478.969 626.559,479.855 626.77,480.117C627.023,480.426 627.164,480.633 627.176,480.711C627.293,481.391 628.461,482.289 628.957,482.785C629.754,483.586 631.895,484.672 632.566,483.055C633.035,481.922 631.516,481.551 630.883,481.035C629.164,479.633 631.246,478.258 632.34,477.305C633.871,475.973 634.52,477.441 635.879,478.031C636.758,478.414 637.148,478.203 637.832,477.719C638.965,476.922 638.496,474.648 638.352,473.668C638.059,471.715 638.148,469.922 639.043,468.129C639.457,467.297 639.711,466.465 639.852,465.559L640.23,464.789C640.813,463.586 640.441,462.875 639.922,461.703C638.93,459.465 636.703,458.988 634.832,457.688C633.477,456.746 633.34,454.84 633.879,453.406C634.816,450.91 634.609,448.051 634.891,445.422C635.012,445.031 635.164,444.668 635.383,444.316C636.23,442.961 636.406,441.832 635.988,440.258C634.848,435.969 637.07,431.602 638.031,427.426C638.406,425.652 637.355,423.828 636.648,422.242C635.445,420.168 635.02,416.836 635.461,414.488C635.957,411.883 635.145,408.215 633.234,406.207C632.363,405.293 631.77,404.551 631.246,403.414C630.871,402.602 630.391,401.941 629.766,401.316C629.551,400.09 627.219,399.988 626.266,399.703C624.281,399.109 622.344,398.863 620.273,398.727C619.863,398.594 619.453,398.461 619.047,398.332L618.574,397.945C618.289,397.719 618.004,397.508 617.684,397.34C616.434,396.414 614.938,395.941 613.508,395.344L612.77,394.879C611.25,393.926 610.793,392.848 610.539,391.117C610.246,389.129 609.383,387.539 607.957,386.129C606.539,384.719 606.211,383.332 605.598,381.5C605.234,380.41 604.672,379.512 604.047,378.563C603.516,377.758 603.047,376.891 603.438,375.914C604.117,374.238 605.34,373.082 607.102,372.816C609.621,372.434 610.746,370.52 611.473,368.254C611.848,367.066 612.387,366.762 613.613,366.723C614.23,366.699 615.273,366.77 615.926,366.871C617.449,367.109 617.914,367.707 618.762,368.852C619.426,369.742 620.297,370.512 621.145,371.234C622.242,372.168 623.273,373.203 624.211,374.301C624.984,375.207 625.863,375.914 626.781,376.672C627.477,377.246 628.098,377.895 628.738,378.531C629.328,379.121 629.996,379.383 630.824,379.531C631.457,379.648 632.059,379.797 632.625,380.09C633,380.551 633.289,380.906 633.469,381.473C633.879,382.742 635.52,383.285 636.668,383.695C637.41,383.957 637.77,384.453 638.383,384.941C638.926,385.375 639.621,385.613 640.25,385.891L641.141,386.781C641.816,387.457 642.188,388.281 642.676,389.086C644.336,391.801 647.66,391.09 650.301,392.004C650.648,392.121 651.152,392.348 651.422,392.504C653.781,393.871 655.266,391.355 656.406,389.707C657.273,387.969 659.215,387.457 661.047,387.141C662.313,386.918 662.77,387.742 663.367,388.637C664.426,390.656 666.309,392.398 668.629,392.398C670.328,392.398 671.73,391.563 673.289,391.023C673.938,390.801 674.828,390.438 675.27,390.223C677.188,389.281 678.602,390.707 680.371,391.227C681.711,391.621 682.879,391.48 683.859,390.496C684.477,389.875 684.965,389.18 685.469,388.461C686.109,387.852 686.758,387.598 687.578,387.27C688.945,386.715 689.672,384.563 690.168,383.297C690.445,382.59 690.906,382.063 691.43,381.539C691.551,381.313 691.664,381.086 691.766,380.852C692.102,380.047 693.215,379.359 693.844,378.73C695.082,377.125 695.617,374.172 694.121,372.531C692.84,371.125 691.379,369.91 689.672,369.059C689.031,368.727 688.473,368.324 687.914,367.871C687.016,367.508 686.176,367.09 685.422,366.477C685.086,366.207 684.84,366.043 684.59,365.926C682.676,365.027 682.754,362.289 682.137,360.531C681.75,359.832 681.504,359.125 681.367,358.328C681.156,357.09 680.797,355.762 679.793,354.945C678.293,353.727 677.137,352.133 676.422,350.348C675.375,347.73 671.781,346.113 669.18,346.113C668.582,346.113 667.695,345.98 667.203,345.816C665.77,345.34 663.633,345.457 662.461,346.547C661.785,347.172 661.781,348.504 661.637,349.363C661.113,349.414 660.594,349.461 660.074,349.512C658.891,348.918 657.473,350.531 657.063,351.496C655.98,354.063 652.926,355.016 650.32,355.016C649,355.016 648.871,353.727 649.316,352.84C649.832,351.801 650.25,350.723 650.527,349.598C650.992,347.73 649.461,346.797 648.141,345.918C646.285,344.617 644.281,345.164 642.594,346.422C641.559,347.191 640.555,347.535 639.219,347.398C637.949,347.273 636.703,347.73 635.504,348.07C634.762,348.129 634.086,347.633 633.742,346.988C632.188,346.07 630.441,346.445 628.738,346.707C627.496,346.707 626.32,346.488 625.199,345.926C624.527,345.594 623.93,345.445 623.199,345.305C622.035,344.625 620.793,344.285 619.465,344.047C618.836,343.938 618.262,343.734 617.66,343.523C616.367,342.828 614.953,342.719 613.508,342.555C612.785,342.355 612.059,342.16 611.332,341.961L610.84,341.664C609.863,341.078 608.973,340.32 608.07,339.625C607.008,338.961 606.094,338.117 605.164,337.281C604.402,336.902 603.668,336.492 602.93,336.066C602.059,335.086 601.602,334.035 601.047,332.84C600.836,332.586 600.617,332.328 600.406,332.07C598.906,330.742 598.023,331.656 596.855,332.949C596.48,333.371 595.648,333.355 595.285,332.926C594.688,332.207 594.809,331.375 594.938,330.488C595.215,328.594 595.336,326.648 595.336,324.73C595.336,323.141 595.871,321.629 596.676,320.285C597.809,319.285 598.145,318 597.125,316.742C596.281,315.707 596.125,314.766 596.125,313.48C596.125,312.648 596.051,311.754 595.707,311C595.324,310.16 594.973,309.16 594.938,308.238C594.91,307.496 594.344,306.793 593.969,306.18C593.785,305.305 593.574,304.438 593.355,303.57C593.355,302.008 594.852,300.164 595.719,298.852C596.469,297.719 596.719,295.832 595.113,295.262C594.555,294.645 593.902,294.414 593.137,294.074L592.84,293.777C592.578,293.516 592.512,293.457 592.254,293.246C591.828,292.906 591.723,292.199 591.578,291.703C591.578,288.848 590.566,285.766 588.512,283.762C586.965,282.254 586.852,280.707 586.633,278.648C586.492,278.254 586.355,277.855 586.215,277.461C585.848,276.543 585.461,275.641 585.07,274.734C584.313,272.211 584.457,269.492 584.457,266.879C584.457,264.813 582.992,263.324 581.074,262.844C580.145,262.844 579.254,262.949 578.332,263.066C576.734,262.586 575.82,264.184 574.941,265.238C574.055,266.266 573.445,267.293 572.984,268.582C572.758,269.215 572.285,269.68 571.82,270.145L571.711,270.438C571.406,271.266 571.102,272.098 570.82,272.934C570.57,273.672 570.145,274.195 569.633,274.773C568.645,275.879 567.945,277.461 567.449,278.867C566.766,279.852 565.66,280.152 564.461,279.953C563.344,279.766 562.043,280.211 560.941,280.426C559.039,280.516 558.004,279.313 556.746,278.055C555.492,276.539 554.289,275.543 552.477,274.645C550.715,273.77 550.02,273.527 549.305,273.527C547.727,273.527 547.418,274.25 547.063,275.563C546.656,277.078 545.477,276.648 544.602,275.699C543.664,274.68 543.883,273.063 544.125,271.797C544.398,270.355 543.949,268.859 542.207,269.375C541.668,269.531 541.133,269.664 540.586,269.781C539.82,269.949 538.875,270.199 538.395,270.852C538.02,271.359 537.637,271.859 537.219,272.332C536.371,273.293 535.219,271.508 534.41,271.156C532.137,270.168 529.598,271.84 527.461,272.324C526.965,272.438 526.363,272.789 525.902,273.238C524.859,274.254 524.387,273.758 523.938,272.637C523.938,272.121 523.969,271.629 524.137,271.133C524.871,268.93 522.816,266.469 521.367,265.02C520.492,264.145 519.113,263.684 518.035,264.516C516.617,265.613 516.844,267.906 517.977,269.113C519.105,270.32 519.609,272.012 518.848,273.598C518.348,274.648 517.383,275.348 516.543,276.109C515.031,277.473 513.156,274.758 512.711,273.367C512.418,272.473 511.77,271.145 510.59,271.551C509.75,271.84 509.285,272.738 508.922,273.504C508.305,274.793 507.41,277.059 507.914,278.5C508.434,280 509.578,280.215 510.879,280.836C512.859,281.777 513.73,283.109 514.082,285.207C514.266,286.328 514.473,287.438 515.023,288.438C515.457,289.23 515.926,290.875 514.742,291.363C514.086,291.637 513.16,291.617 512.48,291.418C511.758,291.207 510.668,291.863 509.98,292.105C508.695,292.551 507.152,291.02 506.117,290.316C504.645,289.188 503.035,289.273 501.215,289.152C499.219,288.758 497.168,288.613 495.145,288.867C493.543,289.066 491.91,288.027 490.613,287.172C490.059,286.809 489.551,286.523 488.934,286.281C488.18,285.988 487.48,285.609 486.777,285.215L486.262,285C485.457,284.668 485.371,283.813 485.371,283.043C485.371,281.344 484.422,281.082 482.969,281.531C482.406,281.703 481.879,281.848 481.297,281.934C480.16,282.094 477.984,282.02 476.992,281.379C475.551,280.445 475.91,277.887 475.48,276.418C474.859,274.281 471.645,274.52 469.938,273.91C468.414,273.367 468.234,271.422 467.953,269.996C467.656,269.668 467.367,269.336 467.078,269.004C465.93,267.68 465.871,265.297 467.68,264.684C468.359,264.457 469.375,263.313 468.473,262.656C467.723,262.105 466.563,262.742 465.879,263.082C465.172,263.434 464.285,263.754 463.902,263.797C462.84,263.918 462.016,262.828 461.23,262.223C459.453,261.609 458.367,260.168 457.07,258.867C456.027,258.07 455.07,257.82 453.738,257.742C452.891,257.695 452.094,257.57 451.965,257.469C451.711,257.27 451.457,257.066 451.203,256.863C450.879,255.684 450.406,254.602 449.863,253.5C449.375,252.508 448.84,251.313 448.785,250.188C448.676,248.043 445.473,248.57 444.254,249.176C442.93,249.609 441.871,248.297 440.852,247.594C440.477,247.305 440.102,247.031 439.676,246.82C438.836,246.398 439.105,244.945 439.211,244.184C439.578,241.594 436.723,241.488 435.336,240.098C434.676,239.441 433.992,238.934 433.16,238.516C432.707,238.285 432.273,238.039 431.875,237.715C431.375,237.313 430.844,237.055 430.266,236.773C428.887,236.094 428.027,234.973 427.137,233.781C426.656,233.133 426.219,232.773 425.504,232.414C425.18,231.973 424.906,231.516 424.668,231.023C424.469,230.609 424.246,230.211 424.172,230.133C424.02,229.969 423.891,229.793 423.758,229.617C422.891,228.496 424.391,226.934 425.25,226.254C425.719,225.934 426.176,225.605 426.633,225.266C427.098,224.953 427.547,224.629 427.996,224.297C428.375,224.035 428.742,223.766 429.098,223.473C429.875,222.828 430.855,222.48 431.777,222.102C433.617,221.34 434.824,219.902 434.891,217.902C434.941,216.32 435.352,215.125 436.055,213.738C436.75,213.004 437.445,212.266 438.129,211.523C439.977,209.523 439.746,205.152 437.809,203.211C437.063,202.469 436.703,201.48 436.234,200.543C434.684,197.438 435.129,193.629 434.941,190.234L434.941,189.715C434.941,187.555 431.84,187.16 431.098,189.129C430.137,191.68 427.742,190.199 425.941,189.672C424.832,189.352 423.129,189.527 422.859,191.031C422.754,191.625 421.805,192.07 421.285,192.344C419.301,193.383 420.879,195.918 421.32,197.398C422.051,199.828 419.039,200.402 417.328,201.059C416.777,201.27 416.035,201.617 416.211,202.332C416.363,202.953 417.5,202.73 417.965,202.617C418.742,202.422 419.727,202.914 420.422,203.223C421.691,203.785 423.43,205.234 423.043,206.777C422.441,209.172 419.102,208.887 417.34,208.563C415.504,208.227 413.289,208.004 411.449,208.445C409.195,208.988 407.824,210.16 407.074,212.387C406.477,214.566 404.141,216.039 402.203,217.008C400.887,217.668 399.66,218.695 398.988,220.035C398.703,220.605 397.906,221.508 397.219,221.508C396.34,221.508 395.469,219.934 394.969,219.313C394.641,218.883 394.336,218.461 394.258,217.91C393.879,215.172 391.125,212.438 388.293,213.469C386.008,214.301 386.723,217.457 386.09,219.352C385.563,220.934 384.121,221.57 382.605,220.508C381.117,219.465 381.023,217.988 381.328,216.34C381.746,214.07 383.531,213.895 385.516,213.398C386.789,212.914 387.133,211.086 386.66,209.895C386.336,209.066 385.617,208.547 384.949,208.008C384.359,206.648 383.727,204.16 385.094,203.02C385.809,202.426 386.707,202.195 387.574,201.914C389.727,201.219 390.145,199.734 389.363,197.758C387.023,195.684 383.445,196.281 380.777,197.363C379.625,198.945 379.371,201.094 378.773,202.934C377.77,205.445 374.809,205.117 372.664,206.168C371.77,206.605 370.781,207.07 369.773,207.07C368.738,207.07 368.566,205.613 368.332,204.902C367.914,203.617 367.719,202.957 368.711,201.988C369.098,201.613 369.559,200.988 369.738,200.598C370.363,199.258 370.238,198.137 369.277,197.18C368.969,196.867 368.66,196.566 368.324,196.281C366.531,194.742 368.301,192.379 368.984,190.719C369.145,190.316 369.277,189.746 369.277,189.449C369.277,187.695 366.547,188.305 365.457,187.906C363.91,187.336 364.5,184.934 364.137,183.629C363.77,182.305 362.902,181.035 361.348,181.555C360.465,181.848 359.699,182.508 358.957,183.078C357.566,184.141 355.316,183.77 353.691,183.551C351.543,183.266 350.656,181.492 351.168,179.422C351.23,179.168 351.188,178.441 351.078,177.805C350.875,176.652 351.102,175.785 351.637,174.766C352.125,173.844 352.352,171.824 351.941,170.84C351.629,170.086 350.844,170.758 350.617,171.215C349.516,173.422 346.266,173.672 344.141,173.246C342.203,172.859 341.043,174.34 340.254,175.922C340.008,176.41 338.938,177.738 338.336,177.531C338.086,177.441 338.031,177.027 338.031,175.125C338.031,173.863 337.957,172.586 337.863,172.289C337.602,171.434 335.969,170.453 335.727,171.875C335.648,172.34 335.715,172.758 335.773,173.223C336.066,175.633 333.789,176.156 331.934,176.652C331.398,176.465 331.168,176.195 330.777,175.758C329.848,174.723 328.906,173.699 327.965,172.672C326.176,170.68 322.723,171.652 320.406,172.059C318.949,172.809 319.543,174.457 320.176,175.645C320.742,176.711 321.207,178.723 320.102,179.594C319.309,180.215 317.785,180.328 316.848,180.586C315.895,181.039 314.965,180.762 313.953,180.762C312.586,180.762 312.273,182.117 311.582,182.949C310.73,183.973 309.285,184.887 308.016,185.176C306.551,185.508 306.785,187.965 306.477,189.09C306.168,190.199 305.152,191.012 304.375,191.777C303.125,193 300.945,194.258 299.137,193.355C298.137,192.855 297.984,191.57 297.938,190.582C297.848,188.742 297.965,186.828 298.41,185.039C298.695,183.887 298.668,182.57 298.039,181.531C296.656,179.25 294.09,181.156 292.156,181.156C290.488,181.156 290.609,178.75 290.566,177.578C290.672,176.613 290.75,175.66 290.652,174.688C290.539,173.594 290.672,172.391 291.188,171.41C291.746,171.004 292.223,170.82 292.902,170.625C294.91,170.043 295.5,168.418 294.934,166.449C294.367,164.492 293.289,163.949 291.531,163.395L291.531,163.391Z" style="fill:rgb(148,144,198);"/>
        </g>
        <path d="M452.676,655.039C450.969,654.223 449.328,654.672 447.563,654.672C446.043,654.672 443.098,654.785 442.176,656.344C441.93,656.758 441.711,657.184 441.496,657.617C441.434,658.25 440.949,658.559 440.504,659.004L440.441,659.223C440.234,659.906 439.328,660.516 438.836,661.023L437.301,662.602C436.656,663.359 436.008,664.113 435.344,664.855C434.641,665.645 434.012,666.465 433.387,667.309C433.039,667.727 432.551,667.934 432.07,668.176C430.066,669.176 429.059,671.613 429.324,673.809C429.43,674.676 429.203,675.602 428.598,676.25C428.238,676.719 427.965,677.082 427.797,677.652C427.027,680.289 428.297,682.523 428.82,685.012L429.051,685.367C429.84,686.586 431.262,686.82 432.629,686.957C433.531,687.043 434.387,687.195 435.227,687.539C436.254,688.488 436.727,689.813 437.016,691.164C437.539,693.641 440.258,692.547 442.168,693.141C442.34,693.195 442.605,693.328 442.75,693.434C444.305,694.582 446.926,694.82 448.813,694.82C449.742,694.82 450.766,694.453 451.465,693.855C451.816,693.559 451.965,693.453 452.055,693.438C452.395,693.379 452.727,692.914 452.977,692.688C454.156,691.609 456,691.602 457.199,692.621C457.965,693.27 458.809,693.711 459.781,693.953C461.984,694.496 462.406,691.422 463.375,690.262C463.875,689.656 464.395,689.246 465.195,689.066C465.891,688.906 466.898,688.652 467.098,687.828C467.332,686.852 466.324,685.711 465.82,684.953C465.559,684.43 465.352,683.902 465.207,683.332C465.098,682.895 464.82,682.152 464.59,681.676C463.805,680.074 464.148,678.602 465.188,677.238C466.215,675.961 466.352,674.574 466.543,672.949C466.707,671.578 467.02,669.906 467.238,669.227C467.582,668.156 467.66,666.762 466.57,666.121C465.836,665.555 465.031,665.164 464.207,664.746C463.488,664.383 463.023,663.961 462.457,663.395C461.898,663.102 461.383,662.738 460.855,662.383C459.504,661.887 458.586,660.434 457.602,659.418C455.164,656.895 454.918,656.641 454.625,656.352C454.059,655.781 453.402,655.383 452.676,655.039Z" style="fill:rgb(148,144,198);"/>
        <g>
            <path d="M393.762,735.023C393.043,734.477 391.621,734.441 390.887,734.945C390.547,735.793 390.352,736.535 390.223,737.449C389.941,739.492 389.207,740.352 387.426,741.168C386.34,741.668 385.465,742.336 385.367,743.594C385.27,744.859 385.656,746.117 386.117,747.281C386.469,748.172 386.488,748.414 386.285,749.23C385.824,751.098 387.344,752.938 388.086,754.57L388.418,754.969L388.746,755.367C388.988,755.508 389.207,755.66 389.43,755.828C390.633,756.758 392.52,756.906 393.703,755.945C394.691,755.145 395.953,754.781 397.164,754.461C399.172,753.934 399.922,751.422 400.242,749.684C400.684,747.27 401.41,744.656 402.504,742.457C403.168,741.125 403.383,739.563 401.824,738.637C400.801,738.035 399.82,738.094 398.688,738.242C396.516,738.523 395.258,736.168 393.762,735.023Z" style="fill:rgb(148,144,198);"/>
        </g>
        <path d="M330.926,692.34C329.82,691.492 328.301,691.594 327.246,692.445C326.535,693.023 325.688,693.246 324.754,693.129C322.145,692.801 320.883,695.477 319.172,696.996C318,698.035 317.746,700.055 317.367,701.516C316.848,703.535 317.039,705.266 317.941,707.074C318.316,707.824 318.66,708.535 318.922,709.336C319.746,711.887 322.82,710.75 324.777,710.949C326.094,711.078 326.473,710.746 327.402,709.914C328.805,709.375 329.676,708.262 330.715,707.207C331.641,706.262 332.508,705.359 332.883,704.086L332.883,703.297C332.609,702.066 332.461,701.254 333.023,700.059C333.824,698.371 334.066,696.148 333.199,694.445C332.727,693.516 331.742,692.969 330.926,692.34Z" style="fill:rgb(148,144,198);"/>
        <path d="M494.547,629.723L493.859,629.551L493.289,629.551C492.918,629.707 492.668,629.746 492.254,629.746C490.688,629.746 489.73,630.918 488.75,631.945C487.645,633.109 486.316,633.215 484.82,633.352C483.582,633.469 482.227,633.656 481.156,634.352C480.395,634.848 480.406,635.996 480.332,636.789C480.277,637.387 480.102,638.223 479.938,638.648C479.688,639.297 479.543,639.965 479.422,640.645C479.039,641.684 479.129,642.633 479.828,643.492C480.348,644.133 480.766,644.883 481.223,645.57C482.266,647.934 485.105,645.539 486.684,645.176C487.148,645.066 487.582,644.957 488.023,644.777C489.602,644.148 491.223,642.406 491.813,640.902C492.09,640.195 492.445,639.395 492.605,639.121C493.137,638.203 493.387,637.086 493.715,636.082C494.109,635.613 494.496,635.141 494.891,634.672C496.082,633.117 497.035,630.34 494.547,629.723Z" style="fill:rgb(148,144,198);"/>
        <path d="M140.926,418.801C139.574,418.219 138.832,418.668 137.484,418.699C137.039,418.711 136.406,418.852 136.082,419.008C135.754,419.164 134.922,419.293 134.227,419.293C132.625,419.293 132.254,419.965 132.195,421.516C132.16,422.512 132.098,423.496 132.023,424.484C131.934,425.699 131.914,427.094 132.73,428.094C132.965,428.387 133.125,428.629 133.195,428.992C133.594,429.23 133.953,429.512 134.324,429.797C136.156,430.246 137.613,431.215 139.266,432.043C141.117,432.969 142.969,430.762 144.176,429.668C145.199,428.738 145.473,427.574 145.082,426.215C144.789,425.199 144.527,424.098 144.703,423.031C144.992,421.316 144.16,419.961 142.578,419.422C142.016,419.234 141.469,419.031 140.926,418.801Z" style="fill:rgb(148,144,198);"/>
        <path d="M386.777,669.555C384.652,668.57 382.633,669.648 380.527,669.934C379.859,670.023 379.145,670.262 378.879,670.48C378.57,670.73 378.359,670.871 378.285,670.887C377.672,670.992 376.992,672.242 376.773,672.742C376.395,673.617 376.52,674.266 376.793,675.184C378.141,676.375 377.676,678.008 378.152,679.555C378.637,681.125 380.691,681.016 381.938,681.559C383.063,682.043 384.051,682.359 385.199,681.883C387.539,680.914 389.223,679.125 389.508,676.559C389.797,673.941 389.371,670.758 386.777,669.555Z" style="fill:rgb(148,144,198);"/>
        <path d="M528.086,644C525.789,643.004 523.25,645.145 521.262,645.969C519.324,646.77 521.148,649.52 521.738,650.699C522.082,651.387 522.414,652.07 522.73,652.773C523.23,653.887 524.164,654.355 525.098,655.051C525.465,655.414 525.68,655.977 525.898,656.43C526.172,656.996 526.617,657.84 527.387,657.84C527.91,657.84 528.707,657.465 528.945,656.973C529.504,655.797 530.953,654.785 531.867,653.863C532.449,653.098 532.836,652.383 532.836,651.391C532.836,648.395 531.012,646.777 529.098,644.805C528.77,644.441 528.543,644.199 528.086,644Z" style="fill:rgb(148,144,198);"/>
        <path d="M709.98,512.293C708.398,511.09 706.594,512.547 705.086,512.961C702.918,513.559 702.582,516.641 702.34,518.41C702.34,521.863 706.672,522.949 709.238,523.711C710.945,523.535 711.18,521.758 711.781,520.41C713.039,517.582 712.492,514.207 709.98,512.293Z" style="fill:rgb(148,144,198);"/>
        <path d="M341.824,649.66C340.672,649.156 338.852,649.113 338.043,650.207C337.625,650.773 337.234,651.313 336.949,651.961C336.656,652.621 336.301,653.102 335.852,653.652C335.629,654.316 335.438,654.938 335.336,655.633C335.18,656.691 335.652,657.426 336.465,658.043C337.281,658.742 337.656,659.555 338.012,660.57C339.465,661.625 341.109,659.449 342.375,658.816C344,657.824 345.109,656.32 345.289,654.402C345.492,652.285 343.629,650.441 341.824,649.66Z" style="fill:rgb(148,144,198);"/>
        <path d="M509.535,686.051C507.746,685.246 505.836,685.938 505.09,687.66C504.195,689.715 505.258,691.016 506.32,692.613C506.664,693.711 508.293,695.152 509.297,695.59C510.785,696.234 512.438,695.531 512.902,693.98C513.363,692.438 514.047,690.121 513.512,688.539C513.02,687.082 510.813,686.625 509.535,686.051Z" style="fill:rgb(148,144,198);"/>
        <path d="M401.414,716.711L400.113,716.289L399.43,716.23C398.051,716.117 397.324,717.215 396.852,718.32C396.043,720.223 395.879,722.578 396.66,724.512C397.41,725.098 398.254,725.047 399.176,724.957C400.148,724.863 400.547,724.918 401.273,725.254C402.781,725.949 404.52,725.656 404.648,723.762C404.766,721.977 404.277,720.238 403.906,718.5C403.742,718.25 403.582,718.004 403.422,717.754C402.836,717.234 402.164,716.953 401.414,716.711Z" style="fill:rgb(148,144,198);"/>
        <path d="M121.809,631.184C120.277,630.016 119.117,632.012 117.773,632.539C116.961,632.859 116.293,633.48 115.945,634.281C115.273,635.832 114.574,638.652 116.609,639.328C118.066,639.813 120.098,640.457 121.586,639.832C123.316,639.102 123.301,637.645 123.473,635.84C123.594,634.559 123.633,633.328 123.559,633.105C123.27,632.23 122.512,631.723 121.809,631.184Z" style="fill:rgb(148,144,198);"/>
        <path d="M480.387,680.176C479.199,679.664 478.23,680.582 477.18,681.063C475.063,682.031 474.086,684.828 474.84,687.055C475.539,689.133 478.801,688.539 480.344,687.891C482.438,687.012 484.348,684.398 482.609,682.266C482.309,681.895 482.215,681.746 482.191,681.59C482.094,681.047 480.816,680.367 480.387,680.176Z" style="fill:rgb(148,144,198);"/>
        <path d="M194.598,654.723C193.227,653.676 191.715,655.117 190.41,655.645C188.832,656.277 188.695,658.293 189.688,659.516C189.941,659.824 190.082,660.031 190.094,660.109C190.348,661.563 192.535,662.184 193.676,662.184C194.949,662.184 196.523,661.328 197.027,660.168C197.965,658 196.191,655.938 194.598,654.723Z" style="fill:rgb(148,144,198);"/>
        <path d="M230.066,187.02C229.445,186.414 228.48,185.73 227.57,186.113C225.109,187.152 227.145,190.715 226.969,192.676C226.906,193.344 226.941,194.082 227.047,194.324C227.535,195.445 229.039,194.691 229.848,194.41C232.121,193.625 232.758,190.441 231.242,188.574C231.02,188.305 230.855,188.082 230.809,187.742L230.066,187.02Z" style="fill:rgb(148,144,198);"/>
        <path d="M358.852,636.844C357.746,636.039 355.391,636.602 354.227,637.09C353.574,637.793 352.73,638.219 351.813,638.531C350.563,638.957 350.434,640.527 351.715,641.039C353.91,641.918 356.848,641.781 358.805,640.324C359.715,639.648 359.789,637.523 358.852,636.844Z" style="fill:rgb(148,144,198);"/>
        <path d="M191.93,630.867C190.617,629.773 189.43,631.422 188.629,632.242C187.934,632.961 187.305,633.785 187.234,634.078C186.883,635.535 188.563,637.09 189.918,637.219C191.223,637.34 191.992,636.551 192.477,635.43C192.945,634.348 192.934,631.707 191.93,630.867Z" style="fill:rgb(148,144,198);"/>
        <path d="M601.836,702.727C600.031,701.941 598.637,703.18 598.523,704.949C598.461,705.965 598.523,708.168 599.918,708.391C601.348,708.617 603.078,707.539 603.641,706.242C604.27,704.789 603.133,703.285 601.836,702.727Z" style="fill:rgb(148,144,198);"/>
        <path d="M494.289,616.293C492.203,615.328 490.324,616.75 490.324,618.98C490.324,621.57 494.523,621.324 495.691,619.719C496.621,618.441 495.52,616.859 494.289,616.293Z" style="fill:rgb(148,144,198);"/>
        <path d="M118.684,380.211C118.168,379.418 116.645,379.801 116.043,380.262C115.246,382.184 116.668,383.594 117.996,384.699C118.508,385.125 120.875,386.203 120.875,384.676C120.875,383.176 119.48,381.43 118.684,380.211Z" style="fill:rgb(148,144,198);"/>
        <path d="M221.039,199.547C220.012,198.633 217.742,198.773 217.449,200.371C217.199,201.727 219.129,203.52 220.266,203.902C220.914,204.121 221.23,203.793 221.695,203.418C222.828,202.512 221.871,200.285 221.039,199.547Z" style="fill:rgb(148,144,198);"/>
        <path d="M367.496,175.121C366.613,174.387 364.402,174.32 363.898,175.527C363.492,176.508 364.105,177.363 364.605,178.195C365.113,178.645 366.492,179.75 367.246,179.172C368.441,178.258 368.766,176.18 367.496,175.121Z" style="fill:rgb(148,144,198);"/>
        <path d="M666.785,482.766C665.84,481.887 664.215,482.496 663.195,482.914C661.895,483.441 660.918,484.824 662.387,485.895C663.957,487.035 665.227,485.637 666.332,484.633C666.852,484.16 667.438,483.371 666.785,482.766Z" style="fill:rgb(148,144,198);"/>
        <path d="M105.16,296.281C104.168,295.398 103.375,295.598 103.039,296.719C102.734,297.73 103.168,299.199 104.02,299.871C104.723,300.422 105.219,300.012 105.793,299.551C106.863,298.695 105.922,296.957 105.16,296.281Z" style="fill:rgb(148,144,198);"/>
        <path d="M113.676,396.391C112.395,395.172 110.867,396.316 111.84,397.82C112.84,399.367 115.074,397.723 113.676,396.391Z" style="fill:rgb(148,144,198);"/>
        <path d="M373.055,189.902C372.773,189.34 371.766,189.301 371.402,189.813C370.938,190.48 370.832,192.078 371.855,192.332C373.172,192.656 373.492,190.781 373.055,189.902Z" style="fill:rgb(148,144,198);"/>
        <path d="M343.785,530.922C343.785,530.922 284.203,498.121 329.836,461.762C329.836,461.762 344.656,449.875 382.348,425.43C382.348,425.43 399.008,409.141 412.484,425.43C412.484,425.43 426.195,441.023 408.43,461.023C408.43,461.023 374.746,501.398 343.785,530.922" style="fill:rgb(73,69,139);fill-rule:nonzero;"/>
        <path d="M322.348,310.395C307.633,315.828 289.391,304.688 282.23,291.301C274.879,277.551 277.574,259.102 292.273,250.5C307.168,241.789 329.566,248.238 336.945,263.91C343.813,278.5 339.016,304.238 322.348,310.395" style="fill:rgb(61,51,97);fill-rule:nonzero;"/>
        <path d="M377.785,357.973C377.785,359.609 379.113,360.941 380.75,360.941L394.363,360.941C396.004,360.941 397.332,359.609 397.332,357.973L397.332,323.813C397.332,322.172 396.004,320.84 394.363,320.84L380.75,320.84C379.113,320.84 377.785,322.172 377.785,323.813L377.785,357.973" style="fill:rgb(7,32,61);fill-rule:nonzero;"/>
        <path d="M397.332,351.742L409.59,351.742L409.59,328.688L397.332,328.688L397.332,351.742" style="fill:rgb(3,15,31);fill-rule:nonzero;"/>
        <path d="M409.59,347.762L421.855,347.762L421.855,332.668L409.59,332.668L409.59,347.762" style="fill:rgb(3,15,31);fill-rule:nonzero;"/>
        <path d="M248.602,560.289C247.723,562.07 247.102,566.168 246.715,569.543L237.367,569.543C234.875,557.699 237.609,543.77 237.609,543.77L255.27,543.582L257.512,552.996C255.57,554.125 249.934,557.578 248.602,560.289" style="fill:rgb(241,143,122);fill-rule:nonzero;"/>
        <path d="M262.859,578.336C262.859,572.789 258.996,572.262 258.996,572.262L251.535,569.563L248.602,560.289C249.102,559.262 250.227,558.129 251.535,557.063C251.41,556.332 251.309,555.598 251.07,554.891C250.789,554.066 248.762,553.98 247.938,553.695C246.969,553.359 246.219,551.801 246.02,550.906C245.5,548.492 245.891,545.984 246.777,543.672L232.773,543.582C232.773,543.582 235.254,567.977 240.52,578.336L262.859,578.336" style="fill:rgb(35,40,49);fill-rule:nonzero;"/>
        <path d="M245.094,558.016C245.02,557.738 245.168,557.445 245.441,557.348C249.797,555.84 251.785,558.063 251.867,558.156C252.066,558.387 252.039,558.734 251.809,558.934C251.578,559.133 251.234,559.109 251.035,558.883C250.957,558.797 249.402,557.137 245.805,558.387C245.516,558.492 245.207,558.34 245.105,558.055L245.094,558.016" style="fill:rgb(254,254,254);fill-rule:nonzero;"/>
        <path d="M246.34,561.395C246.27,561.145 246.398,560.867 246.648,560.762C250.242,559.191 252.301,560.848 252.387,560.922C252.617,561.113 252.648,561.457 252.457,561.688C252.266,561.918 251.926,561.949 251.699,561.762C251.629,561.703 250.027,560.473 247.082,561.754C246.805,561.875 246.488,561.746 246.367,561.477L246.34,561.395" style="fill:rgb(254,254,254);fill-rule:nonzero;"/>
        <path d="M246.754,564.219C246.68,563.953 246.809,563.664 247.074,563.547C250.828,561.914 252.926,563.355 253.012,563.422C253.273,563.602 253.328,563.961 253.145,564.215C252.965,564.469 252.613,564.527 252.355,564.355C252.277,564.305 250.637,563.238 247.527,564.594C247.238,564.723 246.902,564.59 246.777,564.301L246.754,564.219" style="fill:rgb(254,254,254);fill-rule:nonzero;"/>
        <path d="M247.93,566.781C247.859,566.516 247.984,566.23 248.242,566.125C251.98,564.492 253.699,566.398 253.773,566.48C253.973,566.711 253.953,567.066 253.719,567.266C253.488,567.465 253.141,567.441 252.938,567.219C252.871,567.148 251.625,565.867 248.688,567.145C248.406,567.266 248.082,567.137 247.957,566.852L247.93,566.781" style="fill:rgb(254,254,254);fill-rule:nonzero;"/>
        <path d="M249.371,569.895C249.309,569.66 249.426,569.402 249.656,569.301C253.078,567.805 254.645,569.551 254.715,569.625C254.895,569.844 254.875,570.156 254.664,570.344C254.453,570.527 254.137,570.504 253.949,570.297C253.898,570.238 252.754,569.059 250.063,570.23C249.805,570.34 249.508,570.223 249.398,569.969L249.371,569.895" style="fill:rgb(254,254,254);fill-rule:nonzero;"/>
        <g>
            <path d="M229.82,543.582C229.82,543.582 230.805,559.207 237.691,580.664C237.691,580.664 246.137,583.422 262.859,580.664C262.859,580.664 263.059,580.34 262.859,578.336L240.52,578.336C240.52,578.336 232.574,549.027 232.773,543.582L230.414,543.582" style="fill:rgb(250,199,181);fill-rule:nonzero;"/>
        </g>
        <path d="M338.152,274.719C338.148,283.223 335.445,291.457 330.355,298.324C323.809,307.16 316.145,298.559 312.484,291.539C308.172,283.262 306.395,274.266 308.535,265.18C310.438,257.07 317.781,249.059 326.813,252.242C335.176,255.188 338.152,266.801 338.152,274.719" style="fill:rgb(61,51,97);fill-rule:nonzero;"/>
        <path d="M368.711,420.59C358.789,428.676 354.93,422.879 354.93,422.879L326.082,352.184C318.691,340.414 322.422,332.176 322.422,332.176C339.375,314.301 353.137,342.672 353.137,342.672C353.137,342.672 377.766,407.051 368.711,420.59" style="fill:rgb(241,143,122);fill-rule:nonzero;"/>
        <path d="M331.625,324.285C331.625,324.285 352.273,327.012 359.063,354.125L371.102,386.297C371.102,386.297 367.211,404.613 345.645,407.051L324.781,365.668C324.781,365.668 311.332,332.105 331.625,324.285" style="fill:rgb(61,51,97);fill-rule:nonzero;"/>
        <path d="M408.598,546.781C409.234,549.574 411.273,557.762 414.063,560.422C417.434,563.645 430.695,568.824 430.695,568.824L437.473,571.941C437.473,571.941 441.738,577.195 426.945,577.828C410.074,578.547 389.781,567.496 389.781,567.496L396.305,545.914L408.598,546.781" style="fill:rgb(241,143,122);fill-rule:nonzero;"/>
        <path d="M401.664,559.977C402.832,560.086 405.012,559.762 405.789,558.707C406.449,557.813 407.332,555.379 408.445,555.352C409.395,555.332 410.32,555.492 411.25,555.617C412.063,557.613 413.004,559.414 414.063,560.422C417.434,563.645 430.695,568.824 430.695,568.824L438.938,572.109C438.938,572.109 441.629,576.918 429.852,578.902C415.254,581.359 388.523,569.465 388.523,569.465L393.168,556.293C395.637,558.258 398.539,559.691 401.664,559.977" style="fill:rgb(35,40,49);fill-rule:nonzero;"/>
        <path d="M401.664,559.977C402.832,560.086 405.012,559.762 405.789,558.707C406.449,557.813 407.332,555.379 408.445,555.352C409.395,555.332 410.32,555.492 411.25,555.617C412.063,557.613 413.004,559.414 414.063,560.422C417.434,563.645 430.695,568.824 430.695,568.824L438.938,572.109C438.938,572.109 441.629,576.918 429.852,578.902C415.254,581.359 388.523,569.465 388.523,569.465L393.168,556.293C395.637,558.258 398.539,559.691 401.664,559.977" style="fill:rgb(35,40,49);fill-rule:nonzero;"/>
        <path d="M388.523,569.465C388.523,569.465 415.254,581.359 429.852,578.902C441.629,576.918 438.938,572.109 438.938,572.109C438.938,572.109 443.723,580.148 429.906,581.707C429.906,581.707 412.363,584.039 387.727,572.031C387.727,572.031 387.91,570.664 388.523,569.465" style="fill:rgb(250,199,181);fill-rule:nonzero;"/>
        <path d="M408.813,566.539C408.488,566.367 408.34,565.973 408.492,565.629C410.863,560.199 414.688,560.266 414.852,560.273C415.234,560.285 415.547,560.609 415.531,561.004C415.52,561.395 415.191,561.699 414.805,561.688C414.664,561.684 411.742,561.711 409.789,566.199C409.633,566.559 409.215,566.719 408.855,566.563L408.813,566.539" style="fill:rgb(254,254,254);fill-rule:nonzero;"/>
        <path d="M413.082,568.316C412.785,568.16 412.633,567.797 412.754,567.465C414.406,562.707 417.766,562.207 417.906,562.191C418.293,562.141 418.645,562.414 418.699,562.789C418.742,563.172 418.48,563.523 418.102,563.57C417.984,563.59 415.426,564.023 414.066,567.926C413.941,568.289 413.547,568.48 413.184,568.355L413.082,568.316" style="fill:rgb(254,254,254);fill-rule:nonzero;"/>
        <path d="M416.105,570.387C415.789,570.223 415.629,569.844 415.75,569.496C417.477,564.527 420.672,563.805 420.805,563.777C421.203,563.691 421.594,563.949 421.676,564.348C421.754,564.738 421.508,565.125 421.109,565.211C420.996,565.238 418.57,565.859 417.133,569.977C417.004,570.359 416.582,570.563 416.203,570.43L416.105,570.387" style="fill:rgb(254,254,254);fill-rule:nonzero;"/>
        <path d="M419.543,571.508C419.234,571.344 419.078,570.977 419.203,570.637C420.918,565.691 424.211,565.727 424.352,565.727C424.75,565.738 425.059,566.07 425.051,566.461C425.031,566.852 424.711,567.16 424.32,567.156C424.207,567.16 421.898,567.219 420.543,571.109C420.414,571.477 420.012,571.676 419.637,571.547L419.543,571.508" style="fill:rgb(254,254,254);fill-rule:nonzero;"/>
        <path d="M423.738,572.867C423.453,572.719 423.313,572.379 423.418,572.066C424.996,567.543 428.012,567.578 428.137,567.582C428.496,567.598 428.781,567.895 428.773,568.258C428.762,568.617 428.465,568.898 428.105,568.891C428.004,568.891 425.891,568.941 424.656,572.5C424.535,572.84 424.164,573.02 423.824,572.902L423.738,572.867" style="fill:rgb(254,254,254);fill-rule:nonzero;"/>
        <path d="M337.609,411.445C349.539,368.371 336.945,325.793 336.945,325.793C326.18,322.93 318.453,321.57 318.453,321.57L296.73,321.57C296.73,321.57 279.832,330.777 265.141,340.965L294.816,416.398L337.609,411.445" style="fill:rgb(241,143,122);fill-rule:nonzero;"/>
        <path d="M318.715,325.113L296.738,325.145L296.684,292.523L318.664,292.488L318.715,325.113" style="fill:rgb(241,143,122);fill-rule:nonzero;"/>
        <path d="M302.707,310.297C299.754,304.902 298.855,299.008 298.484,292.523L318.664,292.488L318.707,317.477C312.922,316.426 305.695,315.754 302.707,310.297" style="fill:rgb(241,143,122);fill-rule:nonzero;"/>
        <path d="M343.316,499.625C331.281,504.137 318.344,505.691 305.535,504.781C297.977,504.246 290.418,503.055 283.266,500.465C278.066,498.586 272.391,496.23 267.633,492.961C271.699,462 284.797,429.953 292.125,422.035C328.531,428.625 348.242,423.848 348.242,423.848C355.84,438.848 362.23,459.914 363.195,486.691C358.301,492.859 350.469,496.941 343.316,499.625" style="fill:rgb(73,69,139);fill-rule:nonzero;"/>
        <path d="M281.348,528.313L350.602,562.77C372.449,574.637 385.336,558.137 385.336,558.137C398.531,539.707 377.191,525.258 377.191,525.258C342.613,496.57 325.199,486.703 325.199,486.703C317.965,481.805 302.461,465.73 293.883,468.117C277.395,472.703 274.203,476.379 267.754,484.848C267.754,484.848 259.277,516.762 281.348,528.313" style="fill:rgb(73,69,139);fill-rule:nonzero;"/>
        <path d="M318.672,435.199C334.598,435.199 345.797,430.012 345.965,429.93C346.34,429.754 346.5,429.305 346.324,428.93C346.145,428.551 345.695,428.395 345.32,428.57C345.074,428.688 320.469,440.059 292.426,428.555C292.047,428.398 291.602,428.578 291.445,428.965C291.285,429.348 291.469,429.789 291.855,429.949C301.453,433.887 310.66,435.199 318.672,435.199" style="fill:rgb(28,29,50);fill-rule:nonzero;"/>
        <path d="M283.125,465.461C288.879,465.461 293.715,463.801 297.539,460.496C305.711,453.445 306.336,441.563 306.359,441.059C306.379,440.645 306.059,440.293 305.641,440.273C305.156,440.277 304.875,440.578 304.855,440.992C304.852,441.109 304.23,452.746 296.551,459.363C292.328,463 286.73,464.492 279.922,463.785C279.516,463.746 279.137,464.043 279.094,464.457C279.051,464.871 279.352,465.238 279.766,465.281C280.918,465.402 282.039,465.461 283.125,465.461" style="fill:rgb(28,29,50);fill-rule:nonzero;"/>
        <path d="M321.48,471.473L321.602,471.461L330.617,470.012C331.023,469.949 331.301,469.566 331.242,469.16L327.73,445.141C327.668,444.73 327.281,444.441 326.875,444.504C326.465,444.566 326.18,444.949 326.238,445.359L329.645,468.645L321.363,469.973C320.953,470.039 320.672,470.426 320.738,470.836C320.801,471.207 321.117,471.473 321.48,471.473" style="fill:rgb(28,29,50);fill-rule:nonzero;"/>
        <path d="M369.391,520.891C369.391,520.891 337.973,527.68 252.75,538.25C248.254,545.949 251.219,556.77 251.219,556.77C310.969,569.984 354.367,569.465 369.512,566.434C369.512,566.434 411.188,542.832 369.391,520.891" style="fill:rgb(73,69,139);fill-rule:nonzero;"/>
        <path d="M387.457,421.641C387.457,421.641 384.664,464.418 394.637,549.793C402.297,554.355 413.121,551.461 413.121,551.461C423.012,486.559 421.281,477.516 426.195,445.25C426.195,445.25 426.531,404.215 387.457,421.641" style="fill:rgb(73,69,139);fill-rule:nonzero;"/>
        <path d="M286.914,284.922C286.875,288.965 289.145,293.535 292.789,295.195C297.727,297.449 299.602,292.91 299.582,288.48C299.559,284.914 297.965,278.773 293.918,277.527C290.098,276.352 286.945,281.605 286.914,284.922" style="fill:rgb(241,143,122);fill-rule:nonzero;"/>
        <path d="M297.082,295.859C299.426,301.676 302.613,306.441 308.109,309.785C313.488,313.051 319.035,314.719 324.191,310.41C328.293,306.988 330.938,302.008 332.41,297C335.801,285.469 333.094,269.543 325.734,260.297C317.652,250.148 302.148,252.492 296.207,263.891C291.367,273.176 293.297,286.477 297.082,295.859" style="fill:rgb(241,143,122);fill-rule:nonzero;"/>
        <path d="M292.879,291.684L292.68,291.656C292.277,291.547 292.039,291.133 292.148,290.73C293.152,287.066 292.457,283.422 290.563,282.434C290.191,282.242 290.047,281.789 290.242,281.418C290.434,281.047 290.887,280.902 291.258,281.098C293.844,282.445 294.828,286.66 293.605,291.129C293.516,291.465 293.211,291.684 292.879,291.684" style="fill:rgb(177,111,114);fill-rule:nonzero;"/>
        <path d="M289.164,286.059C288.871,286.059 288.594,285.891 288.469,285.605C288.305,285.223 288.477,284.777 288.859,284.609C289.523,284.324 291.801,283.461 293.371,284.434C293.723,284.652 293.836,285.117 293.617,285.473C293.398,285.828 292.93,285.938 292.578,285.719C291.871,285.285 290.469,285.555 289.465,285.996C289.367,286.039 289.262,286.059 289.164,286.059" style="fill:rgb(177,111,114);fill-rule:nonzero;"/>
        <path d="M299.301,285.699C298.488,286.574 295.699,284.289 295.109,282.539C295.051,282.363 295.109,282.539 295.109,282.539C294.891,280.473 293.504,278.703 291.055,278.617C289.301,278.555 287.625,281.219 287.129,282.992C287.004,281.133 287.039,278.453 287.008,276.465C286.98,274.578 287.082,272.555 287.316,270.617C287.84,266.109 288.191,263.633 290.32,259.398C292.621,254.844 296.219,251.301 301.328,250.004C307.5,248.43 317.582,247.137 322.84,250.914C325.535,252.855 323.301,253.352 322.922,261.84C322.922,261.84 298.703,256.07 299.301,285.699" style="fill:rgb(61,51,97);fill-rule:nonzero;"/>
        <path d="M324.789,282.059C324.863,283.34 325.551,284.34 326.32,284.289C327.086,284.246 327.645,283.164 327.566,281.887C327.484,280.605 326.801,279.605 326.027,279.656C325.262,279.703 324.707,280.777 324.789,282.059" style="fill:rgb(28,29,50);fill-rule:nonzero;"/>
        <path d="M308.156,282.059C308.234,283.34 308.922,284.34 309.688,284.289C310.457,284.246 311.012,283.164 310.93,281.887C310.852,280.605 310.168,279.605 309.398,279.652C308.629,279.703 308.074,280.777 308.156,282.059" style="fill:rgb(28,29,50);fill-rule:nonzero;"/>
        <path d="M305.809,288.73C305.859,289.641 307.578,290.277 309.633,290.145C311.691,290.02 313.313,289.176 313.254,288.262C313.199,287.352 311.484,286.723 309.43,286.852C307.371,286.98 305.75,287.824 305.809,288.73" style="fill:rgb(177,111,114);fill-rule:nonzero;"/>
        <path d="M324.172,288.73C324.227,289.641 325.941,290.273 328,290.145C330.055,290.016 331.68,289.172 331.621,288.262C331.566,287.352 329.852,286.719 327.793,286.852C325.734,286.977 324.113,287.824 324.172,288.73" style="fill:rgb(177,111,114);fill-rule:nonzero;"/>
        <path d="M332.75,275.992C336,268.379 337.152,255.488 323.086,250.426C319.637,249.18 311.207,248.395 308.414,251.469C302.234,258.289 316.148,260.98 319.871,261.352C325.805,261.945 329.844,263.57 332.75,275.992" style="fill:rgb(61,51,97);fill-rule:nonzero;"/>
        <path d="M272.148,335.266C272.148,335.266 301.027,357.543 272.148,374.641C273.328,377.523 289.051,421.387 292.012,423.23C300.809,428.699 348.836,431.156 350.348,418.52C355.293,377.301 355.859,374.98 351.02,360.75C343.078,338.039 337.277,325.793 337.277,325.793L333.242,324.449L320.414,321.945C320.414,321.945 322.742,334.406 312.113,335.07C312.113,335.07 295.012,336.598 295.285,322.367L272.148,335.266" style="fill:rgb(61,51,97);fill-rule:nonzero;"/>
        <path d="M267.633,444.453C270.5,408.988 266.152,402.805 266.152,390.629C266.152,379.332 262.105,361.656 262.949,355.84C264.063,348.152 287.105,371.828 293.215,372.328C304.973,373.289 314.391,376.648 323.449,367.809C327.504,363.852 331.422,360.422 336.98,359.258C341.555,358.301 348.781,359.191 354.301,371.805L355.875,399.922C355.875,401.426 355.902,402.84 355.945,404.215C354.59,414.652 356.676,420.211 358.578,438.648C358.633,439.16 358.711,439.699 358.777,440.223C350.176,456.391 321.332,454.746 309.41,469.336C308.223,470.066 307.043,470.836 305.863,471.652C299.207,476.246 292.547,480.27 284.711,481.18C284.711,481.18 272.148,485.223 267.91,484.109C267.91,470.723 266.922,453.223 267.633,444.453" style="fill:rgb(61,51,97);fill-rule:nonzero;"/>
        <path d="M317.57,358.824C317.973,358.824 318.309,358.504 318.32,358.094C318.461,353.402 318.168,349.27 317.906,345.625C317.242,336.273 316.758,329.516 324.23,322.059C334.609,311.707 334.609,299.875 334.609,287.348C334.609,286.93 334.273,286.594 333.855,286.594C333.441,286.594 333.105,286.93 333.105,287.348C333.105,299.551 333.105,311.082 323.168,320.996C315.211,328.938 315.711,335.98 316.406,345.73C316.664,349.34 316.957,353.434 316.816,358.051C316.805,358.465 317.133,358.813 317.547,358.824L317.57,358.824" style="fill:rgb(254,254,254);fill-rule:nonzero;"/>
        <path d="M316.805,337.234L316.84,337.234C317.254,337.215 317.574,336.863 317.555,336.445C316.98,323.789 314.086,315.691 308.176,310.195C306.672,308.797 305.129,307.504 303.637,306.258C297.316,300.969 291.859,296.402 292.734,286.836C292.773,286.422 292.469,286.055 292.055,286.02C291.645,285.973 291.273,286.285 291.238,286.699C290.293,297.051 296.305,302.082 302.672,307.41C304.148,308.648 305.676,309.93 307.152,311.297C312.75,316.508 315.496,324.285 316.055,336.516C316.07,336.918 316.406,337.234 316.805,337.234" style="fill:rgb(254,254,254);fill-rule:nonzero;"/>
        <path d="M290.086,286.93C290.086,287.926 290.895,288.734 291.891,288.734C292.887,288.734 293.695,287.926 293.695,286.93L293.695,285.184C293.695,284.188 292.887,283.379 291.891,283.379C290.895,283.379 290.086,284.188 290.086,285.184L290.086,286.93" style="fill:rgb(254,254,254);fill-rule:nonzero;"/>
        <path d="M306.281,278.676C306.629,278.676 306.973,278.512 307.191,278.211C308.352,276.629 309.141,276.559 310.715,276.406C311.336,276.352 311.793,275.801 311.734,275.18C311.676,274.559 311.137,274.09 310.504,274.156C308.465,274.352 307.008,274.645 305.375,276.875C305.004,277.379 305.113,278.086 305.617,278.457C305.816,278.602 306.051,278.676 306.281,278.676" style="fill:rgb(23,27,60);fill-rule:nonzero;"/>
        <path d="M329.969,278.344C330.188,278.344 330.406,278.281 330.602,278.148C331.117,277.797 331.25,277.098 330.898,276.582C329.723,274.848 327.176,274.164 325.527,274.621C324.926,274.785 324.574,275.41 324.742,276.008C324.906,276.609 325.523,276.961 326.129,276.797C326.965,276.563 328.445,276.984 329.031,277.852C329.25,278.172 329.605,278.344 329.969,278.344" style="fill:rgb(23,27,60);fill-rule:nonzero;"/>
        <path d="M318.996,293.25C319.723,293.25 320.441,293.195 321.094,292.957C321.422,292.836 321.625,292.504 321.586,292.16C321.453,291.031 321.035,290.07 320.637,289.141C320.195,288.121 319.777,287.156 319.734,285.996C319.676,284.5 319.859,281.75 321.727,280.172C322.043,279.898 322.082,279.426 321.816,279.105C321.547,278.789 321.07,278.746 320.75,279.016C318.398,281.012 318.16,284.281 318.227,286.055C318.281,287.492 318.773,288.637 319.25,289.742C319.531,290.395 319.805,291.023 319.965,291.684C319.41,291.758 318.766,291.742 318.133,291.723C317.848,291.711 317.563,291.703 317.289,291.703C316.871,291.703 316.535,292.043 316.535,292.461C316.535,292.875 316.871,293.215 317.289,293.215C317.547,293.215 317.816,293.223 318.09,293.23C318.391,293.238 318.691,293.25 318.996,293.25" style="fill:rgb(177,111,114);fill-rule:nonzero;"/>
        <path d="M387.168,555.176C387.332,555.176 387.496,555.125 387.633,555.012C390.621,552.652 391.055,546.922 390.41,543.609C387.797,530.23 368.492,516.453 359.211,509.832C354.492,506.461 349.945,502.914 345.551,499.484C337.328,493.066 328.82,486.43 319.184,481.035C318.824,480.832 318.363,480.961 318.16,481.324C317.957,481.688 318.09,482.145 318.449,482.352C327.984,487.688 336.066,493.996 344.625,500.672C349.031,504.113 353.59,507.668 358.34,511.059C366.746,517.059 386.434,531.105 388.934,543.898C389.512,546.867 389.059,551.969 386.703,553.832C386.375,554.09 386.32,554.563 386.574,554.887C386.723,555.074 386.945,555.176 387.168,555.176" style="fill:rgb(17,14,31);fill-rule:nonzero;"/>
        <path d="M254.781,539.688C255.953,539.688 257.141,539.594 258.219,539.496C265.898,538.793 273.648,537.473 281.141,536.191C289.637,534.742 298.426,533.238 307.391,532.578C315.289,531.992 324.547,531.535 333.32,532.563C334.293,532.676 335.578,532.785 337.051,532.906C343.266,533.426 354.832,534.398 356.824,537.738C357.039,538.094 357.5,538.207 357.859,537.996C358.215,537.781 358.332,537.32 358.117,536.965C355.727,532.961 344.563,532.027 337.176,531.406C335.723,531.285 334.453,531.18 333.492,531.066C324.594,530.027 315.25,530.484 307.277,531.074C298.242,531.742 289.422,533.25 280.887,534.707C273.422,535.98 265.703,537.297 258.082,537.992C256.539,538.137 254.758,538.273 253.211,538.109C252.809,538.066 252.43,538.363 252.383,538.777C252.34,539.191 252.641,539.563 253.055,539.605C253.613,539.664 254.195,539.688 254.781,539.688" style="fill:rgb(17,14,31);fill-rule:nonzero;"/>
        <path d="M392.586,531.074L392.629,531.07C393.047,531.047 393.359,530.688 393.336,530.273C392.637,518.617 392.332,515.5 391.582,508.887L391.219,505.719C390.152,496.469 389.055,486.906 389.074,477.645C389.078,476.648 389.074,475.656 389.07,474.664C389.055,469.441 389.039,464.047 389.816,458.875C390.418,454.883 392.008,451.406 393.691,447.73C394.145,446.746 394.594,445.762 395.031,444.754C395.195,444.371 395.023,443.93 394.641,443.762C394.262,443.598 393.816,443.77 393.652,444.152C393.219,445.152 392.77,446.129 392.324,447.102C390.598,450.879 388.961,454.445 388.332,458.652C387.535,463.938 387.551,469.391 387.566,474.668C387.57,475.66 387.57,476.648 387.57,477.645C387.547,486.988 388.652,496.598 389.723,505.891L390.086,509.059C390.836,515.637 391.137,518.742 391.836,530.363C391.859,530.766 392.191,531.074 392.586,531.074" style="fill:rgb(28,29,50);fill-rule:nonzero;"/>
        <path d="M383.051,350.539C376.383,350.676 376.418,352.969 376.488,345.309C376.531,340.879 374.621,332.094 376.496,328.008C377.008,326.895 376.723,324.746 377.785,324.375L378.992,326.762C379.422,329.93 378.332,333.648 382.004,335.547C384.605,332.668 386.164,331.746 388.434,330.18C390.172,328.98 394.445,322.211 396.168,321.469C401.887,319.004 392.66,333.172 391.309,335.207C395.945,329.785 397.109,326.5 397.93,326.508C400.063,327.262 400,330.551 393.418,338.184C394.551,337.461 401.656,329.734 403.008,331.121C404.512,332.668 396.41,340.578 395.297,341.57L402.695,338.309C402.695,338.309 404.195,338.758 402.82,340.891C402.82,340.891 390.16,350.391 383.051,350.539" style="fill:rgb(241,143,122);fill-rule:nonzero;"/>
        <path d="M308.145,507.898C309.422,507.898 310.656,507.715 311.813,507.301C314.945,506.188 317.129,503.523 318.293,499.398C319.977,493.445 320.473,487.285 320.949,481.328C321.375,476.031 321.816,470.559 323.098,465.355C324.672,458.957 330.176,454.535 335.996,449.855C340.359,446.344 344.871,442.719 347.563,438.172C347.777,437.813 347.656,437.348 347.301,437.137C346.941,436.93 346.48,437.043 346.27,437.402C343.715,441.719 339.313,445.258 335.055,448.68C329.293,453.313 323.332,458.102 321.637,464.996C320.324,470.316 319.879,475.852 319.449,481.207C318.977,487.09 318.488,493.176 316.844,498.988C315.82,502.621 313.957,504.941 311.309,505.883C304.844,508.188 294.965,501.996 291.02,499.227C283.887,494.219 275.051,483.426 279.934,474.211C282.906,468.605 288.93,466.758 295.309,464.801C299.813,463.422 304.469,461.992 307.828,459.09C311.484,455.926 312.477,451.188 310.234,447.559C308.59,444.895 306.02,443.965 303.535,443.059C301.945,442.484 300.445,441.941 299.227,440.969C296.438,438.746 294.867,435.945 294.566,432.648C294.133,427.973 296.336,422.332 300.457,417.566C302.352,415.375 304.598,413.406 306.77,411.504C308.809,409.719 310.918,407.867 312.777,405.809C318.742,399.203 319.266,391.023 318.992,383.895C318.871,380.73 318.859,377.484 318.852,374.344C318.844,371.051 318.836,367.648 318.699,364.305C318.656,363.285 318.563,362.238 318.473,361.18C318.223,358.383 317.965,355.492 318.672,352.871C318.781,352.469 318.543,352.055 318.141,351.945C317.742,351.836 317.328,352.078 317.219,352.48C316.445,355.359 316.715,358.387 316.973,361.316C317.063,362.348 317.152,363.371 317.195,364.367C317.332,367.684 317.34,371.07 317.348,374.348C317.355,377.5 317.363,380.762 317.484,383.949C317.75,390.781 317.262,398.594 311.66,404.801C309.859,406.793 307.785,408.609 305.781,410.371C303.566,412.309 301.281,414.313 299.32,416.582C294.938,421.652 292.598,427.711 293.066,432.785C293.41,436.508 295.168,439.656 298.289,442.148C299.699,443.273 301.387,443.887 303.02,444.477C305.367,445.328 307.586,446.133 308.957,448.348C311.105,451.832 309.367,455.766 306.844,457.949C303.727,460.645 299.422,461.965 294.867,463.363C288.477,465.32 281.871,467.348 278.605,473.504C273.262,483.582 282.586,495.145 290.156,500.457C294.43,503.461 301.824,507.898 308.145,507.898" style="fill:rgb(254,254,254);fill-rule:nonzero;"/>
        <path d="M346.566,443.828C343.813,446.578 342.32,446.578 340.801,446.578L328.555,446.578C325.188,446.578 325.152,444.684 325.992,442.965L352.809,417.445C355.703,414.695 356.914,414.695 358.434,414.695L372.898,414.695C374.938,414.695 375.91,417.934 374.234,418.922L346.566,443.828" style="fill:rgb(5,27,52);fill-rule:nonzero;"/>
        <path d="M346.594,443.922C343.625,446.676 342.32,446.676 340.801,446.676L330.547,446.676C327.797,446.676 326.961,445.645 327.797,443.922L355.066,418.203C356.887,416.398 358.176,416.168 359.695,416.168L372.195,416.168C374.234,416.168 374.93,417.445 374.234,418.922L346.594,443.922" style="fill:rgb(8,41,77);fill-rule:nonzero;"/>
        <path d="M352.559,429.953C354.535,434.078 358.094,435.922 362,436.746C370.93,438.629 377.074,420.129 368.5,421.906C364.078,422.82 347.613,419.633 352.559,429.953" style="fill:rgb(241,143,122);fill-rule:nonzero;"/>
        <path d="M275.273,369.074L327.309,410.422C327.309,410.422 334.113,411.434 340.574,405.848C340.574,405.848 348.34,401.496 334.273,388.879L285.195,339.992C285.195,339.992 271.547,329.078 266.195,346.672C266.195,346.672 262.441,359.434 275.273,369.074" style="fill:rgb(241,143,122);fill-rule:nonzero;"/>
        <path d="M270.828,336.074C270.828,336.074 279.844,326.266 303.262,350.031L326.332,371.934C326.332,371.934 312.477,396.684 299.578,400.391L272.148,374.641C272.148,374.641 248.945,348.566 270.828,336.074" style="fill:rgb(61,51,97);fill-rule:nonzero;"/>
        <path d="M363.5,382.355C349.324,403.402 345.512,410.555 329.027,410.484C318,410.438 330.496,385.117 330.496,385.117C345.813,384.828 376.488,345.309 376.488,345.309C376.488,345.309 382.094,344.301 384.605,347.906C384.605,347.906 370.184,372.426 363.5,382.355" style="fill:rgb(241,143,122);fill-rule:nonzero;"/>
        <path d="M310.16,231.66C305.762,227.875 296.336,225.688 291.496,229.016C282.77,235.016 282.895,250.68 294.316,253.535C305.273,256.277 321.094,241.059 310.16,231.66" style="fill:rgb(61,51,97);fill-rule:nonzero;"/>
        <path d="M319,299.945C319.348,299.945 319.695,299.906 320.035,299.816C320.441,299.711 320.684,299.301 320.582,298.895C320.477,298.492 320.059,298.246 319.664,298.352C317.695,298.855 314.875,296.77 314.023,294.773C313.859,294.387 313.414,294.207 313.035,294.371C312.648,294.539 312.469,294.98 312.637,295.363C313.516,297.434 316.273,299.945 319,299.945" style="fill:rgb(177,111,114);fill-rule:nonzero;"/>
        <path d="M417.57,504.078C430.691,473.285 426.578,447.23 426.578,447.23C425.781,443.828 425.176,440.242 424.707,436.617C425.352,433.008 426.348,429.484 427.969,426.117C431.281,419.223 436.633,416.063 443.785,414.172C446.406,413.48 448.965,412.781 451.402,411.824C462.805,430.918 448.156,462.844 448.156,462.844C448.156,462.844 445.051,467.785 438.367,472.723L430.27,497.332C430.27,497.332 428.633,497.906 425.898,502.863C425.898,502.863 422.898,511.555 418.582,511.574L412.031,510.414C409.602,505.18 417.57,504.078 417.57,504.078" style="fill:rgb(163,89,82);fill-rule:nonzero;"/>
        <path d="M554.617,483.379C546.141,495.973 535.699,501.598 520.313,501.434C524.684,501.48 528.172,506.008 532.602,506.699C557.215,510.539 579.559,473.742 571.406,453.008C569.293,447.641 554.766,432.359 552.707,442.129C551.652,447.234 558.441,452.254 560.145,456.605C563.684,465.645 559.715,475.789 554.617,483.379" style="fill:rgb(163,89,82);fill-rule:nonzero;"/>
        <path d="M455.277,515.801C461.008,529.281 468.691,532.012 484.441,538.152C484.441,538.152 491.324,549.719 486.637,561.074C486.637,561.074 475.309,562.289 480.285,570.07L489.492,570.047C489.492,570.047 494.969,566.328 496.441,554.98L496.395,539.539C496.395,539.539 496.961,534.336 494.695,531.98C494.695,531.98 492.191,530.797 490.238,527.707C490.238,527.707 487.82,520.047 493.766,508.691L493.102,496.727L459.559,482.293C459.559,482.293 449.129,503.922 455.277,515.801" style="fill:rgb(170,82,72);fill-rule:nonzero;"/>
        <path d="M475.719,343.48C470.5,331.262 458.703,324.273 458.703,324.273C453.578,321.645 453.762,326.785 453.762,326.785C456.012,333.586 452.941,348.051 452.941,348.051C452.941,348.051 466,352.738 475.719,343.48" style="fill:rgb(191,119,86);fill-rule:nonzero;"/>
        <path d="M456.512,328.121C456.512,328.121 457.906,338.586 455.457,343.563C455.457,343.563 459.23,345.676 463.629,342.031C463.629,342.031 460.941,333.141 456.512,328.121" style="fill:rgb(163,82,69);fill-rule:nonzero;"/>
        <path d="M477.203,515.801C482.93,529.281 490.613,532.012 506.367,538.152C506.367,538.152 513.246,549.719 508.559,561.074C508.559,561.074 497.234,562.289 502.211,570.07L511.418,570.047C511.418,570.047 516.891,566.328 518.363,554.98L518.32,539.539C518.32,539.539 518.883,534.336 516.621,531.98C516.621,531.98 514.113,530.797 512.164,527.707C512.164,527.707 509.746,520.047 515.688,508.691L515.023,496.727L479.004,491.457C479.004,491.457 471.055,503.922 477.203,515.801" style="fill:rgb(191,119,86);fill-rule:nonzero;"/>
        <path d="M426.605,432.379C426.77,427.207 427.867,422.215 429.238,417.277C439.703,401.277 454.016,386.961 454.016,386.961L462.77,377.652C469.156,373.383 479.02,361.977 479.02,361.977C479.02,361.977 473.395,353.613 487.91,365.816C483.383,359.547 494.609,351.762 492.891,395.508C492.891,395.508 496.082,415.426 502.047,426.113C512.941,443.664 518.941,459.48 530.57,476.52C534.891,482.84 531.102,498.941 527.605,504.965C524.109,510.984 518,516.539 511.828,521.051C511.637,520.941 511.402,520.918 511.152,521.074C497.699,529.531 483.676,514.379 484.625,500.785C485.715,499.754 486.438,499.18 486.438,499.18L478.875,494.379C478.875,494.379 450.859,482.891 432.723,455.98C429.469,448.422 426.348,440.664 426.605,432.379" style="fill:rgb(191,119,86);fill-rule:nonzero;"/>
        <path d="M491.91,370.754C491.91,350.258 482.387,341.023 482.387,341.023C477.922,328.516 466.566,320.824 466.566,320.824C461.609,317.895 461.484,323.031 461.484,323.031C463.316,329.961 460.5,338.977 460.5,338.977C460.5,338.977 446.293,355.473 430.148,365.285C430.148,365.285 424.098,368.902 423.598,374.828C423.598,374.828 429.328,387.117 458.02,385.156C458.02,385.156 483.02,385.48 491.91,370.754" style="fill:rgb(191,119,86);fill-rule:nonzero;"/>
        <path d="M430.148,365.285C443.066,357.434 454.734,345.316 458.887,340.781C457.738,343.66 456.094,346.344 453.875,348.75C450.137,352.805 445.691,355.949 441.426,359.395C438.773,361.535 434.75,365.219 437.188,369C438.598,371.199 442.039,372.77 442.504,375.449C443.09,378.848 442.223,381.766 440.375,384.336C426.801,381.684 423.598,374.828 423.598,374.828C424.098,368.902 430.148,365.285 430.148,365.285" style="fill:rgb(158,97,69);fill-rule:nonzero;"/>
        <path d="M461.402,355.727C461.703,355.727 461.984,355.547 462.102,355.246C462.742,353.559 461.871,351.645 460.148,350.988C459.309,350.664 458.391,350.688 457.574,351.055C456.777,351.41 456.168,352.055 455.863,352.867C455.715,353.25 455.91,353.68 456.293,353.824C456.672,353.973 457.105,353.777 457.25,353.395C457.418,352.957 457.746,352.609 458.184,352.414C458.633,352.211 459.145,352.199 459.617,352.379C460.574,352.742 461.063,353.793 460.707,354.719C460.563,355.102 460.754,355.531 461.141,355.676L461.402,355.727" style="fill:rgb(23,9,3);fill-rule:nonzero;"/>
        <path d="M464.098,323.484C464.098,323.484 465.5,333.949 463.047,338.926C463.047,338.926 466.828,341.035 471.219,337.391C471.219,337.391 468.531,328.5 464.098,323.484" style="fill:rgb(163,82,69);fill-rule:nonzero;"/>
        <path d="M483.926,527.332C484.113,527.332 484.301,527.262 484.441,527.117C484.73,526.832 484.73,526.363 484.445,526.078C471.023,512.602 472.555,493.805 488.445,477.023C488.727,476.727 488.711,476.262 488.418,475.984C488.125,475.703 487.66,475.715 487.375,476.012C471.133,493.168 469.57,513.23 483.402,527.117C483.547,527.262 483.738,527.332 483.926,527.332" style="fill:rgb(28,29,50);fill-rule:nonzero;"/>
        <path d="M476.906,494.23C477.164,494.23 477.414,494.094 477.547,493.852C477.746,493.5 477.621,493.051 477.27,492.852C475.703,491.973 474.156,491.129 472.629,490.293C465.465,486.379 458.695,482.684 452.605,476.824L452.566,476.785C452.453,476.676 452.316,476.609 452.172,476.59C445.551,470.727 436.82,462.176 430.82,451.652C430.617,451.301 430.164,451.18 429.816,451.379C429.465,451.582 429.34,452.031 429.543,452.383C436.176,464.012 446.039,473.238 452.887,479.164L453.121,479.305C458.938,484.488 465.262,487.945 471.922,491.582C473.445,492.418 474.988,493.258 476.547,494.137C476.66,494.199 476.785,494.23 476.906,494.23" style="fill:rgb(28,29,50);fill-rule:nonzero;"/>
        <path d="M429.246,380.934C432.871,376.707 432.844,370.258 428.766,366.223C426.93,367.645 423.586,370.805 423.215,375.219C423.215,375.219 424.578,378.125 429.246,380.934" style="fill:rgb(96,43,29);fill-rule:nonzero;"/>
        <path d="M493.074,386.297C493.074,386.297 474.895,393.043 452.922,386.105L449.324,391.91C449.324,391.91 454.824,401.035 492.891,395.504C492.891,395.504 494.164,393.102 493.074,386.297" style="fill:rgb(61,51,97);fill-rule:nonzero;"/>
        <path d="M456.031,387.191C463.746,387.191 474.223,384.254 479.414,380.379C479.809,380.09 479.887,379.527 479.594,379.137C479.301,378.742 478.742,378.66 478.352,378.953C472.793,383.102 460.246,386.211 453.043,385.227C452.555,385.16 452.109,385.5 452.043,385.988C451.98,386.473 452.316,386.922 452.805,386.988C453.801,387.125 454.887,387.191 456.031,387.191" style="fill:rgb(28,29,50);fill-rule:nonzero;"/>
        <path d="M411.496,417.543L422.324,429.828L428.734,446.293L455.824,426.172L432.547,415.676L420.953,407.305C417.961,410.867 414.809,414.281 411.496,417.543" style="fill:rgb(191,119,86);fill-rule:nonzero;"/>
        <path d="M401.281,420.855C405.324,417.344 411.496,417.543 411.496,417.543C419.301,415.82 420.953,407.305 420.953,407.305C411.539,400.512 407.363,405.59 407.363,405.59L403.57,409.855C403.57,409.855 401.199,413.156 397.813,414.598C394.727,416.883 391.574,419.176 388.891,421.84L391.238,424.773C396.359,427.93 401.281,420.855 401.281,420.855" style="fill:rgb(191,119,86);fill-rule:nonzero;"/>
    </g>
</svg>
